<?xml version="1.0" encoding="UTF-8"?>
<svg version="1.1" xmlns="http://www.w3.org/2000/svg" width="2048" height="2048">
<path d="M0 0 C1.42650879 -0.04737305 1.42650879 -0.04737305 2.88183594 -0.09570312 C8.9157644 -0.04917441 12.21383266 0.95900468 16.5637207 5.20385742 C19.16709262 8.29685667 19.14441572 10.72375283 18.8125 14.6875 C17.44921875 17.34375 17.44921875 17.34375 15.5 20.1875 C11.56089422 26.15186683 8.42392256 32.38370037 5.3125 38.8125 C1.42569392 46.7444315 -2.46377057 53.9115294 -8.1875 60.6875 C-8.83589844 61.48414063 -9.48429687 62.28078125 -10.15234375 63.1015625 C-16.72375253 70.81103649 -24.46039707 77.18574353 -32.1875 83.6875 C-33.3090136 84.63752542 -34.43012747 85.58802299 -35.55078125 86.5390625 C-37.14813799 87.89389625 -38.74666458 89.24719358 -40.34936523 90.59570312 C-43.10294456 92.9129183 -45.83823719 95.24751994 -48.546875 97.6171875 C-83.91119745 128.49367731 -119.51437876 144.17532395 -166.9375 144.0625 C-167.84790039 144.06162384 -168.75830078 144.06074768 -169.69628906 144.05984497 C-188.4091919 144.00114372 -206.68851013 142.42558924 -225.1875 139.6875 C-226.05598572 139.55927856 -226.92447144 139.43105713 -227.8192749 139.2989502 C-234.34525691 138.3276426 -240.86176274 137.30314868 -247.375 136.25 C-248.68295532 136.04151932 -248.68295532 136.04151932 -250.01733398 135.8288269 C-292.25856529 129.0194563 -292.25856529 129.0194563 -303.1875 114.6875 C-305.82812758 110.85771562 -305.33727974 107.18089219 -305.1875 102.6875 C-306.25226563 102.79449219 -307.31703125 102.90148438 -308.4140625 103.01171875 C-328.49384069 104.78106732 -347.05480447 98.85915972 -363.1875 86.6875 C-369.0209482 81.79174652 -374.27278418 76.35453248 -375.52734375 68.58203125 C-375.73752367 64.10099537 -374.98387545 61.15886263 -372.1875 57.6875 C-367.02288445 52.02308295 -358.77730913 51.17425378 -351.5 50.1875 C-348.60494002 49.75050981 -346.76995807 49.10933223 -344.125 48 C-335.85368421 45.13523188 -326.85105582 48.05186427 -318.8125 50.625 C-292.75783498 58.95877514 -264.31500257 57.87189163 -237.25 57.9375 C-236.13411499 57.94276703 -235.01822998 57.94803406 -233.86853027 57.95346069 C-220.82260132 58.00108671 -208.0939716 57.657885 -195.1875 55.6875 C-194.25413818 55.54586426 -193.32077637 55.40422852 -192.35913086 55.25830078 C-190.11070078 54.8993667 -187.86816047 54.51527177 -185.625 54.125 C-158.46584912 49.7040035 -158.46584912 49.7040035 -149.09375 56.12109375 C-147.27652987 57.56693754 -145.64938389 58.88247294 -144.1875 60.6875 C-144.1875 61.6775 -144.1875 62.6675 -144.1875 63.6875 C-102.13352892 56.06212734 -65.55026973 45.38774898 -33.4765625 15.78125 C-29.54276373 12.18309959 -25.48829458 8.83776354 -21.1875 5.6875 C-20.50171875 5.15640625 -19.8159375 4.6253125 -19.109375 4.078125 C-13.13209333 0.25094465 -6.9063386 0.14034513 0 0 Z " fill="#7923CB" transform="translate(1273.1875,1002.3125)"/>
<path d="M0 0 C1.35822606 -0.0040488 2.71645157 -0.00828602 4.07467651 -0.01269531 C8.43261014 -0.02412372 12.79049369 -0.02260931 17.1484375 -0.01953125 C17.89517731 -0.01941166 18.64191711 -0.01929207 19.4112854 -0.01916885 C177.90767217 0.01291994 177.90767217 0.01291994 201.95703125 23.359375 C204.9959822 26.86818869 206.55392944 29.84295795 206.4921875 34.55078125 C205.55764678 41.49611793 202.45461822 45.4051215 197.5234375 50.16796875 C196.25153711 51.41688299 194.98066005 52.66684046 193.7109375 53.91796875 C193.14761719 54.4490625 192.58429688 54.98015625 192.00390625 55.52734375 C188.12333106 59.82771731 187.90730233 64.63751165 187.18359375 70.1953125 C186.10922634 75.03314446 184.0606364 78.28274724 179.8984375 80.98046875 C179.28742188 81.39941406 178.67640625 81.81835938 178.046875 82.25 C171.2207597 84.73318436 162.89402991 82.83335023 155.87109375 81.8203125 C154.8897496 81.68476456 153.90840546 81.54921661 152.89732361 81.40956116 C148.73226337 80.8341136 144.56924606 80.24445309 140.40600586 79.65600586 C137.35337479 79.22660763 134.29979714 78.80450531 131.24609375 78.3828125 C129.82744774 78.17820656 129.82744774 78.17820656 128.38014221 77.96946716 C127.50840866 77.84926712 126.63667511 77.72906708 125.73852539 77.60522461 C124.97069229 77.49641464 124.20285919 77.38760468 123.41175842 77.27549744 C120.98465443 77.13728825 119.79224237 78.01411715 117.71484375 79.203125 C107.79180783 83.57209091 94.2640594 78.29955065 84.5234375 75.16796875 C83.8634375 74.83796875 83.2034375 74.50796875 82.5234375 74.16796875 C80.34551939 74.01140587 78.1630165 73.91732366 75.98046875 73.8515625 C75.31402847 73.83064545 74.6475882 73.80972839 73.96095276 73.78817749 C71.75274094 73.72125187 69.5444265 73.66248161 67.3359375 73.60546875 C66.56993225 73.58495453 65.803927 73.56444031 65.01470947 73.54330444 C26.59119758 72.52964261 -12.04687782 73.04111722 -50.328125 76.80078125 C-53.72291915 77.13127489 -57.06270264 77.24530538 -60.4765625 77.16796875 C-60.4765625 77.82796875 -60.4765625 78.48796875 -60.4765625 79.16796875 C-62.72320512 80.4865197 -64.97353556 81.79790847 -67.2265625 83.10546875 C-67.86078125 83.47865234 -68.495 83.85183594 -69.1484375 84.23632812 C-75.0015094 87.62013532 -79.69419315 88.78786272 -86.4765625 88.16796875 C-87.83185489 87.67102821 -89.18598381 87.17090555 -90.5390625 86.66796875 C-96.67626543 85.14432288 -101.83419229 88.82310865 -106.93359375 91.87109375 C-112.18322167 95.19073178 -117.00522904 98.56484031 -120.1015625 104.04296875 C-121.4765625 106.16796875 -121.4765625 106.16796875 -124.3515625 107.29296875 C-127.4765625 107.16796875 -127.4765625 107.16796875 -130.3515625 105.41796875 C-133.56526901 100.5028882 -133.49502127 96.88700647 -132.4765625 91.16796875 C-128.70791977 77.704905 -122.32543159 66.06197736 -112.5390625 56.04296875 C-108.60729629 51.85042212 -107.84314663 49.36734841 -107.74609375 43.73828125 C-106.90276827 35.69613389 -100.84088897 28.62050679 -95.1328125 23.29296875 C-69.15478948 2.51055033 -31.84128469 0.03098833 0 0 Z " fill="#7E22D4" transform="translate(674.4765625,891.83203125)"/>
<path d="M0 0 C0.99 0.66 1.98 1.32 3 2 C3 2.66 3 3.32 3 4 C3.72598389 4.0424585 4.45196777 4.08491699 5.19995117 4.12866211 C14.9849551 4.78351924 24.61613228 6.13208419 34.3125 7.5625 C35.93939544 7.79922489 37.5663483 8.03555552 39.19335938 8.27148438 C43.12958122 8.84312529 47.0649936 9.42005387 51 10 C51 9.34 51 8.68 51 8 C57.87160454 5.70946515 65.77073589 7.04831674 72.875 7.8125 C81.68011239 8.70372854 90.49210427 9.47158703 99.31253052 10.19128418 C114.19452108 11.40643715 129.06765838 12.70685129 143.9375 14.0625 C144.83832306 14.14449646 145.73914612 14.22649292 146.66726685 14.31097412 C154.69560846 15.04261763 162.72354091 15.7770975 170.74755859 16.55493164 C171.69280899 16.64628891 172.63805939 16.73764618 173.61195374 16.83177185 C175.4121016 17.00630897 177.21211043 17.18228852 179.01194763 17.36000061 C189.00092005 18.32878459 197.57908149 18.88589194 207 15 C213.64934556 12.31196669 219.91608462 12.0234268 226.75 14.1875 C232.07400326 17.15665567 236.31797412 20.33794537 239 26 C239 26.99 239 27.98 239 29 C254.27683123 29.26892188 269.39715863 28.81600084 284.62719727 27.71142578 C285.87686279 27.62103027 287.12652832 27.53063477 288.4140625 27.4375 C289.5170166 27.35371094 290.6199707 27.26992187 291.75634766 27.18359375 C301.27749276 26.64468805 301.27749276 26.64468805 304.375 28.16796875 C307.55413996 31.75214337 307.25803979 36.40821507 307 41 C305.5625 44.1875 305.5625 44.1875 303 47 C302.49726562 47.60070313 301.99453125 48.20140625 301.4765625 48.8203125 C278.4154129 74.49975856 237.21895898 75.20330034 205.39666748 77.93945312 C201.10705339 78.31022526 196.81856954 78.69379992 192.52993774 79.07573509 C191.83492157 79.13762331 191.1399054 79.19951153 190.42382812 79.26327515 C189.7348645 79.32463024 189.04590088 79.38598534 188.33605957 79.44919968 C186.28276529 79.63129244 184.2292976 79.81130592 182.17578125 79.99087524 C174.92367437 80.62964181 167.68724064 81.34051971 160.453125 82.15625 C152.45700854 83.03779896 144.55158615 83.38579921 136.5 83.375 C135.82766327 83.37478851 135.15532654 83.37457703 134.46261597 83.37435913 C101.0960537 83.27125979 66.34894257 76.19554329 41.09375 53.11328125 C35.9972308 47.96921989 35.9972308 47.96921989 36.0078125 44.265625 C36.04648437 43.27046875 36.08515625 42.2753125 36.125 41.25 C35.86724854 37.93500768 35.86724854 37.93500768 34 35 C28.46168617 31.49571201 21.82406404 29.8887777 15.62695312 27.91015625 C8.51687571 25.44673909 1.95971626 21.55892825 -4 17 C-4.886875 16.484375 -5.77375 15.96875 -6.6875 15.4375 C-9 14 -9 14 -10 12 C-10.03916203 7.8723217 -9.97554839 4.14975346 -7.25 0.9375 C-4.58679888 -0.17216713 -2.85961904 -0.36661783 0 0 Z " fill="#7C23D0" transform="translate(583,1050)"/>
<path d="M0 0 C3.24902964 3.64525277 4.07523085 5.71645857 3.94140625 10.66796875 C2.95367533 16.42124677 -0.94069974 19.78728691 -5.49609375 23.09765625 C-8.46097676 25.06495327 -11.48986215 26.91754063 -14.54443359 28.74169922 C-16.4536065 29.8846423 -18.34746146 31.04963409 -20.23828125 32.22265625 C-23.29683578 34.11973957 -26.36440362 36.00153427 -29.4375 37.875 C-13.42428755 51.72956862 24.53621535 49.55771395 44.85562134 51.62908936 C99.9433814 57.24494973 99.9433814 57.24494973 120.0625 60.9375 C120.83231201 61.07551025 121.60212402 61.21352051 122.39526367 61.35571289 C128.86014783 62.65548786 135.19474168 64.78911767 140.1875 69.1875 C142.09595091 72.91765405 141.78902973 74.90681558 140.5625 78.875 C137.15237383 83.22585063 132.57028959 83.91786391 127.33032227 84.58032227 C111.86897573 85.78953922 96.27440469 82.8354311 81.04508877 80.54096031 C48.64505877 75.66034343 16.25577324 72.18824748 -16.4375 69.875 C-17.34423462 69.81052673 -18.25096924 69.74605347 -19.18518066 69.67962646 C-29.80111238 68.93426742 -40.41682508 68.36500294 -51.05126953 67.96612549 C-53.61515568 67.86821568 -56.17863837 67.76211461 -58.7421875 67.65576172 C-95.56861593 66.12952219 -95.56861593 66.12952219 -132.10449219 70.40942383 C-139.74772504 71.93471109 -147.99002145 71.99421196 -154.88671875 68.140625 C-156.4375 66.875 -156.4375 66.875 -157.72851562 64.8137207 C-159.26713931 62.66339682 -159.26713931 62.66339682 -161.70239258 62.46850586 C-162.57017334 62.50854736 -163.4379541 62.54858887 -164.33203125 62.58984375 C-165.28787109 62.61626953 -166.24371094 62.64269531 -167.22851562 62.66992188 C-168.22560547 62.71697266 -169.22269531 62.76402344 -170.25 62.8125 C-182.45742002 63.34742292 -182.45742002 63.34742292 -187.4375 59.875 C-189.61031478 56.61577783 -189.89745229 55.6523582 -189.4375 51.875 C-182.82510758 40.54257747 -168.18212205 32.45794877 -157.375 25.5625 C-156.80007813 25.19068604 -156.22515625 24.81887207 -155.6328125 24.43579102 C-143.56823601 16.95621357 -130.29782198 12.13801151 -116.875 7.75 C-115.69188232 7.36013916 -115.69188232 7.36013916 -114.48486328 6.96240234 C-101.93886546 2.84119531 -89.46383518 -0.84573426 -76.4375 -3.125 C-74.86307129 -3.41044678 -74.86307129 -3.41044678 -73.25683594 -3.70166016 C-16.82651325 -13.67573188 -16.82651325 -13.67573188 0 0 Z " fill="#8322DE" transform="translate(1053.4375,903.125)"/>
<path d="M0 0 C26.05466502 8.33377514 54.49749743 7.24689163 81.5625 7.3125 C82.67838501 7.31776703 83.79427002 7.32303406 84.94396973 7.32846069 C97.98989868 7.37608671 110.7185284 7.032885 123.625 5.0625 C124.55836182 4.92086426 125.49172363 4.77922852 126.45336914 4.63330078 C128.70179922 4.2743667 130.94433953 3.89027177 133.1875 3.5 C159.29680912 -0.7501021 159.29680912 -0.7501021 167.625 4.0625 C170.13194715 5.90529324 172.41869428 7.87038274 174.625 10.0625 C174.295 11.3825 173.965 12.7025 173.625 14.0625 C173.02961426 14.17843506 172.43422852 14.29437012 171.82080078 14.41381836 C169.12993604 14.93953798 166.4399682 15.46971295 163.75 16 C162.81285156 16.18240234 161.87570312 16.36480469 160.91015625 16.55273438 C160.01425781 16.72998047 159.11835937 16.90722656 158.1953125 17.08984375 C156.95418701 17.33335571 156.95418701 17.33335571 155.68798828 17.58178711 C153.57781634 17.98918942 153.57781634 17.98918942 151.625 19.0625 C149.7922539 19.10889864 147.95794376 19.10029265 146.125 19.0625 C142.30124539 19.02621289 138.60810478 19.10319993 134.8125 19.5625 C128.10578172 20.34184042 121.36551041 20.14338612 114.625 20.0625 C114.625 20.7225 114.625 21.3825 114.625 22.0625 C109.51636104 22.0871501 104.40775641 22.10533607 99.29907227 22.11743164 C97.55980832 22.12247204 95.82054864 22.1293043 94.08129883 22.13793945 C91.58674063 22.15001792 89.09223827 22.15573108 86.59765625 22.16015625 C85.81536148 22.16531754 85.03306671 22.17047882 84.22706604 22.17579651 C82.35932886 22.17599226 80.49170796 22.12449694 78.625 22.0625 C78.295 21.7325 77.965 21.4025 77.625 21.0625 C75.95897597 21.01622155 74.29123639 21.02463099 72.625 21.0625 C70.95876361 21.10036901 69.29102403 21.10877845 67.625 21.0625 C67.295 20.7325 66.965 20.4025 66.625 20.0625 C65.5525 20.083125 64.48 20.10375 63.375 20.125 C59.67317584 20.06330293 57.96108415 19.44584617 54.625 18.0625 C50.65848042 17.00101563 46.63960389 16.17218954 42.625 15.3125 C40.80850952 14.91998047 40.80850952 14.91998047 38.95532227 14.51953125 C27.74992079 12.16716371 16.47458324 10.42697208 5.15982056 8.69464111 C-6.75034834 6.85262461 -18.0908513 4.41561892 -29.375 0.0625 C-28.375 -1.9375 -28.375 -1.9375 -25.1875 -3.1875 C-16.83331792 -5.06719097 -7.9665888 -2.56316335 0 0 Z " fill="#502677" transform="translate(954.375,1052.9375)"/>
<path d="M0 0 C8.80511239 0.89122854 17.61710427 1.65908703 26.43753052 2.37878418 C41.31952108 3.59393715 56.19265838 4.89435129 71.0625 6.25 C71.96332306 6.33199646 72.86414612 6.41399292 73.79226685 6.49847412 C81.82060846 7.23011763 89.84854091 7.9645975 97.87255859 8.74243164 C98.81780899 8.83378891 99.76305939 8.92514618 100.73695374 9.01927185 C102.5371016 9.19380897 104.33711043 9.36978852 106.13694763 9.54750061 C116.12592005 10.51628459 124.70408149 11.07339194 134.125 7.1875 C140.77434556 4.49946669 147.04108462 4.2109268 153.875 6.375 C159.11666405 9.29823572 163.64861401 12.50637921 166.125 18.1875 C165.69140625 20.33984375 165.69140625 20.33984375 165.125 22.1875 C159.16202281 22.35470754 153.19891908 22.51530784 147.2355957 22.66967773 C145.20527305 22.72318003 143.17499786 22.77851547 141.14477539 22.83569336 C138.23333986 22.9173755 135.32179947 22.99255001 132.41015625 23.06640625 C131.4966188 23.09344131 130.58308136 23.12047638 129.64186096 23.14833069 C127.47015498 23.20023771 125.29729367 23.19939236 123.125 23.1875 C122.795 22.8575 122.465 22.5275 122.125 22.1875 C120.35646708 22.08811137 118.58381725 22.05780777 116.8125 22.0625 C115.84699219 22.05992188 114.88148438 22.05734375 113.88671875 22.0546875 C111.18235094 22.08028554 111.18235094 22.08028554 108.89453125 22.8203125 C108.31058594 22.94148438 107.72664062 23.06265625 107.125 23.1875 C106.135 22.1975 106.135 22.1975 105.125 21.1875 C100.47305286 20.84533765 100.47305286 20.84533765 96.125 22.1875 C95.135 21.5275 94.145 20.8675 93.125 20.1875 C90.625 20.02083333 90.625 20.02083333 88.125 20.1875 C85.125 20.1875 85.125 20.1875 83.09838867 19.28881836 C78.6904457 17.65615305 74.19524013 17.19244405 69.55078125 16.56640625 C68.51293991 16.42097885 67.47509857 16.27555145 66.4058075 16.12571716 C63.08383843 15.66116124 59.7607746 15.20511424 56.4375 14.75 C52.0997963 14.15044339 47.76262704 13.54713593 43.42578125 12.94140625 C41.83947906 12.72044029 41.83947906 12.72044029 40.22113037 12.49501038 C33.14495509 11.49950871 26.09605754 10.3902853 19.05265808 9.18618774 C13.29932629 8.20394734 7.5377096 7.37355255 1.75 6.625 C-5.82038493 5.62060312 -13.3569547 4.53567268 -20.875 3.1875 C-21.205 2.1975 -21.535 1.2075 -21.875 0.1875 C-15.00339546 -2.10303485 -7.10426411 -0.76418326 0 0 Z " fill="#502578" transform="translate(655.875,1057.8125)"/>
<path d="M0 0 C2.09749336 0.01068628 4.19498685 0.02134687 6.29248047 0.03198242 C21.29866997 0.14150867 36.20248818 0.62315904 51.125 2.3125 C52.04732422 2.41433594 52.96964844 2.51617188 53.91992188 2.62109375 C64.03917167 3.78455611 73.95251918 5.57539461 83.875 7.875 C84.78749512 8.08487549 85.69999023 8.29475098 86.64013672 8.51098633 C87.47561035 8.7148999 88.31108398 8.91881348 89.171875 9.12890625 C89.91276367 9.30881104 90.65365234 9.48871582 91.41699219 9.67407227 C93.125 10.3125 93.125 10.3125 94.125 12.3125 C93.25439941 12.30805878 92.38379883 12.30361755 91.48681641 12.29904175 C21.35962491 11.67155106 21.35962491 11.67155106 -48.61669922 15.69824219 C-56.38667239 16.43027196 -64.07407981 16.51899495 -71.875 16.3125 C-66.81328076 12.93802051 -61.71975294 10.89533746 -55.96484375 9.06640625 C-53.72679773 8.34201043 -53.72679773 8.34201043 -51.375 6.75 C-47.73742418 4.6583939 -43.94944872 4.07502091 -39.875 3.3125 C-38.17851318 2.94475464 -38.17851318 2.94475464 -36.44775391 2.56958008 C-24.27940681 0.04969936 -12.38962364 -0.11750129 0 0 Z " fill="#8C22EF" transform="translate(675.875,952.6875)"/>
<path d="M0 0 C0.8178598 -0.00095673 1.6357196 -0.00191345 2.47836304 -0.00289917 C4.21165036 -0.0035798 5.94494023 -0.00173363 7.67822266 0.00244141 C10.30507297 0.00775012 12.93174905 0.00251394 15.55859375 -0.00390625 C17.24739621 -0.00324464 18.93619855 -0.00196178 20.625 0 C21.40034088 -0.00202423 22.17568176 -0.00404846 22.97451782 -0.00613403 C28.27897226 0.01614731 33.45229287 0.45056453 38.7109375 1.1328125 C39.80145416 1.27335304 39.80145416 1.27335304 40.91400146 1.41673279 C43.55951248 1.76115461 46.20446618 2.10886837 48.84765625 2.47070312 C53.17119941 3.033356 57.35717381 3.14286738 61.7109375 3.1328125 C73.86734537 4.47824827 86.35910231 6.50799076 97.7109375 11.1328125 C99.36708407 11.51500017 101.03550774 11.84676352 102.7109375 12.1328125 C103.401875 12.32101562 104.0928125 12.50921875 104.8046875 12.703125 C109.78717116 14.01517903 112.84507174 14.3785967 117.7109375 12.1328125 C118.7009375 13.1228125 119.6909375 14.1128125 120.7109375 15.1328125 C121.7009375 14.4728125 122.6909375 13.8128125 123.7109375 13.1328125 C122.55920395 15.60081297 121.66310185 17.18064815 119.7109375 19.1328125 C124.1659375 21.1128125 124.1659375 21.1128125 128.7109375 23.1328125 C128.3809375 23.7928125 128.0509375 24.4528125 127.7109375 25.1328125 C119.33618132 27.92439789 110.87373798 25.94070414 102.5859375 23.7578125 C101.74417969 23.53657715 100.90242187 23.3153418 100.03515625 23.08740234 C93.98357191 21.40544691 93.98357191 21.40544691 91.7109375 19.1328125 C95.6709375 18.8028125 99.6309375 18.4728125 103.7109375 18.1328125 C89.78823629 14.5639742 76.00291401 11.71082248 61.7109375 10.1328125 C60.78861328 10.02839844 59.86628906 9.92398438 58.91601562 9.81640625 C43.87994493 8.20357586 28.82780207 7.91288549 13.71868896 7.83627319 C11.65864352 7.82577771 9.59861479 7.81094888 7.53863525 7.79141235 C-5.10183227 7.68759901 -16.92833197 8.46113129 -29.2890625 11.1328125 C-30.97602648 11.4481933 -32.66336974 11.76157686 -34.3515625 12.0703125 C-38.02628801 12.9145062 -41.13761195 14.41428656 -44.44921875 16.19140625 C-46.96541103 17.47888468 -49.60579236 18.25783311 -52.2890625 19.1328125 C-54.30376348 20.10285371 -56.30828297 21.09526132 -58.2890625 22.1328125 C-55.9790625 22.4628125 -53.6690625 22.7928125 -51.2890625 23.1328125 C-51.2890625 23.7928125 -51.2890625 24.4528125 -51.2890625 25.1328125 C-53.53570512 26.45136345 -55.78603556 27.76275222 -58.0390625 29.0703125 C-58.67328125 29.44349609 -59.3075 29.81667969 -59.9609375 30.20117188 C-65.84636602 33.60368524 -70.47192887 34.69437715 -77.2890625 34.1328125 C-80.7890625 33.1328125 -80.7890625 33.1328125 -83.2890625 32.1328125 C-80.91213189 28.56741658 -79.70400971 28.35118533 -75.7265625 27.0703125 C-73.89600792 26.47758416 -72.07773745 25.84196613 -70.2890625 25.1328125 C-69.9590625 24.4728125 -69.6290625 23.8128125 -69.2890625 23.1328125 C-67.9690625 23.1328125 -66.6490625 23.1328125 -65.2890625 23.1328125 C-65.2890625 22.4728125 -65.2890625 21.8128125 -65.2890625 21.1328125 C-65.9490625 20.8028125 -66.6090625 20.4728125 -67.2890625 20.1328125 C-61.72869466 17.22625658 -61.72869466 17.22625658 -59.359375 16.72265625 C-56.77404084 15.98607991 -55.08089701 14.71422154 -52.9140625 13.1328125 C-49.25936175 10.61274107 -46.71273813 9.70981367 -42.2890625 9.1328125 C-41.05861868 8.46362376 -39.85067556 7.75195967 -38.6640625 7.0078125 C-35.2890625 5.1328125 -35.2890625 5.1328125 -32.8515625 5.3828125 C-32.3359375 5.6303125 -31.8203125 5.8778125 -31.2890625 6.1328125 C-31.2890625 5.4728125 -31.2890625 4.8128125 -31.2890625 4.1328125 C-29.9690625 4.4628125 -28.6490625 4.7928125 -27.2890625 5.1328125 C-27.2890625 4.4728125 -27.2890625 3.8128125 -27.2890625 3.1328125 C-26.16886719 3.00003906 -25.04867187 2.86726562 -23.89453125 2.73046875 C-22.42185521 2.55224681 -20.94920003 2.37385239 -19.4765625 2.1953125 C-18.73857422 2.10830078 -18.00058594 2.02128906 -17.24023438 1.93164062 C-1.39994335 -0.00359855 -1.39994335 -0.00359855 0 0 Z M114.7109375 15.1328125 C114.3809375 15.7928125 114.0509375 16.4528125 113.7109375 17.1328125 C114.3709375 17.1328125 115.0309375 17.1328125 115.7109375 17.1328125 C115.3809375 16.4728125 115.0509375 15.8128125 114.7109375 15.1328125 Z " fill="#7823C8" transform="translate(665.2890625,945.8671875)"/>
<path d="M0 0 C0.84145569 -0.00522675 1.68291138 -0.01045349 2.54986572 -0.01583862 C24.77527156 -0.07826226 46.75694191 2.50033732 68.8014679 5.0953064 C72.27301625 5.48198798 75.75049789 5.79732637 79.22999573 6.10353088 C81.81563884 6.4405877 83.92859522 7.33817815 86.3125 8.375 C88.95954131 8.92247493 91.58712036 9.42500548 94.25 9.875 C99.08381462 10.69643255 103.6901244 11.69676661 108.3125 13.375 C104.11546351 16.17302432 100.90118001 15.4797213 96 15.1875 C95.15759766 15.15591797 94.31519531 15.12433594 93.44726562 15.09179688 C88.31194343 14.81475447 84.87486629 13.90522061 80.3125 11.375 C77.98783435 10.8490733 77.98783435 10.8490733 75.6875 10.75 C74.39392578 10.65138672 74.39392578 10.65138672 73.07421875 10.55078125 C71.70716797 10.46376953 71.70716797 10.46376953 70.3125 10.375 C62.86722403 9.83519203 55.58353901 8.97771385 48.21484375 7.77734375 C45.1817701 7.28917872 45.1817701 7.28917872 41.5625 7.375 C38.76059799 7.375 36.96424987 7.08937268 34.31445312 6.39160156 C28.86804736 5.14301951 23.59911158 5.08676885 18.03125 5.109375 C16.97772339 5.10746155 15.92419678 5.1055481 14.83874512 5.10357666 C12.62345133 5.10222282 10.40814939 5.10586294 8.19287109 5.11425781 C4.82240804 5.12496851 1.45247793 5.11433493 -1.91796875 5.1015625 C-4.08073033 5.10288424 -6.24349158 5.10544692 -8.40625 5.109375 C-9.40338013 5.10532654 -10.40051025 5.10127808 -11.42785645 5.09710693 C-17.44303267 5.13697037 -22.87940965 5.81751545 -28.6875 7.375 C-30.3125 7.77083333 -31.9375 8.16666667 -33.5625 8.5625 C-34.64144531 8.83126953 -34.64144531 8.83126953 -35.7421875 9.10546875 C-37.6875 9.375 -37.6875 9.375 -40.6875 8.375 C-42.76459804 8.83710667 -42.76459804 8.83710667 -44.9375 9.6875 C-47.77490814 10.70546623 -50.51637586 11.59603356 -53.4375 12.375 C-56.6086227 13.35073006 -58.89930521 14.61403487 -61.6875 16.375 C-62.533125 16.705 -63.37875 17.035 -64.25 17.375 C-66.72948843 18.25680322 -66.72948843 18.25680322 -68.625 19.9375 C-70.6875 21.375 -70.6875 21.375 -73.5 21.625 C-80.1773095 23.19613165 -84.53277149 30.21306457 -88.6875 35.375 C-90.0075 35.045 -91.3275 34.715 -92.6875 34.375 C-91.6875 32.375 -90.6875 30.375 -89.6875 28.375 C-89.2853125 27.3540625 -89.2853125 27.3540625 -88.875 26.3125 C-86.29901409 22.10957562 -82.4752671 19.56096614 -78 17.75 C-74.7977839 16.7040241 -74.7977839 16.7040241 -73.45703125 14.984375 C-70.74462396 12.51746153 -67.45545653 11.49033959 -64.0625 10.25 C-63.33538818 9.9806665 -62.60827637 9.71133301 -61.85913086 9.43383789 C-57.58329481 7.90337259 -53.75905734 6.93266558 -49.2109375 6.71484375 C-44.783317 6.1185543 -40.55620846 4.60588567 -36.32836914 3.18920898 C-24.7117614 -0.50916761 -12.08137319 0.06636159 0 0 Z " fill="#7023B8" transform="translate(673.6875,917.625)"/>
<path d="M0 0 C0.86625 0.2784375 0.86625 0.2784375 1.75 0.5625 C3.94799512 1.15941386 3.94799512 1.15941386 5.875 0.50390625 C8.22445379 -0.05322526 9.86209454 0.06607517 12.25 0.375 C16.72500151 0.89412646 21.19063305 1.19655783 25.6875 1.4375 C32.25096722 1.80659851 38.68899456 2.59927589 45.19921875 3.52734375 C50.5742628 4.19577163 55.94974968 4.48786161 61.35546875 4.78515625 C65.07575898 5.00446596 68.76106894 5.35199413 72.46484375 5.75390625 C75.53578294 6.05200975 78.60839372 6.24140049 81.6875 6.4375 C86.78971389 6.78246975 91.81159546 7.34707369 96.875 8.0625 C102.01353369 8.78668713 106.82513108 9.09408853 112 9 C112.94875 9.165 113.8975 9.33 114.875 9.5 C120.5880099 10.41408158 126.22085966 10.25416291 131.9375 9.4375 C135 9 135 9 138 10 C140.40521194 9.07491849 142.67692901 8.09740163 145 7 C151.68609865 4 151.68609865 4 154 4 C154.33 3.01 154.66 2.02 155 1 C155.99 1.33 156.98 1.66 158 2 C152.87529162 8.83294451 147.4294307 12.23417746 139 14 C135.87095786 14.27502699 132.76075383 14.28078124 129.62109375 14.265625 C128.73196793 14.26753845 127.8428421 14.2694519 126.92677307 14.27142334 C125.05005611 14.2727791 123.17332958 14.26912534 121.29663086 14.26074219 C118.47031725 14.2501233 115.64465225 14.26061202 112.81835938 14.2734375 C103.78920128 14.28015288 95.13474513 13.97530928 86.21704102 12.49462891 C80.59239589 11.62982425 74.92680256 11.3890869 69.25 11.0625 C58.68767439 10.39886991 48.22236961 9.41351518 37.72143555 8.10791016 C28.34922359 6.96912903 18.96511928 6.27792557 9.54052734 5.734375 C8.46625488 5.66605469 7.39198242 5.59773438 6.28515625 5.52734375 C5.33519775 5.47312256 4.38523926 5.41890137 3.40649414 5.36303711 C1 5 1 5 -2 3 C-1.34 2.01 -0.68 1.02 0 0 Z " fill="#6B24AF" transform="translate(650,1093)"/>
<path d="M0 0 C0.8178598 -0.00095673 1.6357196 -0.00191345 2.47836304 -0.00289917 C4.21165036 -0.0035798 5.94494023 -0.00173363 7.67822266 0.00244141 C10.30507297 0.00775012 12.93174905 0.00251394 15.55859375 -0.00390625 C17.24739621 -0.00324464 18.93619855 -0.00196178 20.625 0 C21.40034088 -0.00202423 22.17568176 -0.00404846 22.97451782 -0.00613403 C28.27897226 0.01614731 33.45229287 0.45056453 38.7109375 1.1328125 C39.80145416 1.27335304 39.80145416 1.27335304 40.91400146 1.41673279 C43.55951248 1.76115461 46.20446618 2.10886837 48.84765625 2.47070312 C53.17119941 3.033356 57.35717381 3.14286738 61.7109375 3.1328125 C73.86734537 4.47824827 86.35910231 6.50799076 97.7109375 11.1328125 C99.36915523 11.50591149 101.03670764 11.83982227 102.7109375 12.1328125 C105.38418376 12.77479284 108.04635747 13.4553769 110.7109375 14.1328125 C110.7109375 14.4628125 110.7109375 14.7928125 110.7109375 15.1328125 C97.61133473 14.82958095 85.95896576 13.14895601 73.453125 9.0703125 C68.49609743 7.82846843 63.61041331 7.44619341 58.5234375 7.0703125 C56.91807129 6.9468042 56.91807129 6.9468042 55.28027344 6.82080078 C52.09113335 6.58135449 48.90130006 6.35530034 45.7109375 6.1328125 C44.47899658 6.04169189 44.47899658 6.04169189 43.22216797 5.94873047 C37.3879089 5.52741622 31.55782065 5.29485083 25.7109375 5.1328125 C24.40012207 5.09349609 23.08930664 5.05417969 21.73876953 5.01367188 C-11.66106035 3.93505622 -11.66106035 3.93505622 -43.0703125 13.96704102 C-45.72158376 15.36006701 -48.4162787 16.4761371 -51.2265625 17.5078125 C-52.12246094 17.84554687 -53.01835938 18.18328125 -53.94140625 18.53125 C-56.2890625 19.1328125 -56.2890625 19.1328125 -59.2890625 18.1328125 C-50.35758498 10.44758766 -50.35758498 10.44758766 -45.4140625 9.6953125 C-42.45081083 9.1619272 -41.13996454 8.55789647 -38.6640625 7.0078125 C-35.2890625 5.1328125 -35.2890625 5.1328125 -32.8515625 5.3828125 C-32.3359375 5.6303125 -31.8203125 5.8778125 -31.2890625 6.1328125 C-31.2890625 5.4728125 -31.2890625 4.8128125 -31.2890625 4.1328125 C-29.9690625 4.4628125 -28.6490625 4.7928125 -27.2890625 5.1328125 C-27.2890625 4.4728125 -27.2890625 3.8128125 -27.2890625 3.1328125 C-26.16886719 3.00003906 -25.04867187 2.86726562 -23.89453125 2.73046875 C-22.42185521 2.55224681 -20.94920003 2.37385239 -19.4765625 2.1953125 C-18.73857422 2.10830078 -18.00058594 2.02128906 -17.24023438 1.93164062 C-1.39994335 -0.00359855 -1.39994335 -0.00359855 0 0 Z " fill="#6C24AF" transform="translate(665.2890625,945.8671875)"/>
<path d="M0 0 C-0.65061095 1.67299959 -1.32033324 3.33859237 -2 5 C-2.26039063 5.64324219 -2.52078125 6.28648438 -2.7890625 6.94921875 C-4.31203672 9.52844929 -6.08286663 10.80850874 -8.5 12.5625 C-11.37514757 14.65818386 -12.99874622 15.99811934 -15 19 C-22.52164558 22.78389532 -30.57880818 24.76980966 -38.80859375 26.32421875 C-41.98903822 26.92031052 -41.98903822 26.92031052 -44.8828125 28.046875 C-48.77203995 29.23606234 -52.39361903 29.41590485 -56.4375 29.5625 C-57.89465641 29.62337676 -59.35169495 29.68714808 -60.80859375 29.75390625 C-61.44595459 29.77783447 -62.08331543 29.8017627 -62.73999023 29.82641602 C-65.16629595 29.98241976 -65.16629595 29.98241976 -68.20629883 30.50708008 C-72.47081844 31.06117398 -76.59730494 31.14387407 -80.890625 31.1328125 C-81.71705505 31.13376923 -82.54348511 31.13472595 -83.3949585 31.13571167 C-85.12951738 31.13638832 -86.86407888 31.1345702 -88.59863281 31.13037109 C-91.25591668 31.12498801 -93.91303364 31.13034755 -96.5703125 31.13671875 C-98.26041704 31.13605841 -99.95052147 31.13477817 -101.640625 31.1328125 C-102.83126556 31.13584885 -102.83126556 31.13584885 -104.04595947 31.13894653 C-107.29059444 31.12508738 -109.89979383 31.03340206 -113 30 C-115.28851285 29.68454084 -117.58089915 29.39685811 -119.875 29.125 C-127.04257518 28.23443252 -133.99492586 26.77194118 -141 25 C-141 24.34 -141 23.68 -141 23 C-138.43719792 23.14154136 -135.87484515 23.28808562 -133.3125 23.4375 C-132.59126953 23.47681641 -131.87003906 23.51613281 -131.12695312 23.55664062 C-127.32123642 23.78255075 -123.73336153 24.19406799 -120 25 C-101.59782793 27.80433545 -82.35294401 28.57680561 -63.953125 25.4375 C-61 25 -61 25 -57.93359375 25.03125 C-54.90152695 24.99895102 -52.67510291 24.45863912 -49.8125 23.5 C-46.95094674 22.55054454 -45.04059849 22 -42 22 C-40.36418597 21.55916198 -38.73967974 21.0753694 -37.125 20.5625 C-34.53664071 19.74324867 -32.07721244 19.01310061 -29.3984375 18.55859375 C-26.8191455 17.95787916 -25.53692412 17.15259881 -23.5 15.5 C-20.61850757 13.31081419 -18.56857362 12.65736883 -15 12 C-10.76848737 9.21611011 -7.79923178 5.51578963 -4.6484375 1.609375 C-3 0 -3 0 0 0 Z " fill="#7123BA" transform="translate(1143,1095)"/>
<path d="M0 0 C0.65607239 -0.0014502 1.31214478 -0.00290039 1.98809814 -0.00439453 C16.75412558 -0.00081521 31.07175637 1.93049716 45.625 4.375 C45.625 5.035 45.625 5.695 45.625 6.375 C44.68180908 6.46064209 43.73861816 6.54628418 42.7668457 6.63452148 C39.25362248 6.95480979 35.74063711 7.27750245 32.2277832 7.60180664 C30.70996745 7.74143728 29.19206424 7.8801207 27.67407227 8.01782227 C25.48690252 8.2163952 23.30007429 8.4184195 21.11328125 8.62109375 C19.14161987 8.80176392 19.14161987 8.80176392 17.13012695 8.98608398 C14.23377429 9.30745264 11.4723135 9.77942657 8.625 10.375 C0.69319517 10.95306463 -6.82524677 11.46352219 -13.375 6.375 C-15.375 4.125 -15.375 4.125 -16.375 2.375 C-11.42350603 -0.92599598 -5.82189966 -0.00581245 0 0 Z " fill="#4C2274" transform="translate(910.375,963.625)"/>
<path d="M0 0 C2.37126256 -0.00224174 4.74209709 -0.02065307 7.11328125 -0.03930664 C8.62890469 -0.04223201 10.14453029 -0.04422252 11.66015625 -0.04516602 C12.7177565 -0.05594429 12.7177565 -0.05594429 13.79672241 -0.06694031 C18.7203188 -0.04359722 18.7203188 -0.04359722 20.94921875 2.18530273 C10.66621172 4.38032923 0.45138408 5.32890353 -10.046875 5.12280273 C-12.97894826 5.18380816 -15.56224739 5.57801426 -18.42578125 6.18530273 C-24.17077992 7.38813555 -29.72834566 7.27847317 -35.578125 7.18920898 C-39.51337934 7.18478238 -43.16893444 7.58809553 -47.05078125 8.18530273 C-48.04078125 8.18530273 -49.03078125 8.18530273 -50.05078125 8.18530273 C-54.25008928 10.66271877 -57.88316466 13.75703199 -60.92578125 17.56030273 C-61.62703125 18.42655273 -62.32828125 19.29280273 -63.05078125 20.18530273 C-63.71078125 20.18530273 -64.37078125 20.18530273 -65.05078125 20.18530273 C-62.93329567 13.53034805 -61.17203297 9.05063247 -55.05078125 5.18530273 C-52.25698536 4.22017325 -49.93773579 3.64469332 -47.05078125 3.18530273 C-45.96667969 3.01256836 -44.88257813 2.83983398 -43.765625 2.66186523 C-29.22757483 0.55224281 -14.67217526 -0.00155689 0 0 Z " fill="#7024B9" transform="translate(968.05078125,929.814697265625)"/>
<path d="M0 0 C0.99 1.32 1.98 2.64 3 4 C-1.58420573 9.39318321 -7.15866342 11.40640891 -13.96557617 12.01196289 C-14.82256104 12.06989014 -15.6795459 12.12781738 -16.5625 12.1875 C-17.46782471 12.26154053 -18.37314941 12.33558105 -19.3059082 12.41186523 C-26.98057257 13.00841005 -34.67111222 13.38172515 -42.36352539 13.65893555 C-52.31241542 13.87627863 -52.31241542 13.87627863 -62.07104492 15.55859375 C-64.66340702 16.15180862 -66.97142555 15.66950995 -69.57421875 15.29345703 C-74.52485321 14.69455781 -79.51977659 14.61919475 -84.5 14.4375 C-85.60859375 14.39431641 -86.7171875 14.35113281 -87.859375 14.30664062 C-90.57281506 14.20137786 -93.28633417 14.09924154 -96 14 C-96 13.67 -96 13.34 -96 13 C-95.32646484 12.9498877 -94.65292969 12.89977539 -93.95898438 12.84814453 C-77.94739939 11.68302 -77.94739939 11.68302 -62 9.875 C-57.28509347 9.2385121 -52.83539712 8.92110549 -48.08984375 9.0625 C-45.70257254 8.99110497 -43.58002059 8.52343676 -41.25 8 C-35.51634389 6.84672538 -29.8879511 6.80853306 -24.0625 6.8125 C-23.13791992 6.81185547 -22.21333984 6.81121094 -21.26074219 6.81054688 C-14.45878307 6.8654215 -14.45878307 6.8654215 -11.90014648 7.6159668 C-9.71929674 8.27204637 -9.71929674 8.27204637 -7 6.3125 C-4.44038532 4.33946368 -2.1948418 2.36367578 0 0 Z " fill="#6824A8" transform="translate(999,950)"/>
<path d="M0 0 C0.65307129 0.18320801 1.30614258 0.36641602 1.97900391 0.55517578 C10.54423019 2.83661545 19.1411277 4.20786699 27.89422607 5.50579834 C42.76020223 7.71823012 57.42088727 10.29788823 72 14 C72 14.66 72 15.32 72 16 C71.11441406 15.93941406 70.22882813 15.87882812 69.31640625 15.81640625 C68.07761719 15.73261719 66.83882812 15.64882812 65.5625 15.5625 C64.89669922 15.51738281 64.23089844 15.47226563 63.54492188 15.42578125 C59.85250854 15.17893468 56.15995531 14.94885972 52.46484375 14.74609375 C51.71968506 14.70476318 50.97452637 14.66343262 50.20678711 14.62084961 C48.77154242 14.54225174 47.33616043 14.46610937 45.90063477 14.39282227 C40.15541504 14.0763747 34.57250232 13.44472282 29 12 C28.34 12 27.68 12 27 12 C27 11.34 27 10.68 27 10 C23.7 9.67 20.4 9.34 17 9 C17 8.34 17 7.68 17 7 C16.13375 7.309375 16.13375 7.309375 15.25 7.625 C13 8 13 8 11.15625 7 C8.53759501 5.78555131 7.07860503 5.95902867 4.25 6.375 C3.05117188 6.54128906 3.05117188 6.54128906 1.828125 6.7109375 C1.22484375 6.80632812 0.6215625 6.90171875 0 7 C-0.33 6.34 -0.66 5.68 -1 5 C-1.44730469 5.44730469 -1.89460937 5.89460938 -2.35546875 6.35546875 C-5.90364583 9.90364583 -9.45182292 13.45182292 -13 17 C-13.6640625 15.25390625 -13.6640625 15.25390625 -14 13 C-11.57440601 8.24911853 -7.93474768 4.13394494 -3 2 C-2.01 2 -1.02 2 0 2 C0 1.34 0 0.68 0 0 Z " fill="#6F24B6" transform="translate(937,1056)"/>
<path d="M0 0 C11.05567988 0.93291001 21.94186935 2.42262613 32.875 4.3125 C50.5176079 7.36011009 68.24787147 9.69231233 86 12 C86 12.66 86 13.32 86 14 C82.32672921 14.93465787 79.79570588 14.95965335 76.125 14.0625 C73.13132943 13.39772903 70.71351782 13 67.625 13 C63.42894145 13 59.58093025 12.30434621 55.45703125 11.578125 C51.56296286 10.92691356 47.66540732 10.37912184 43.75 9.875 C42.46609375 9.70742187 41.1821875 9.53984375 39.859375 9.3671875 C36.54208895 9.05157526 33.33440968 8.9906667 30.00634766 9.03393555 C27.3231664 8.98855197 24.69528278 8.61854779 22.04003906 8.24951172 C17.77679043 7.72808519 13.46951298 7.63890127 9.1796875 7.48242188 C8.11234375 7.43118164 8.11234375 7.43118164 7.0234375 7.37890625 C6.39356934 7.3538501 5.76370117 7.32879395 5.11474609 7.30297852 C3 7 3 7 -3 5 C-8.94 10.445 -8.94 10.445 -15 16 C-15.66 15.34 -16.32 14.68 -17 14 C-15.73046875 12.53515625 -14.4609375 11.0703125 -13.19140625 9.60546875 C-11.79128769 7.89287029 -11.79128769 7.89287029 -11 5 C-8.49609375 3.83203125 -8.49609375 3.83203125 -5.4375 2.8125 C-3.91962891 2.29623047 -3.91962891 2.29623047 -2.37109375 1.76953125 C-1.58863281 1.51558594 -0.80617188 1.26164062 0 1 C0 0.67 0 0.34 0 0 Z " fill="#6824A8" transform="translate(650,1063)"/>
<path d="M0 0 C2.09749336 0.01068628 4.19498685 0.02134687 6.29248047 0.03198242 C21.29866997 0.14150867 36.20248818 0.62315904 51.125 2.3125 C52.04732422 2.41433594 52.96964844 2.51617188 53.91992188 2.62109375 C64.03917167 3.78455611 73.95251918 5.57539461 83.875 7.875 C84.78749512 8.08487549 85.69999023 8.29475098 86.64013672 8.51098633 C87.47561035 8.7148999 88.31108398 8.91881348 89.171875 9.12890625 C89.91276367 9.30881104 90.65365234 9.48871582 91.41699219 9.67407227 C93.125 10.3125 93.125 10.3125 94.125 12.3125 C92.70876784 12.36697047 91.29191809 12.40550508 89.875 12.4375 C89.08609375 12.46070313 88.2971875 12.48390625 87.484375 12.5078125 C85.125 12.3125 85.125 12.3125 83.24414062 11.3671875 C79.65482725 9.58080112 75.77996896 8.99978168 71.875 8.1875 C71.05386719 8.00574219 70.23273438 7.82398438 69.38671875 7.63671875 C64.17553032 6.53832246 59.44558138 6.17934073 54.125 6.3125 C51.78987041 5.99199202 49.45677975 5.65653308 47.125 5.3125 C44.98013846 5.13376154 42.8341493 4.96830519 40.6875 4.8125 C37.11160976 4.55154564 33.55481447 4.28158892 30 3.8125 C20.29479918 2.56021602 10.68727177 2.12608825 0.91015625 2.12719727 C-1.23978488 2.12501039 -3.38921145 2.10677909 -5.5390625 2.08789062 C-18.41649436 2.03531912 -30.46330374 3.90437029 -42.875 7.3125 C-43.79796875 7.56128906 -44.7209375 7.81007813 -45.671875 8.06640625 C-50.18784747 9.34236889 -53.92443834 10.71641662 -57.875 13.3125 C-59.52869357 14.01072617 -61.19227014 14.68748605 -62.875 15.3125 C-62.875 15.6425 -62.875 15.9725 -62.875 16.3125 C-65.845 16.3125 -68.815 16.3125 -71.875 16.3125 C-66.81328076 12.93802051 -61.71975294 10.89533746 -55.96484375 9.06640625 C-53.72679773 8.34201043 -53.72679773 8.34201043 -51.375 6.75 C-47.73742418 4.6583939 -43.94944872 4.07502091 -39.875 3.3125 C-38.17851318 2.94475464 -38.17851318 2.94475464 -36.44775391 2.56958008 C-24.27940681 0.04969936 -12.38962364 -0.11750129 0 0 Z " fill="#8122DB" transform="translate(675.875,952.6875)"/>
<path d="M0 0 C0.90717773 -0.00133942 1.81435547 -0.00267883 2.74902344 -0.00405884 C16.78651004 0.00041898 30.39552164 0.77158884 44.29980469 2.81347656 C50.02011861 3.62547412 55.76189239 4.26537047 61.5 4.9375 C63.60688506 5.19045665 65.71366795 5.44426688 67.8203125 5.69921875 C68.70219238 5.80580811 69.58407227 5.91239746 70.49267578 6.0222168 C71.11384277 6.09738525 71.73500977 6.17255371 72.375 6.25 C72.87 7.735 72.87 7.735 73.375 9.25 C72.3025 9.105625 71.23 8.96125 70.125 8.8125 C66.64982448 8.37275899 63.18051598 8.07227277 59.6875 7.8125 C55.26713651 7.4655854 50.93836607 6.90172182 46.5625 6.1875 C43.14468085 5.63073279 40.09691835 5.25 36.625 5.25 C33.82309799 5.25 32.02674987 4.96437268 29.37695312 4.26660156 C23.93054736 3.01801951 18.66161158 2.96176885 13.09375 2.984375 C12.04022339 2.98246155 10.98669678 2.9805481 9.90124512 2.97857666 C7.68595133 2.97722282 5.47064939 2.98086294 3.25537109 2.98925781 C-0.11509196 2.99996851 -3.48502207 2.98933493 -6.85546875 2.9765625 C-9.01823033 2.97788424 -11.18099158 2.98044692 -13.34375 2.984375 C-14.34088013 2.98032654 -15.33801025 2.97627808 -16.36535645 2.97210693 C-22.38053267 3.01197037 -27.81690965 3.69251545 -33.625 5.25 C-35.25 5.64583333 -36.875 6.04166667 -38.5 6.4375 C-39.57894531 6.70626953 -39.57894531 6.70626953 -40.6796875 6.98046875 C-42.625 7.25 -42.625 7.25 -45.625 6.25 C-46.945 6.25 -48.265 6.25 -49.625 6.25 C-46.21352214 3.97568142 -43.69883637 3.47817621 -39.6875 2.6875 C-38.46160156 2.43871094 -37.23570312 2.18992187 -35.97265625 1.93359375 C-24.08366585 -0.08798199 -12.0218727 0.01052679 0 0 Z " fill="#6824A9" transform="translate(678.625,919.75)"/>
<path d="M0 0 C4.04099234 0.22919061 6.24839223 1.99240853 9.6171875 4.1484375 C9.6171875 5.1384375 9.6171875 6.1284375 9.6171875 7.1484375 C7.9671875 6.8184375 6.3171875 6.4884375 4.6171875 6.1484375 C4.1221875 4.6634375 4.1221875 4.6634375 3.6171875 3.1484375 C2.9571875 3.1484375 2.2971875 3.1484375 1.6171875 3.1484375 C1.6171875 3.8084375 1.6171875 4.4684375 1.6171875 5.1484375 C-0.01186523 5.13272705 -0.01186523 5.13272705 -1.67382812 5.11669922 C-32.08277571 4.84171038 -32.08277571 4.84171038 -62.3828125 7.1484375 C-63.08905762 7.22320313 -63.79530273 7.29796875 -64.52294922 7.375 C-72.46343074 8.2205233 -78.07349337 9.23742399 -83.4453125 15.5859375 C-84.0846875 16.4315625 -84.7240625 17.2771875 -85.3828125 18.1484375 C-87.03064856 19.83372438 -88.69283927 21.50540797 -90.3828125 23.1484375 C-90.0940625 22.6328125 -89.8053125 22.1171875 -89.5078125 21.5859375 C-88.23332512 19.02783118 -88.23332512 19.02783118 -87.5078125 15.5859375 C-86.29580274 11.88257434 -85.72355245 10.96198204 -82.3828125 9.1484375 C-74.32580216 5.54103043 -65.13021506 4.80540211 -56.3828125 5.1484375 C-56.3828125 4.4884375 -56.3828125 3.8284375 -56.3828125 3.1484375 C-42.05624461 2.14257627 -27.73248738 1.13827125 -13.3828125 0.5234375 C-12.4539624 0.48355713 -11.5251123 0.44367676 -10.56811523 0.40258789 C-7.0454531 0.26060588 -3.52218558 0.15455318 0 0 Z " fill="#7A23CD" transform="translate(990.3828125,925.8515625)"/>
<path d="M0 0 C-29.71417812 15.66747574 -80.30746804 13.58771327 -112 5 C-112 4.34 -112 3.68 -112 3 C-109.43719792 3.14154136 -106.87484515 3.28808562 -104.3125 3.4375 C-103.59126953 3.47681641 -102.87003906 3.51613281 -102.12695312 3.55664062 C-98.32123642 3.78255075 -94.73336153 4.19406799 -91 5 C-72.59782793 7.80433545 -53.35294401 8.57680561 -34.953125 5.4375 C-32 5 -32 5 -28.93359375 5.03125 C-25.90152695 4.99895102 -23.67510291 4.45863912 -20.8125 3.5 C-17.95094674 2.55054454 -16.04059849 2 -13 2 C-10.4335253 1.25285194 -7.90956896 0.40722175 -5.375 -0.44140625 C-3 -1 -3 -1 0 0 Z " fill="#6924AA" transform="translate(1114,1115)"/>
<path d="M0 0 C-0.33 0.66 -0.66 1.32 -1 2 C-2.65 2 -4.3 2 -6 2 C-6 2.33 -6 2.66 -6 3 C-13.64860022 3.43353238 -20.17100004 2.24863206 -27.5 0.125 C-28.48742187 -0.14441406 -29.47484375 -0.41382813 -30.4921875 -0.69140625 C-37.72157738 -2.72157738 -37.72157738 -2.72157738 -40 -5 C-27.46325114 -10.6199219 -11.77647964 -6.31084076 0 0 Z " fill="#4B2374" transform="translate(965,1057)"/>
<path d="M0 0 C1.485 0.495 1.485 0.495 3 1 C-2.12470838 7.83294451 -7.5705693 11.23417746 -16 13 C-19.12904214 13.27502699 -22.23924617 13.28078124 -25.37890625 13.265625 C-26.26803207 13.26753845 -27.1571579 13.2694519 -28.07322693 13.27142334 C-29.94994389 13.2727791 -31.82667042 13.26912534 -33.70336914 13.26074219 C-36.52968275 13.2501233 -39.35534775 13.26061202 -42.18164062 13.2734375 C-51.21079872 13.28015288 -59.86525487 12.97530928 -68.78295898 11.49462891 C-74.40758387 10.62982736 -80.07319969 10.3889111 -85.75 10.0625 C-99.56570128 9.19692928 -113.26901292 7.73660184 -127 6 C-127 5.67 -127 5.34 -127 5 C-119.41840623 4.6804012 -112.00533808 5.31009941 -104.47558594 6.07543945 C-98.26932125 6.70047286 -92.0604274 7.25671347 -85.84375 7.765625 C-85.04134384 7.83138229 -84.23893768 7.89713959 -83.41221619 7.96488953 C-80.15520534 8.23090098 -76.89810359 8.49564876 -73.64065552 8.7562561 C-71.33448153 8.94088387 -69.02856385 9.12848515 -66.72265625 9.31640625 C-65.68782104 9.39758698 -65.68782104 9.39758698 -64.63208008 9.48040771 C-61.72835691 9.71865412 -58.88463903 10.02048325 -56.01489258 10.5300293 C-52.34978809 11.10135703 -48.73895023 11.18096338 -45.0390625 11.203125 C-44.289664 11.20882507 -43.5402655 11.21452515 -42.76815796 11.22039795 C-41.18985384 11.22980007 -39.6115305 11.23636276 -38.03320312 11.24023438 C-35.63896988 11.24994335 -33.24559498 11.28101252 -30.8515625 11.3125 C-29.30990087 11.31903136 -27.76823317 11.32428131 -26.2265625 11.328125 C-25.168358 11.3466452 -25.168358 11.3466452 -24.08877563 11.36553955 C-17.43413581 11.33620271 -11.4124392 9.52474223 -6.125 5.3125 C-3 3 -3 3 -1 3 C-0.67 2.01 -0.34 1.02 0 0 Z " fill="#7223BD" transform="translate(805,1094)"/>
<path d="M0 0 C1.68740514 -0.02746229 3.3749463 -0.04660111 5.0625 -0.0625 C6.47208984 -0.07990234 6.47208984 -0.07990234 7.91015625 -0.09765625 C11 0 11 0 14.21289062 0.47314453 C27.67428201 2.34586775 41.49141039 2.24350192 55.0625 2.5625 C56.81576174 2.60585657 58.56901702 2.64947514 60.32226562 2.69335938 C64.54810912 2.79857778 68.77402275 2.90030502 73 3 C69.9262704 5.04915307 67.94500265 5.39368876 64.328125 5.75390625 C61.87760752 5.98313646 61.87760752 5.98313646 58.99609375 6.55078125 C53.61899294 7.3286867 48.21863422 6.88320343 42.8125 6.625 C41.75224609 6.58117188 40.69199219 6.53734375 39.59960938 6.4921875 C30.25093726 6.0820081 20.84925623 5.65364818 11.625 4 C10.22121094 3.7525 10.22121094 3.7525 8.7890625 3.5 C7.86867188 3.335 6.94828125 3.17 6 3 C4.00037921 2.66439931 2.00047641 2.33046218 0 2 C0 1.34 0 0.68 0 0 Z " fill="#8122DB" transform="translate(1009,1125)"/>
<path d="M0 0 C3.86228295 0.50322905 7.71101076 0.7668645 11.59765625 0.96875 C22.10579417 1.52788234 32.36986715 2.99997332 42.59765625 5.46875 C42.59765625 5.79875 42.59765625 6.12875 42.59765625 6.46875 C39.51294119 6.23146423 36.42826565 5.99377548 33.34375 5.75390625 C30.87819954 5.56622618 28.41204235 5.38632764 25.9453125 5.21484375 C24.79933594 5.13363281 23.65335938 5.05242188 22.47265625 4.96875 C21.41820312 4.8965625 20.36375 4.824375 19.27734375 4.75 C16.59765625 4.46875 16.59765625 4.46875 13.59765625 3.46875 C12.22595369 3.33516049 10.84962798 3.24549074 9.47265625 3.1875 C8.28929687 3.13142578 8.28929687 3.13142578 7.08203125 3.07421875 C6.2621875 3.03941406 5.44234375 3.00460937 4.59765625 2.96875 C2.97248494 2.89975688 1.34746823 2.82699272 -0.27734375 2.75 C-1.35628906 2.70456055 -1.35628906 2.70456055 -2.45703125 2.65820312 C-4.40234375 2.46875 -4.40234375 2.46875 -7.40234375 1.46875 C-15.99393779 0.18782872 -24.70952167 0.31405093 -33.37402344 0.33837891 C-35.66217573 0.34377318 -37.95013462 0.3383845 -40.23828125 0.33203125 C-41.71484418 0.33269159 -43.19140698 0.33397184 -44.66796875 0.3359375 C-45.98571289 0.33706543 -47.30345703 0.33819336 -48.66113281 0.33935547 C-52.31315377 0.46566525 -55.79496129 0.90687903 -59.40234375 1.46875 C-61.21391585 1.5303681 -63.02739407 1.55607808 -64.83984375 1.53125 C-66.13728516 1.51771484 -66.13728516 1.51771484 -67.4609375 1.50390625 C-68.10160156 1.49230469 -68.74226562 1.48070312 -69.40234375 1.46875 C-65.56193896 -1.09151986 -62.00702655 -1.24172491 -57.52734375 -1.65625 C-56.20343628 -1.78253784 -56.20343628 -1.78253784 -54.8527832 -1.91137695 C-36.53860762 -3.5063731 -18.15510305 -2.78364601 0 0 Z " fill="#8422E0" transform="translate(711.40234375,915.53125)"/>
<path d="M0 0 C1.41224854 0.00182785 1.41224854 0.00182785 2.85302734 0.00369263 C14.8870141 0.02194373 26.91023204 0.14428661 38.9375 0.5625 C40.08033447 0.60165527 41.22316895 0.64081055 42.40063477 0.68115234 C50.03875748 0.99208583 50.03875748 0.99208583 53.4375 2.125 C53.4375 2.785 53.4375 3.445 53.4375 4.125 C54.11296875 4.10179687 54.7884375 4.07859375 55.484375 4.0546875 C56.82242188 4.02761719 56.82242188 4.02761719 58.1875 4 C59.51007813 3.96519531 59.51007813 3.96519531 60.859375 3.9296875 C63.5510858 4.13360498 65.13654974 4.75948279 67.4375 6.125 C59.39813201 5.81661155 51.39889383 5.41256139 43.4140625 4.390625 C29.1135455 2.57386241 15.08904784 1.82068782 0.6875 1.8125 C-0.15290833 1.80918671 -0.99331665 1.80587341 -1.85919189 1.80245972 C-21.14836292 1.42328609 -21.14836292 1.42328609 -39.5625 6.125 C-40.90682102 6.55307988 -42.26104121 6.95185086 -43.625 7.3125 C-44.27597656 7.49167969 -44.92695312 7.67085937 -45.59765625 7.85546875 C-47.84648558 8.16395627 -49.41248772 7.80017089 -51.5625 7.125 C-50.9334375 6.94324219 -50.304375 6.76148438 -49.65625 6.57421875 C-45.59246672 5.38078842 -41.6364297 4.18939021 -37.75 2.5 C-26.41086193 -1.7605242 -11.94196439 -0.03346438 0 0 Z " fill="#7823C8" transform="translate(674.5625,916.875)"/>
<path d="M0 0 C1.07636719 0.00322266 2.15273438 0.00644531 3.26171875 0.00976562 C4.38964844 0.01814453 5.51757812 0.02652344 6.6796875 0.03515625 C8.38318359 0.04192383 8.38318359 0.04192383 10.12109375 0.04882812 C12.93234388 0.0606401 15.7434898 0.07711118 18.5546875 0.09765625 C18.2246875 0.75765625 17.8946875 1.41765625 17.5546875 2.09765625 C15.81152344 2.50830078 15.81152344 2.50830078 13.5390625 2.73046875 C12.70624756 2.81425781 11.87343262 2.89804687 11.01538086 2.984375 C10.12085205 3.06300781 9.22632324 3.14164063 8.3046875 3.22265625 C7.39533447 3.30902344 6.48598145 3.39539063 5.54907227 3.484375 C-0.5199284 4.02627886 -6.48924215 4.1590249 -12.58203125 4.03515625 C-15.45738768 4.09791983 -18.01009538 4.50516538 -20.8203125 5.09765625 C-26.56148011 6.29968695 -32.11504574 6.19104044 -37.9609375 6.1015625 C-41.89786976 6.0971489 -45.56700865 6.46446378 -49.4453125 7.09765625 C-49.4453125 6.10765625 -49.4453125 5.11765625 -49.4453125 4.09765625 C-43.94265095 2.55861977 -38.99622657 1.78763692 -33.296875 1.71875 C-32.1889711 1.69325829 -32.1889711 1.69325829 -31.0586853 1.66725159 C-28.72931158 1.61467929 -26.39995161 1.57403992 -24.0703125 1.53515625 C-21.71933187 1.49115651 -19.36848369 1.444515 -17.01766968 1.39234924 C-15.56206372 1.36049517 -14.10633959 1.33357326 -12.65054321 1.31211853 C-8.17249792 1.2198548 -4.49772189 -0.02367222 0 0 Z " fill="#6924AA" transform="translate(970.4453125,930.90234375)"/>
<path d="M0 0 C0 0.66 0 1.32 0 2 C-2.24664262 3.31855095 -4.49697306 4.62993972 -6.75 5.9375 C-7.38421875 6.31068359 -8.0184375 6.68386719 -8.671875 7.06835938 C-14.55730352 10.47087274 -19.18286637 11.56156465 -26 11 C-29.5 10 -29.5 10 -32 9 C-28.61502283 3.92253425 -22.7311358 3.37993536 -17 2 C-11.43080973 0.98633297 -5.66282623 0 0 0 Z " fill="#502576" transform="translate(614,969)"/>
<path d="M0 0 C0.99 1.32 1.98 2.64 3 4 C-1.58420573 9.39318321 -7.15866342 11.40640891 -13.96557617 12.01196289 C-14.82256104 12.06989014 -15.6795459 12.12781738 -16.5625 12.1875 C-17.46782471 12.26154053 -18.37314941 12.33558105 -19.3059082 12.41186523 C-26.98057257 13.00841005 -34.67111222 13.38172515 -42.36352539 13.65893555 C-52.3630497 13.87413992 -52.3630497 13.87413992 -62.1628418 15.59594727 C-64 16 -64 16 -66 15 C-66 14.34 -66 13.68 -66 13 C-56.2480487 10.98410189 -46.72321237 10.61061758 -36.8125 10.4375 C-20.80457539 11.39065725 -20.80457539 11.39065725 -7 6 C-5.75363308 4.93324054 -4.50332033 3.87108131 -3.25 2.8125 C-2.1656268 1.87620297 -1.08194399 0.93910307 0 0 Z " fill="#7124BB" transform="translate(999,950)"/>
<path d="M0 0 C24.84279384 2.41991981 24.84279384 2.41991981 30 4 C30.495 4.99 30.495 4.99 31 6 C19.33333333 6 7.66666667 6 -4 6 C-6.472802 7.99973293 -6.472802 7.99973293 -9 10.5 C-13.66666667 15 -13.66666667 15 -17 15 C-15.87687034 11.63061102 -14.46825907 10.46825907 -12 8 C-11.67 7.01 -11.34 6.02 -11 5 C-8.49609375 3.83203125 -8.49609375 3.83203125 -5.4375 2.8125 C-3.91962891 2.29623047 -3.91962891 2.29623047 -2.37109375 1.76953125 C-1.58863281 1.51558594 -0.80617188 1.26164062 0 1 C0 0.67 0 0.34 0 0 Z " fill="#7024B8" transform="translate(650,1063)"/>
<path d="M0 0 C2.125 0.375 2.125 0.375 4 1 C-0.17306451 5.58611893 -2.83986828 7.38644017 -9.09765625 7.76953125 C-11.41892231 7.81223151 -13.74087718 7.82541828 -16.0625 7.8125 C-18.47658652 7.8473318 -20.89065035 7.88377498 -23.3046875 7.921875 C-25.03477051 7.93637695 -25.03477051 7.93637695 -26.79980469 7.95117188 C-32.55286855 8.03895131 -38.26907 8.50211884 -44 9 C-44 9.66 -44 10.32 -44 11 C-54.55808656 10.22095672 -54.55808656 10.22095672 -59 8 C-59 7.67 -59 7.34 -59 7 C-58.40388916 6.96685699 -57.80777832 6.93371399 -57.19360352 6.89956665 C-50.96331584 6.55165209 -44.733714 6.19295632 -38.50439453 5.828125 C-36.1826117 5.69354765 -33.86067028 5.56167712 -31.53857422 5.43261719 C-28.19192393 5.24613432 -24.84597361 5.04977493 -21.5 4.8515625 C-20.4694751 4.79626373 -19.4389502 4.74096497 -18.37719727 4.68399048 C-8.41110098 4.42109434 -8.41110098 4.42109434 0 0 Z " fill="#7A23CC" transform="translate(996,957)"/>
<path d="M0 0 C10.34250625 -0.18691276 20.52907101 -0.21942862 30.8125 1 C42.19651588 2.34336927 53.55360119 2.19265042 65 2 C60.58644911 6.41355089 53.96564411 6.16065512 48.0625 6.25 C43.12321239 6.1866758 38.70845099 5.69810146 33.9453125 4.44140625 C30.96731501 3.76567589 28.04135534 3.94470263 25 4 C23.07445475 3.77346526 21.14912099 3.54423575 19.22680664 3.29174805 C16.98634172 2.99821054 14.74423022 2.72794367 12.5 2.46484375 C11.38818359 2.33432617 11.38818359 2.33432617 10.25390625 2.20117188 C9.51011719 2.11416016 8.76632812 2.02714844 8 1.9375 C6.83791016 1.80118164 6.83791016 1.80118164 5.65234375 1.66210938 C3.76826076 1.44113668 1.88413492 1.22052943 0 1 C0 0.67 0 0.34 0 0 Z " fill="#8422E0" transform="translate(726,1107)"/>
<path d="M0 0 C0.95390625 0.18949219 1.9078125 0.37898438 2.890625 0.57421875 C3.89609375 0.77660156 4.9015625 0.97898437 5.9375 1.1875 C8.039722 1.57325256 10.14392169 1.94838945 12.25 2.3125 C13.19488281 2.48007813 14.13976562 2.64765625 15.11328125 2.8203125 C17.96759723 3.26888502 17.96759723 3.26888502 20.98828125 3.0859375 C24.32735679 3.20092553 25.98031083 3.97102171 28.8125 5.6875 C29.98425781 6.38359375 29.98425781 6.38359375 31.1796875 7.09375 C32.04980469 7.63515625 32.04980469 7.63515625 32.9375 8.1875 C32.9375 8.8475 32.9375 9.5075 32.9375 10.1875 C27.88822912 9.51426388 22.89379753 8.65068249 17.88671875 7.71484375 C15.93587363 7.36601714 13.97979406 7.04519028 12.01953125 6.75390625 C4.39405184 5.61562465 -2.74997992 3.61714377 -10.0625 1.1875 C-10.0625 0.8575 -10.0625 0.5275 -10.0625 0.1875 C-6.37377384 -0.74293003 -3.71316905 -0.77847737 0 0 Z " fill="#7024B7" transform="translate(948.0625,1088.8125)"/>
<path d="M0 0 C0.66 0.33 1.32 0.66 2 1 C0.68 1.99 -0.64 2.98 -2 4 C-1.34 2.68 -0.68 1.36 0 0 Z M-4 5 C-4 5.99 -4 6.98 -4 8 C-6.88056104 10.72052987 -9.12470825 12.2733828 -13 13 C-13.825 13.33 -14.65 13.66 -15.5 14 C-17.68565859 14.87426344 -19.72427394 15.43423508 -22 16 C-23.400313 16.44445881 -24.79603388 16.90357432 -26.1875 17.375 C-26.98414063 17.64054687 -27.78078125 17.90609375 -28.6015625 18.1796875 C-30.08236252 18.68615005 -31.55783556 19.20891911 -33.0234375 19.7578125 C-40.46508148 22.46645686 -48.22186568 23.65433504 -56 25 C-55.67 24.34 -55.34 23.68 -55 23 C-53.06011525 22.48685006 -51.09570017 22.06541074 -49.125 21.6875 C-43.53585761 20.48677912 -38.87160649 18.68866716 -33.7578125 16.19140625 C-29.8764118 14.51459716 -25.89916064 13.68599991 -21.7890625 12.74609375 C-18.52690093 11.87344269 -15.77738587 10.59406777 -12.82421875 8.984375 C-9.9700578 7.44422819 -6.99202028 6.24667512 -4 5 Z " fill="#8122DA" transform="translate(1140,1104)"/>
<path d="M0 0 C33.09622615 1.09622615 33.09622615 1.09622615 37 5 C28.1904101 10.08953105 17.4847441 6.36140995 8.32397461 3.95483398 C2.27197431 2.27197431 2.27197431 2.27197431 0 0 Z " fill="#3A1B67" transform="translate(757,965)"/>
<path d="M0 0 C4.37575057 0.54648133 8.78823433 0.65094475 13.19140625 0.83618164 C14.15691406 0.87936523 15.12242187 0.92254883 16.1171875 0.96704102 C18.4751505 1.07209877 20.83320041 1.17425078 23.19140625 1.27368164 C22.86140625 2.26368164 22.53140625 3.25368164 22.19140625 4.27368164 C16.54957835 4.15548639 10.90792857 4.03124161 5.26635742 3.90136719 C3.346798 3.85803225 1.4272004 3.81635612 -0.49243164 3.77636719 C-3.25027989 3.71862986 -6.00793616 3.65494529 -8.765625 3.59008789 C-9.62509232 3.5733754 -10.48455963 3.5566629 -11.37007141 3.53944397 C-12.1706749 3.51949875 -12.97127838 3.49955353 -13.79614258 3.47900391 C-14.85204338 3.45568748 -14.85204338 3.45568748 -15.92927551 3.43190002 C-17.80859375 3.27368164 -17.80859375 3.27368164 -20.80859375 2.27368164 C-20.80859375 1.61368164 -20.80859375 0.95368164 -20.80859375 0.27368164 C-18.47573257 0.07623896 -16.14285824 -0.10942991 -13.80859375 -0.28881836 C-11.85953125 -0.44543945 -11.85953125 -0.44543945 -9.87109375 -0.60522461 C-6.50742837 -0.78283194 -3.33945023 -0.483191 0 0 Z " fill="#8D20F1" transform="translate(984.80859375,966.726318359375)"/>
<path d="M0 0 C0.54938232 0.11593506 1.09876465 0.23187012 1.66479492 0.35131836 C4.17230658 0.88031476 6.67990246 1.40891088 9.1875 1.9375 C10.48397461 2.21110352 10.48397461 2.21110352 11.80664062 2.49023438 C15.86744081 3.34595855 19.92794314 4.19907784 24 5 C24 5.66 24 6.32 24 7 C23.11441406 6.93941406 22.22882812 6.87882812 21.31640625 6.81640625 C20.07761719 6.73261719 18.83882812 6.64882812 17.5625 6.5625 C16.89669922 6.51738281 16.23089844 6.47226563 15.54492188 6.42578125 C11.85250854 6.17893468 8.15995531 5.94885972 4.46484375 5.74609375 C3.71968506 5.70476318 2.97452637 5.66343262 2.20678711 5.62084961 C0.77154242 5.54225174 -0.66383957 5.46610937 -2.09936523 5.39282227 C-6.44513184 5.15345679 -10.72398102 4.82902409 -15 4 C-15.33 3.34 -15.66 2.68 -16 2 C-10.72 2 -5.44 2 0 2 C0 1.34 0 0.68 0 0 Z " fill="#6724A7" transform="translate(985,1065)"/>
<path d="M0 0 C0.95398682 0.20786133 0.95398682 0.20786133 1.92724609 0.41992188 C10.67589651 2.18440834 19.24941099 2.39868624 28.1484375 2.56640625 C34.71679491 2.73730243 40.64182348 3.31894693 47 5 C46.67 5.66 46.34 6.32 46 7 C45.28457031 6.9278125 44.56914063 6.855625 43.83203125 6.78125 C38.40195588 6.27547325 33.07967007 5.96186033 27.625 6.0625 C19.06383797 6.14501722 7.80967068 5.90483534 0 2 C0 1.34 0 0.68 0 0 Z " fill="#8322DF" transform="translate(644,1098)"/>
<path d="M0 0 C2.50383171 0.56496715 4.8731848 0.95041254 7.421875 1.1875 C11.39451053 1.73544973 14.40870558 3.04002705 18.046875 4.6875 C19.70302157 5.06968767 21.37144524 5.40145102 23.046875 5.6875 C25.72041392 6.32834828 28.38227133 7.01005839 31.046875 7.6875 C31.046875 8.0175 31.046875 8.3475 31.046875 8.6875 C24.71121997 8.91377339 18.8607909 8.64142035 13.08398438 5.68188477 C10.9400826 4.63537087 9.03708886 4.12741407 6.703125 3.65234375 C5.45970337 3.39880127 5.45970337 3.39880127 4.19116211 3.14013672 C3.31854736 2.9701416 2.44593262 2.80014648 1.546875 2.625 C0.65427979 2.44727051 -0.23831543 2.26954102 -1.15795898 2.08642578 C-7.012912 0.95772183 -12.77040564 0.18355553 -18.73828125 -0.0390625 C-20.953125 -0.3125 -20.953125 -0.3125 -23.953125 -2.3125 C-16.11201321 -4.65949945 -7.69924757 -1.87962852 0 0 Z " fill="#6924AA" transform="translate(744.953125,952.3125)"/>
<path d="M0 0 C-1.57147294 3.85725177 -3.97604104 6.1776383 -7 9 C-7.5053125 9.49886719 -8.010625 9.99773437 -8.53125 10.51171875 C-13.03028352 14.72425721 -17.99453432 17.47763545 -24 19 C-24.99 18.67 -25.98 18.34 -27 18 C-22.98303601 14.86283216 -20.06086401 12.93226442 -15 12 C-10.76848737 9.21611011 -7.79923178 5.51578963 -4.6484375 1.609375 C-3 0 -3 0 0 0 Z " fill="#6A24AC" transform="translate(1143,1095)"/>
<path d="M0 0 C-0.66 0.33 -1.32 0.66 -2 1 C-2 1.66 -2 2.32 -2 3 C-12.23 3 -22.46 3 -33 3 C-33 2.34 -33 1.68 -33 1 C-29.18763538 0.83013993 -25.37509074 0.66470036 -21.5625 0.5 C-20.49322266 0.45230469 -19.42394531 0.40460938 -18.32226562 0.35546875 C-12.20770603 0.09368332 -6.12009114 -0.05148342 0 0 Z " fill="#9121F5" transform="translate(856,1079)"/>
<path d="M0 0 C0 1.98 0 3.96 0 6 C-1.93742341 6.02703381 -3.87495479 6.04641125 -5.8125 6.0625 C-6.89144531 6.07410156 -7.97039063 6.08570313 -9.08203125 6.09765625 C-12 6 -12 6 -15 5 C-15 4.34 -15 3.68 -15 3 C-9.89665983 1.094753 -5.53657294 -0.42589023 0 0 Z " fill="#4A276E" transform="translate(599,972)"/>
<path d="M0 0 C0 0.33 0 0.66 0 1 C-1.98 1.33 -3.96 1.66 -6 2 C-6 1.34 -6 0.68 -6 0 C-6.99 0.495 -6.99 0.495 -8 1 C-8 1.66 -8 2.32 -8 3 C-12.29 2.67 -16.58 2.34 -21 2 C-21.33 1.01 -21.66 0.02 -22 -1 C-14.78258845 -3.40580385 -7.18126108 -1.94275662 0 0 Z " fill="#49276E" transform="translate(656,1059)"/>
<path d="M0 0 C-0.58007812 0.18175781 -1.16015625 0.36351562 -1.7578125 0.55078125 C-7.41955725 2.37262981 -12.5465648 4.48120678 -17.625 7.625 C-19.84732717 8.91161047 -21.52876225 9.44197857 -24 10 C-25.3479743 10.63654342 -26.68596724 11.29605388 -28 12 C-24.7432486 7.1148729 -21.20899152 5.27283712 -16 3 C-15.37351562 2.70996094 -14.74703125 2.41992188 -14.1015625 2.12109375 C-9.05817141 -0.15834283 -5.37055802 -1.49244981 0 0 Z " fill="#6724A7" transform="translate(629,927)"/>
<path d="M0 0 C7.26 0.33 14.52 0.66 22 1 C21.01 1.495 21.01 1.495 20 2 C20 3.32 20 4.64 20 6 C13.08336373 4.90109517 6.57263201 3.43430815 0 1 C0 0.67 0 0.34 0 0 Z " fill="#481D61" transform="translate(757,965)"/>
<path d="M0 0 C-0.33 0.99 -0.66 1.98 -1 3 C-1.99 3.33 -2.98 3.66 -4 4 C-2.35 4.33 -0.7 4.66 1 5 C1 5.33 1 5.66 1 6 C-4.61 6.66 -10.22 7.32 -16 8 C-15.67 7.01 -15.34 6.02 -15 5 C-13.68 5 -12.36 5 -11 5 C-11 4.34 -11 3.68 -11 3 C-11.66 2.67 -12.32 2.34 -13 2 C-8.22169095 -0.91360308 -5.44893869 -1.19876651 0 0 Z " fill="#7223BC" transform="translate(611,964)"/>
<path d="M0 0 C16.8929385 -0.18451025 16.8929385 -0.18451025 24 1 C24 1.66 24 2.32 24 3 C17.07 3 10.14 3 3 3 C3 2.34 3 1.68 3 1 C2.01 0.67 1.02 0.34 0 0 Z " fill="#8F21F5" transform="translate(712,892)"/>
<path d="M0 0 C2.68763267 0.31139051 5.37510369 0.62408157 8.0625 0.9375 C9.19075195 1.06801758 9.19075195 1.06801758 10.34179688 1.20117188 C14.90588219 1.73463639 19.45393534 2.32986298 24 3 C24 3.66 24 4.32 24 5 C20.32672921 5.93465787 17.79570588 5.95965335 14.125 5.0625 C10.90508945 4.33790016 8.40909598 4 5.0625 4 C2 4 2 4 -1 2 C-0.67 1.34 -0.34 0.68 0 0 Z " fill="#62259C" transform="translate(712,1072)"/>
<path d="M0 0 C6.35219042 0.54881057 12.67873638 1.16511613 19 2 C19 2.66 19 3.32 19 4 C10.585 4.495 10.585 4.495 2 5 C2 4.34 2 3.68 2 3 C1.34 3 0.68 3 0 3 C0 2.01 0 1.02 0 0 Z " fill="#431F75" transform="translate(937,966)"/>
<path d="M0 0 C-0.74443359 0.49306641 -0.74443359 0.49306641 -1.50390625 0.99609375 C-7.12833895 4.9342639 -11.03376564 9.42248294 -15 15 C-15.66 14.67 -16.32 14.34 -17 14 C-16.319375 12.88625 -16.319375 12.88625 -15.625 11.75 C-14.01733699 9.18347235 -14.01733699 9.18347235 -13.1875 7 C-10.26326201 2.0749676 -5.70483694 -1.71145108 0 0 Z " fill="#7423C1" transform="translate(598,937)"/>
<path d="M0 0 C8.11314831 -0.44075454 13.96819222 0.37935003 20.4375 5.6875 C21.283125 6.450625 22.12875 7.21375 23 8 C22.34 8.66 21.68 9.32 21 10 C20.61199219 9.36578125 20.22398437 8.7315625 19.82421875 8.078125 C17.55274003 5.49048758 16.16848119 5.27301005 12.8125 4.75 C11.91144531 4.60046875 11.01039063 4.4509375 10.08203125 4.296875 C9.39496094 4.19890625 8.70789063 4.1009375 8 4 C8 3.01 8 2.02 8 1 C5.36 1 2.72 1 0 1 C0 0.67 0 0.34 0 0 Z " fill="#360B72" transform="translate(796,1063)"/>
<path d="M0 0 C7.82490023 -0.62599202 14.60937233 1.67485871 22 4 C19 6 19 6 16.8359375 5.86328125 C11.08808287 4.57685664 5.53953613 3.00707831 0 1 C0 0.67 0 0.34 0 0 Z " fill="#7423C1" transform="translate(760,927)"/>
<path d="M0 0 C9.0751333 0.84294716 9.0751333 0.84294716 13.3125 1.5625 C15.93950074 2.09951486 15.93950074 2.09951486 18.375 1.8125 C22.38948012 2.09924858 25.52419652 4.06803976 29 6 C25.63562348 7.34575061 23.37828974 6.6529145 20.01123047 5.58300781 C16.26663624 4.49753913 12.4082699 3.98238993 8.5625 3.375 C7.73556641 3.2409375 6.90863281 3.106875 6.05664062 2.96875 C4.03836235 2.64209225 2.01926243 2.32051785 0 2 C0 1.34 0 0.68 0 0 Z " fill="#6A24AB" transform="translate(951,1090)"/>
<path d="M0 0 C2.475 0.495 2.475 0.495 5 1 C-0.02258929 5.12569834 -4.56879023 5.52977398 -11 5 C-14.5 4 -14.5 4 -17 3 C-16.34 2.34 -15.68 1.68 -15 1 C-14.01 1.33 -13.02 1.66 -12 2 C-9.94106379 2.22325814 -7.87766347 2.40705759 -5.8125 2.5625 C-4.72582031 2.64628906 -3.63914062 2.73007812 -2.51953125 2.81640625 C-1.27236328 2.90728516 -1.27236328 2.90728516 0 3 C0 2.01 0 1.02 0 0 Z " fill="#300551" transform="translate(599,975)"/>
<path d="M0 0 C17.58160237 1.37722552 17.58160237 1.37722552 25 3 C25 3.33 25 3.66 25 4 C16.41922945 4.24911914 8.41826913 3.69882188 0 2 C0 1.34 0 0.68 0 0 Z " fill="#6724A7" transform="translate(656,1093)"/>
<path d="M0 0 C7.37653219 0.75015582 14.67831776 1.83441535 22 3 C22 3.66 22 4.32 22 5 C19.69 4.67 17.38 4.34 15 4 C14.67 4.66 14.34 5.32 14 6 C14 5.34 14 4.68 14 4 C12.7625 4.061875 12.7625 4.061875 11.5 4.125 C7.38008185 3.97786007 3.96852693 3.09476605 0 2 C0 1.34 0 0.68 0 0 Z " fill="#8222DC" transform="translate(952,1096)"/>
<path d="M0 0 C1.32 0 2.64 0 4 0 C4 0.66 4 1.32 4 2 C5.5778125 1.9071875 5.5778125 1.9071875 7.1875 1.8125 C11.16108064 2.007922 12.91244563 2.5673814 16 5 C16 5.66 16 6.32 16 7 C15.34 7 14.68 7 14 7 C14 6.34 14 5.68 14 5 C12.98679687 4.92652344 12.98679687 4.92652344 11.953125 4.8515625 C10.61507812 4.73941406 10.61507812 4.73941406 9.25 4.625 C8.36828125 4.55539062 7.4865625 4.48578125 6.578125 4.4140625 C4.00933618 4.00149945 2.24158985 3.28839043 0 2 C0 1.34 0 0.68 0 0 Z " fill="#7F23D7" transform="translate(934,1090)"/>
<path d="M0 0 C6.93 0 13.86 0 21 0 C18.14206684 2.85793316 15.85334416 2.40799941 11.875 2.625 C10.59367188 2.69976563 9.31234375 2.77453125 7.9921875 2.8515625 C7.00476563 2.90054688 6.01734375 2.94953125 5 3 C5 2.67 5 2.34 5 2 C3.35 1.67 1.7 1.34 0 1 C0 0.67 0 0.34 0 0 Z " fill="#8E22F4" transform="translate(683,962)"/>
<path d="M0 0 C0.66 0.33 1.32 0.66 2 1 C1.34 1.66 0.68 2.32 0 3 C0 2.01 0 1.02 0 0 Z M-3 2 C-2.34 2.33 -1.68 2.66 -1 3 C-1.93590504 4.1055189 -2.87379858 5.20935453 -3.8125 6.3125 C-4.33457031 6.92738281 -4.85664062 7.54226563 -5.39453125 8.17578125 C-8.04090279 11.18272896 -10.7527891 13.64857142 -14 16 C-12.61085525 11.70281047 -10.61968015 9.29312243 -7.375 6.1875 C-6.55773437 5.39730469 -5.74046875 4.60710938 -4.8984375 3.79296875 C-3.95871094 2.90544922 -3.95871094 2.90544922 -3 2 Z " fill="#9120F1" transform="translate(585,911)"/>
<path d="M0 0 C0.66 0.33 1.32 0.66 2 1 C1.01 1.99 0.02 2.98 -1 4 C-1 1 -1 1 0 0 Z M-4 3 C-3.34 3.33 -2.68 3.66 -2 4 C-2.99 4.99 -3.98 5.98 -5 7 C-5 4 -5 4 -4 3 Z M-9 7 C-8.34 7.33 -7.68 7.66 -7 8 C-9.38957269 11.24299151 -11.2047869 13.50902342 -15 15 C-13.55746343 11.63408134 -11.66735273 9.48952921 -9 7 Z " fill="#8D22F2" transform="translate(881,939)"/>
<path d="M0 0 C-0.66 0 -1.32 0 -2 0 C-2.66 1.65 -3.32 3.3 -4 5 C-6.64 4.34 -9.28 3.68 -12 3 C-11 1 -11 1 -9.2578125 0.33203125 C-8.55398438 0.16058594 -7.85015625 -0.01085938 -7.125 -0.1875 C-6.42632813 -0.36667969 -5.72765625 -0.54585937 -5.0078125 -0.73046875 C-3 -1 -3 -1 0 0 Z " fill="#3E185B" transform="translate(937,1050)"/>
<path d="M0 0 C0.66 0.33 1.32 0.66 2 1 C-2.20310726 5.90362514 -7.7547867 8.61991938 -14 10 C-10.66495886 4.69425273 -5.76676861 2.10979339 0 0 Z " fill="#8422E0" transform="translate(602,927)"/>
<path d="M0 0 C2.08410658 0.08733973 4.16734669 0.19552278 6.25 0.3125 C7.99023438 0.39951172 7.99023438 0.39951172 9.765625 0.48828125 C13.10819638 1.01711803 14.5497057 1.73772333 17 4 C5.47835991 4.55353075 5.47835991 4.55353075 0 1 C0 0.67 0 0.34 0 0 Z " fill="#6A24AC" transform="translate(754,928)"/>
<path d="M0 0 C0 0.66 0 1.32 0 2 C-1.6796875 3.2890625 -1.6796875 3.2890625 -3.875 4.625 C-4.95394531 5.29402344 -4.95394531 5.29402344 -6.0546875 5.9765625 C-8 7 -8 7 -10 7 C-10 6.01 -10 5.02 -10 4 C-9.34 4 -8.68 4 -8 4 C-7.67 3.01 -7.34 2.02 -7 1 C-2.25 0 -2.25 0 0 0 Z " fill="#3A185F" transform="translate(614,969)"/>
<path d="M0 0 C0.66 0.33 1.32 0.66 2 1 C1.34 1.66 0.68 2.32 0 3 C-2.29013653 6.4352048 -2.17842973 7.985331 -2 12 C-2.99 11.67 -3.98 11.34 -5 11 C-4.50769231 3.49230769 -4.50769231 3.49230769 -1.9375 1 C-1.298125 0.67 -0.65875 0.34 0 0 Z " fill="#8D1EF6" transform="translate(578,1050)"/>
<path d="M0 0 C0.90105469 0.00902344 1.80210937 0.01804687 2.73046875 0.02734375 C3.41753906 0.03894531 4.10460937 0.05054688 4.8125 0.0625 C4.8125 0.3925 4.8125 0.7225 4.8125 1.0625 C2.5025 1.0625 0.1925 1.0625 -2.1875 1.0625 C-2.1875 1.7225 -2.1875 2.3825 -2.1875 3.0625 C-1.5275 3.3925 -0.8675 3.7225 -0.1875 4.0625 C-2.4975 4.0625 -4.8075 4.0625 -7.1875 4.0625 C-7.5175 3.0725 -7.8475 2.0825 -8.1875 1.0625 C-5.17259443 0.05753148 -3.14568308 -0.04085303 0 0 Z " fill="#27106C" transform="translate(642.1875,1056.9375)"/>
<path d="M0 0 C1.27875 -0.061875 2.5575 -0.12375 3.875 -0.1875 C4.95394531 -0.23970703 4.95394531 -0.23970703 6.0546875 -0.29296875 C6.69664062 -0.19628906 7.33859375 -0.09960938 8 0 C8.66 0.99 9.32 1.98 10 3 C9.67 3.33 9.34 3.66 9 4 C5.5625 3.75 5.5625 3.75 2 3 C1.34 2.01 0.68 1.02 0 0 Z " fill="#512485" transform="translate(778,968)"/>
<path d="M0 0 C1.32 0 2.64 0 4 0 C4 2 4 2 2.79296875 3.64453125 C1 5 1 5 -1.26171875 5.07421875 C-2.46248047 4.88279297 -2.46248047 4.88279297 -3.6875 4.6875 C-4.49574219 4.56761719 -5.30398438 4.44773437 -6.13671875 4.32421875 C-6.75160156 4.21722656 -7.36648438 4.11023437 -8 4 C-7.34 3.01 -6.68 2.02 -6 1 C-3.03 1.495 -3.03 1.495 0 2 C0 1.34 0 0.68 0 0 Z " fill="#53277C" transform="translate(964,1057)"/>
<path d="M0 0 C0.66 0.33 1.32 0.66 2 1 C0.25 3.0625 0.25 3.0625 -3 5 C-7.07333151 5.15729243 -11.00965671 4.83697008 -15 4 C-15.66 3.34 -16.32 2.68 -17 2 C-15.66195312 2.03480469 -15.66195312 2.03480469 -14.296875 2.0703125 C-13.12640625 2.08835937 -11.9559375 2.10640625 -10.75 2.125 C-9.58984375 2.14820313 -8.4296875 2.17140625 -7.234375 2.1953125 C-4.11733079 2.00708519 -2.66616054 1.45538121 0 0 Z " fill="#7024B8" transform="translate(781,958)"/>
<path d="M0 0 C0.66 0.33 1.32 0.66 2 1 C0.35 2.65 -1.3 4.3 -3 6 C-3 3 -3 3 -1.5 1.3125 C-0.7575 0.6628125 -0.7575 0.6628125 0 0 Z M-6 5 C-5.34 5.33 -4.68 5.66 -4 6 C-4.99 6.99 -5.98 7.98 -7 9 C-7 6 -7 6 -6 5 Z M-10 8 C-9.01 8.495 -9.01 8.495 -8 9 C-8.99 9.495 -8.99 9.495 -10 10 C-10 9.34 -10 8.68 -10 8 Z " fill="#851FF4" transform="translate(1234,1023)"/>
<path d="M0 0 C3.63 0 7.26 0 11 0 C10.01 1.485 10.01 1.485 9 3 C5.5 3.375 5.5 3.375 2 3 C1.34 2.01 0.68 1.02 0 0 Z " fill="#961EF8" transform="translate(1168,985)"/>
<path d="M0 0 C2.475 0.495 2.475 0.495 5 1 C5 1.99 5 2.98 5 4 C5.66 4 6.32 4 7 4 C7 4.66 7 5.32 7 6 C4.625 6.1875 4.625 6.1875 2 6 C0 3 0 3 0 0 Z " fill="#55247A" transform="translate(932,965)"/>
<path d="M0 0 C0 0.33 0 0.66 0 1 C-2.78980666 1.69595819 -5.58140604 2.38206674 -8.375 3.0625 C-9.56609375 3.36124023 -9.56609375 3.36124023 -10.78125 3.66601562 C-16.7734375 5.11328125 -16.7734375 5.11328125 -19 4 C-17.58398286 3.51891725 -16.16715563 3.04021859 -14.75 2.5625 C-13.96109375 2.29566406 -13.1721875 2.02882813 -12.359375 1.75390625 C-8.06271619 0.38096726 -4.5422495 -0.10323294 0 0 Z " fill="#8322E0" transform="translate(641,917)"/>
<path d="M0 0 C0.66 0.33 1.32 0.66 2 1 C-0.31 4.3 -2.62 7.6 -5 11 C-5.33 10.01 -5.66 9.02 -6 8 C-4.41866551 4.83733102 -2.61885488 2.36944013 0 0 Z " fill="#8D23F0" transform="translate(904,1057)"/>
<path d="M0 0 C4.29 0.33 8.58 0.66 13 1 C13 1.66 13 2.32 13 3 C11.39667209 3.08121924 9.79215974 3.13929134 8.1875 3.1875 C7.29417969 3.22230469 6.40085937 3.25710938 5.48046875 3.29296875 C3 3 3 3 0 0 Z " fill="#47235B" transform="translate(943,967)"/>
<path d="M0 0 C1.75070517 0.11470137 3.50057536 0.24219028 5.25 0.375 C6.22453125 0.44460938 7.1990625 0.51421875 8.203125 0.5859375 C10.89633189 0.98465249 12.66963279 1.63507063 15 3 C15 3.66 15 4.32 15 5 C14.01 5.33 13.02 5.66 12 6 C11.77570313 5.35546875 11.55140625 4.7109375 11.3203125 4.046875 C10.17110544 1.75611148 10.17110544 1.75611148 7.6171875 1.390625 C6.25980469 1.32101562 6.25980469 1.32101562 4.875 1.25 C3.96492188 1.19328125 3.05484375 1.1365625 2.1171875 1.078125 C1.41851563 1.05234375 0.71984375 1.0265625 0 1 C0 0.67 0 0.34 0 0 Z " fill="#2F0B49" transform="translate(1107,1054)"/>
<path d="M0 0 C2.97 0 5.94 0 9 0 C8 2 8 2 6.15234375 2.6328125 C5.42144531 2.79523438 4.69054687 2.95765625 3.9375 3.125 C2.83728516 3.37636719 2.83728516 3.37636719 1.71484375 3.6328125 C1.14894531 3.75398438 0.58304688 3.87515625 0 4 C0 2.68 0 1.36 0 0 Z " fill="#461F6A" transform="translate(935,1050)"/>
<path d="M0 0 C0 3 0 3 -1.42578125 4.640625 C-2.04839844 5.17171875 -2.67101562 5.7028125 -3.3125 6.25 C-4.23482422 7.06210937 -4.23482422 7.06210937 -5.17578125 7.890625 C-5.77777344 8.25671875 -6.37976563 8.6228125 -7 9 C-7.99 8.67 -8.98 8.34 -10 8 C-8.63875 7.13375 -8.63875 7.13375 -7.25 6.25 C-4.47977054 4.33214884 -2.28054501 2.45597155 0 0 Z " fill="#6C24B0" transform="translate(999,950)"/>
<path d="M0 0 C2.97 0.33 5.94 0.66 9 1 C9 1.66 9 2.32 9 3 C6.36 3 3.72 3 1 3 C0.67 2.01 0.34 1.02 0 0 Z " fill="#8F20EF" transform="translate(755,893)"/>
<path d="M0 0 C2.96175123 0.61277612 4.38058783 1.25372522 7 3 C5.68 3 4.36 3 3 3 C3 3.66 3 4.32 3 5 C1.68 4.67 0.36 4.34 -1 4 C-0.67 2.68 -0.34 1.36 0 0 Z " fill="#4F2068" transform="translate(973,1058)"/>
<path d="M0 0 C3.96 0 7.92 0 12 0 C11.01 0.33 10.02 0.66 9 1 C9 1.66 9 2.32 9 3 C8.1646875 2.7834375 8.1646875 2.7834375 7.3125 2.5625 C4.88615805 1.97230872 2.45093655 1.476571 0 1 C0 0.67 0 0.34 0 0 Z " fill="#982AF8" transform="translate(683,962)"/>
<path d="M0 0 C0.66 0.66 1.32 1.32 2 2 C1.625 4.125 1.625 4.125 1 6 C0.01 6 -0.98 6 -2 6 C-2 4.35 -2 2.7 -2 1 C-1.34 0.67 -0.68 0.34 0 0 Z " fill="#46215A" transform="translate(820,1074)"/>
<path d="M0 0 C1.98 1.65 3.96 3.3 6 5 C5.67 5.99 5.34 6.98 5 8 C4.54625 7.505 4.0925 7.01 3.625 6.5 C2.12364481 4.77390663 2.12364481 4.77390663 0 5 C0 3.35 0 1.7 0 0 Z " fill="#3C0D76" transform="translate(1123,1058)"/>
<path d="M0 0 C2.31 0.33 4.62 0.66 7 1 C6.67 1.99 6.34 2.98 6 4 C4.35 3.67 2.7 3.34 1 3 C0.67 2.01 0.34 1.02 0 0 Z " fill="#4B1969" transform="translate(958,1055)"/>
<path d="M0 0 C5.75 -0.125 5.75 -0.125 8 1 C8 1.66 8 2.32 8 3 C6.02 3 4.04 3 2 3 C2 2.34 2 1.68 2 1 C1.34 0.67 0.68 0.34 0 0 Z " fill="#851DF5" transform="translate(775,894)"/>
<path d="M0 0 C0.99 0.66 1.98 1.32 3 2 C3 2.99 3 3.98 3 5 C1.35 5 -0.3 5 -2 5 C-1.34 3.35 -0.68 1.7 0 0 Z " fill="#452969" transform="translate(1125,1062)"/>
<path d="M0 0 C0.66 0.33 1.32 0.66 2 1 C1.67 2.65 1.34 4.3 1 6 C0.01 6 -0.98 6 -2 6 C-1.125 1.125 -1.125 1.125 0 0 Z " fill="#442265" transform="translate(666,1059)"/>
<path d="M0 0 C1.98 0 3.96 0 6 0 C5.01 0.33 4.02 0.66 3 1 C3 1.66 3 2.32 3 3 C0.36 3 -2.28 3 -5 3 C-5 2.67 -5 2.34 -5 2 C-3.35 2 -1.7 2 0 2 C0 1.34 0 0.68 0 0 Z " fill="#8E23F5" transform="translate(662,892)"/>
</svg>
