<?xml version="1.0" encoding="UTF-8"?>
<svg version="1.1" xmlns="http://www.w3.org/2000/svg" width="2048" height="2048">
<path d="M0 0 C4.46680793 3.37289578 5.69146758 5.69585875 6.9375 11.125 C7.41821929 16.68462308 5.94604967 21.0592004 2.37109375 25.3359375 C-2.06948603 29.87849301 -2.06948603 29.87849301 -4.9375 31.3125 C-5.47894385 33.49767567 -5.47894385 33.49767567 -5.8125 36.0625 C-6.60626212 40.60565879 -8.04758042 42.72501362 -10.9375 46.3125 C-10.74696422 49.21052603 -10.74696422 49.21052603 -9.9375 52.3125 C-9.21603778 59.52712217 -11.25921694 64.12574849 -14.9375 70.3125 C-15.2675 70.6425 -15.5975 70.9725 -15.9375 71.3125 C-15.97618638 73.02696715 -15.94901098 74.74299327 -15.89453125 76.45703125 C-15.37611041 99.04512345 -15.37611041 99.04512345 -19.9375 108.3125 C-28.51412369 125.78587763 -26.79300644 135.6535318 -20.75 153.9375 C-18.38123847 161.57957588 -16.49563526 169.99456338 -19.0625 177.8125 C-21.60939946 182.56671232 -24.48537904 185.34441936 -28.9375 188.3125 C-35.15181424 189.68175568 -39.30309086 189.30577985 -44.9375 186.3125 C-52.3725018 181.40539881 -57.25595249 173.08910406 -59.40991211 164.48999023 C-61.76896152 150.28220308 -59.28931713 135.915545 -56.6875 121.9375 C-56.36092142 120.12131279 -56.0355738 118.30490383 -55.71142578 116.48828125 C-55.08129528 112.97374053 -54.44164244 109.46117933 -53.79199219 105.95019531 C-53.0918606 102.16580891 -52.41759724 98.37759659 -51.7578125 94.5859375 C-50.23310859 85.99277308 -48.22853792 77.8799386 -45.5222168 69.58618164 C-43.11630864 61.60071624 -43.50329061 53.56247832 -43.9375 45.3125 C-52.59634187 47.2812472 -59.17531671 50.06767088 -64.25 57.75 C-69.77240803 67.87441473 -72.2161871 80.34284217 -71.89453125 91.7890625 C-71.54007055 110.76579421 -72.36613022 129.51029305 -73.8125 148.4375 C-73.89972321 149.6053302 -73.98694641 150.7731604 -74.07681274 151.97637939 C-74.33110687 155.34181933 -74.59652418 158.70615281 -74.8671875 162.0703125 C-74.94437515 163.07219604 -75.02156281 164.07407959 -75.10108948 165.10632324 C-75.92126622 174.84198808 -76.82515861 184.77708879 -84.46875 191.69921875 C-89.25666148 194.91750831 -94.33512456 195.18900067 -99.9375 194.3125 C-105.61885405 192.42244324 -109.66487202 188.20575845 -112.9375 183.3125 C-118.93143681 169.96236801 -114.10112031 151.09888658 -109.4375 137.8125 C-103.37019921 120.48419321 -102.7523837 101.90615463 -101.25 83.75 C-101.0243548 81.08124596 -100.79638467 78.41269222 -100.56835938 75.74414062 C-100.01670487 69.26758585 -99.47364402 62.79035626 -98.9375 56.3125 C-101.16692748 56.45429038 -103.39603628 56.60109698 -105.625 56.75 C-106.86636719 56.83121094 -108.10773438 56.91242188 -109.38671875 56.99609375 C-112.31930337 57.25741317 -115.07191617 57.66048379 -117.9375 58.3125 C-121.60083255 66.86677122 -121.39322156 75.30459042 -121.4375 84.4375 C-121.59746241 116.97246241 -121.59746241 116.97246241 -131.48828125 126.86328125 C-136.18037711 130.99651705 -140.12158439 131.74175193 -146.17578125 131.64453125 C-152.06217709 130.93683161 -156.97193449 128.58904748 -160.86328125 124.08203125 C-166.02049024 116.53699757 -167.20019936 109.40219076 -165.9375 100.3125 C-164.67273047 95.42626206 -162.68284569 90.79646123 -160.71142578 86.16064453 C-159.59422175 83.49274721 -158.60660377 80.78273775 -157.625 78.0625 C-157.31949219 77.23234375 -157.01398438 76.4021875 -156.69921875 75.546875 C-154.55466256 69.25617683 -153.93371236 63.32386293 -156.0625 56.9375 C-158.42094424 53.63567806 -160.09791845 52.61650883 -163.9375 51.3125 C-168.46841774 50.7527984 -173.09535303 50.67788494 -176.9375 53.3125 C-179.03429712 57.74803237 -180.16529381 62.1957105 -181.375 66.9375 C-182.77401315 72.09814544 -184.14760641 76.36932084 -188.7265625 79.55859375 C-193.1741852 82.03998942 -196.78823551 82.97999725 -201.9375 82.3125 C-207.30258269 80.45114478 -210.89634419 77.02995555 -213.9375 72.3125 C-215.94363148 67.51853754 -216.34035436 63.05610588 -216.5625 57.9375 C-216.60117187 57.20144531 -216.63984375 56.46539063 -216.6796875 55.70703125 C-216.77307998 53.90922594 -216.8563371 52.11089892 -216.9375 50.3125 C-218.195625 50.085625 -219.45375 49.85875 -220.75 49.625 C-225.94009726 48.59580224 -231.01925009 47.2510141 -236.125 45.875 C-246.67178068 43.05574662 -257.23724617 40.84940809 -268.03759766 39.24243164 C-275.89387831 38.07014308 -283.31414865 36.56708795 -290.9140625 34.2109375 C-293.59233376 33.41506878 -296.19031777 32.85872312 -298.9375 32.375 C-303.4347172 31.4202835 -305.76495285 29.63980555 -308.9375 26.3125 C-311.74829551 21.84077986 -311.47783262 16.42877446 -310.9375 11.3125 C-309.21911997 7.1522115 -306.69469161 4.75904338 -302.9375 2.3125 C-298.92167011 1.00299025 -297.22010963 1.21358663 -293.1875 2.625 C-289.9375 4.3125 -289.9375 4.3125 -287.9375 6.3125 C-285.64531486 6.44134394 -285.64531486 6.44134394 -282.9375 6.25 C-277.34850635 6.14862768 -272.1153345 6.75421081 -266.625 7.6875 C-265.87283203 7.81374756 -265.12066406 7.93999512 -264.34570312 8.07006836 C-260.91466884 8.67717334 -257.66031311 9.39464051 -254.3125 10.38671875 C-250.85839192 11.33419979 -247.82150192 11.61311317 -244.25 11.75 C-238.49241732 12.08545238 -233.35546283 13.09184007 -227.8125 14.625 C-224.05657156 15.5231568 -220.37324369 15.74642684 -216.52734375 15.97265625 C-213.80643008 16.32969922 -211.80814806 17.13842019 -209.3125 18.25 C-206.33873736 19.38056562 -205.40621513 19.52073608 -202.44921875 18.20703125 C-200.17142461 16.67760329 -198.05733712 15.05139387 -195.9375 13.3125 C-191.48578907 11.08664453 -185.76409035 11.79516877 -180.9375 12.3125 C-178.41796875 13.4296875 -178.41796875 13.4296875 -176.125 14.8125 C-171.04320526 17.78518385 -166.43795092 17.57154107 -160.75292969 17.35766602 C-156.00521415 17.20894916 -152.68806786 17.79703394 -148.35546875 19.58203125 C-143.84043738 20.94602296 -139.07665479 20.89907973 -134.390625 21.1015625 C-130.9375 21.3125 -130.9375 21.3125 -128.359375 21.9609375 C-125.86297735 22.51237229 -125.86297735 22.51237229 -123.30078125 21.40234375 C-117.75822526 19.60632387 -112.04485584 19.91674062 -106.25585938 19.83398438 C-100.70174764 19.67726133 -96.12698388 18.95554639 -90.9152832 17.02612305 C-86.37281598 15.3871116 -81.86458048 15.2362166 -77.07714844 15.1237793 C-67.87994464 14.86037239 -60.5055125 12.74171627 -51.9375 9.3125 C-44.14301181 6.65528812 -36.35736876 4.72449695 -28.2890625 3.10546875 C-25.09876627 2.35065507 -22.2253837 1.34443219 -19.1875 0.125 C-12.70207038 -2.3451857 -6.36770522 -3.27062427 0 0 Z " fill="#BEF2FE" transform="translate(1210.9375,1019.6875)"/>
<path d="M0 0 C3.51831633 1.57810953 7.11046477 2.87873742 10.7421875 4.17578125 C15.53996086 5.99320819 18.62637703 7.46950276 21.6796875 11.61328125 C22.1746875 13.09828125 22.1746875 13.09828125 22.6796875 14.61328125 C23.7315625 14.19755859 23.7315625 14.19755859 24.8046875 13.7734375 C38.54099393 8.52900529 38.54099393 8.52900529 45.1171875 10.80078125 C46.94889566 11.73270294 48.77949412 12.67150178 50.5546875 13.70703125 C56.32810036 16.76868959 61.47613115 16.81135195 67.86254883 16.60839844 C73.32466988 16.47654745 76.77936951 17.34461551 81.6796875 19.61328125 C87.3012569 20.8249685 92.96671539 20.90469227 98.6953125 21.04296875 C102.92232041 21.2166814 106.50064444 21.78754257 110.515625 23.1484375 C116.24756494 24.99988518 121.58448996 24.86989929 127.5546875 24.67578125 C135.00164483 24.53926975 141.85826756 24.71122441 149.17578125 26.234375 C152.79734309 26.78241166 156.14320739 26.34613315 159.76171875 25.91796875 C167.10945625 25.15073512 174.53068232 24.49281347 181.4296875 27.42578125 C186.57612357 29.27104944 190.41075707 27.86645799 195.4296875 26.30078125 C203.96111142 23.64111957 212.83850753 21.18081216 221.484375 24.78125 C223.15015142 25.68502231 224.80482794 26.60968602 226.4453125 27.55859375 C230.70986069 29.57157978 234.1674068 28.30773283 238.6015625 27.08203125 C246.939077 24.81422731 253.7757887 24.55851996 261.57421875 28.640625 C265.0212735 30.23304918 267.49253608 30.98126121 271.1875 29.8359375 C272.05117188 29.45308594 272.91484375 29.07023437 273.8046875 28.67578125 C280.17772537 26.22263343 286.47968754 24.89381818 293.0078125 27.56640625 C297.70198997 30.31336936 301.22190443 33.69771511 303.6796875 38.61328125 C303.82976235 40.46324233 303.90124581 42.3199608 303.9296875 44.17578125 C303.95546875 45.16707031 303.98125 46.15835937 304.0078125 47.1796875 C303.72400961 50.149482 303.22541041 52.12209252 302.2265625 54.875 C300.1663333 60.66253736 299.90403997 66.41641152 299.5078125 72.50390625 C299.00974949 78.78716263 298.01397506 82.5636629 293.1171875 86.86328125 C289.08536769 89.75792111 286.68190543 90.03013274 281.6796875 89.61328125 C277.75609097 87.50057543 274.9767833 85.4249457 272.6796875 81.61328125 C271.91786467 78.22740202 271.36644639 74.88600847 270.86328125 71.45703125 C270.21253973 67.44786513 269.63139793 64.507115 266.6796875 61.61328125 C256.73060329 58.29691985 244.97188369 62.75696536 235.6796875 66.61328125 C227.46133558 70.77000139 224.62542842 78.49081484 221.3046875 86.55078125 C218.25352368 93.69422933 215.34605596 100.06276406 208.8046875 104.61328125 C203.37379108 106.35116811 199.50904835 106.5452198 194.3671875 103.92578125 C190.90932247 100.95040902 188.96136497 98.41246439 188.24609375 93.84375 C188.23509235 85.27366194 189.85736734 77.92293945 192.13964844 69.72900391 C193.16085734 65.72819183 193.91050448 61.66883238 194.6796875 57.61328125 C193.77951904 57.60393555 192.87935059 57.59458984 191.9519043 57.58496094 C161.6102861 57.1896809 161.6102861 57.1896809 148.83691406 53.99633789 C141.69418808 52.24013119 135.03953264 52.20632511 127.6796875 52.61328125 C126.19082031 52.62681641 126.19082031 52.62681641 124.671875 52.640625 C122.17971465 52.73144717 120.06125553 52.87793654 117.6796875 53.61328125 C112.84513624 58.91949605 112.53362348 64.2143095 112.21484375 71.10546875 C112.13734745 72.61784157 112.05978968 74.13021124 111.98217773 75.64257812 C111.94309296 76.43269287 111.90400818 77.22280762 111.86373901 78.03686523 C111.33228299 88.75511766 110.80067529 99.44409435 109.6171875 110.11328125 C108.82070941 117.46124078 108.56985789 124.78347704 108.4375 132.16796875 C108.41980057 133.12934753 108.40210114 134.09072632 108.38386536 135.08123779 C108.29892259 139.94807394 108.23447864 144.81421234 108.19702148 149.68164062 C107.81258114 183.10502328 107.81258114 183.10502328 97.6484375 193.73828125 C92.68756759 198.1958745 89.69629998 199.98741771 82.99609375 199.890625 C79.36805592 199.45623936 77.38510822 198.00411816 74.6796875 195.61328125 C57.96736587 173.93243157 72.30771834 111.31390191 75.00268555 85.96069336 C78.08665906 66.86851469 78.08665906 66.86851469 73.6796875 48.80078125 C73.1228125 47.80433594 72.5659375 46.80789063 71.9921875 45.78125 C71.5590625 45.06582031 71.1259375 44.35039063 70.6796875 43.61328125 C69.6175 43.72027344 68.5553125 43.82726563 67.4609375 43.9375 C58.12046909 44.77097756 51.80271959 45.02863598 43.6796875 39.61328125 C40.19195679 39.27100706 36.72466154 39.17104566 33.22265625 39.0546875 C28.21144384 38.43035784 24.82856123 36.37919707 20.6796875 33.61328125 C20.8240625 34.89460938 20.9684375 36.1759375 21.1171875 37.49609375 C22.39401183 49.22286678 23.51018803 60.76910265 22.1796875 72.55078125 C22.00632697 74.23760672 21.84033964 75.92519804 21.6796875 77.61328125 C21.56496094 78.73089844 21.45023438 79.84851562 21.33203125 81 C20.46989176 96.00122714 28.28107264 106.46236663 35.98046875 118.71484375 C39.77945903 125.1949605 41.40370776 131.13173853 40.6796875 138.61328125 C38.90678863 144.66199504 35.79850461 148.14644602 30.6796875 151.61328125 C26.32006294 153.06648944 22.12076573 153.43025501 17.7421875 151.96484375 C13.12243552 149.63505504 10.44887519 146.484719 8.6796875 141.61328125 C7.0448379 135.51375271 5.70184118 129.43197976 5.4296875 123.11328125 C5.06558477 118.85486242 3.26197449 115.46535462 1.3046875 111.73828125 C-5.26748181 99.16877768 -6.61278527 87.54115903 -4.8137207 73.47924805 C-4.25606543 68.56141737 -4.19264398 63.71044612 -4.22265625 58.765625 C-4.2240712 57.86832169 -4.22548615 56.97101837 -4.22694397 56.04652405 C-4.2324874 53.21457411 -4.24502892 50.3827068 -4.2578125 47.55078125 C-4.26283483 45.61653761 -4.26739644 43.68229272 -4.27148438 41.74804688 C-4.28243821 37.03642708 -4.29966297 32.32486812 -4.3203125 27.61328125 C-6.37962488 26.65629557 -8.43966247 25.70087035 -10.5 24.74609375 C-11.64710449 24.21387207 -12.79420898 23.68165039 -13.97607422 23.13330078 C-16.77977976 21.8589636 -19.59471886 20.65231454 -22.4453125 19.48828125 C-25.7028804 18.02058582 -27.8119402 17.00711894 -29.3203125 13.61328125 C-30.3432186 9.08326852 -30.71312871 6.74808365 -29.1953125 2.36328125 C-26.81772465 -1.12384759 -24.38294769 -3.46208918 -20.5078125 -5.19921875 C-12.78644595 -5.86105017 -6.93070755 -3.12254459 0 0 Z " fill="#7AEAFE" transform="translate(580.3203125,1016.38671875)"/>
<path d="M0 0 C3.51831633 1.57810953 7.11046477 2.87873742 10.7421875 4.17578125 C17.13172485 6.59323394 19.90061923 8.94467885 23.6796875 14.61328125 C23.9453125 17.28515625 23.9453125 17.28515625 23.9296875 20.36328125 C23.93742188 21.87148437 23.93742188 21.87148437 23.9453125 23.41015625 C23.6796875 26.61328125 23.6796875 26.61328125 22.640625 29.90625 C21.4431804 34.52566027 21.6936807 38.45735903 22.0546875 43.17578125 C22.16659732 44.95557159 22.27596096 46.73552382 22.3828125 48.515625 C22.46305664 49.81669189 22.46305664 49.81669189 22.54492188 51.14404297 C22.93465091 58.28483909 22.99441983 65.43933188 22.1796875 72.55078125 C22.00632697 74.23760672 21.84033964 75.92519804 21.6796875 77.61328125 C21.56496094 78.73089844 21.45023438 79.84851562 21.33203125 81 C20.46989176 96.00122714 28.28107264 106.46236663 35.98046875 118.71484375 C39.77945903 125.1949605 41.40370776 131.13173853 40.6796875 138.61328125 C38.90678863 144.66199504 35.79850461 148.14644602 30.6796875 151.61328125 C26.32006294 153.06648944 22.12076573 153.43025501 17.7421875 151.96484375 C13.12243552 149.63505504 10.44887519 146.484719 8.6796875 141.61328125 C7.0448379 135.51375271 5.70184118 129.43197976 5.4296875 123.11328125 C5.06558477 118.85486242 3.26197449 115.46535462 1.3046875 111.73828125 C-5.26748181 99.16877768 -6.61278527 87.54115903 -4.8137207 73.47924805 C-4.25606543 68.56141737 -4.19264398 63.71044612 -4.22265625 58.765625 C-4.2240712 57.86832169 -4.22548615 56.97101837 -4.22694397 56.04652405 C-4.2324874 53.21457411 -4.24502892 50.3827068 -4.2578125 47.55078125 C-4.26283483 45.61653761 -4.26739644 43.68229272 -4.27148438 41.74804688 C-4.28243821 37.03642708 -4.29966297 32.32486812 -4.3203125 27.61328125 C-6.37962488 26.65629557 -8.43966247 25.70087035 -10.5 24.74609375 C-11.64710449 24.21387207 -12.79420898 23.68165039 -13.97607422 23.13330078 C-16.77977976 21.8589636 -19.59471886 20.65231454 -22.4453125 19.48828125 C-25.7028804 18.02058582 -27.8119402 17.00711894 -29.3203125 13.61328125 C-30.3432186 9.08326852 -30.71312871 6.74808365 -29.1953125 2.36328125 C-26.81772465 -1.12384759 -24.38294769 -3.46208918 -20.5078125 -5.19921875 C-12.78644595 -5.86105017 -6.93070755 -3.12254459 0 0 Z " fill="#BEF2FE" transform="translate(580.3203125,1016.38671875)"/>
<path d="M0 0 C8.79504104 1.00514755 19.08654686 10.12619414 24.44921875 16.66015625 C27.00889973 20.52224418 28.59568283 24.6045666 30 29 C30.495 30.485 30.495 30.485 31 32 C31.63287455 39.90574442 31.23161681 46.84099909 29.125 54.5 C26.89085112 62.6697654 26.382949 70.81785458 25.9375 79.25 C25.46201643 88.20725177 24.90283904 97.06813235 23.5 105.9375 C20.48704263 125.26401086 19.65964549 144.45841506 20 164 C18.35 164.33 16.7 164.66 15 165 C12 161.25 12 161.25 12 159 C11.01 158.67 10.02 158.34 9 158 C9.66 158 10.32 158 11 158 C10.96519531 156.89269531 10.93039062 155.78539062 10.89453125 154.64453125 C10.52503801 136.83838518 12.46196078 119.16294941 15.0625 101.5625 C15.95379967 95.41760469 16.29663005 89.28647577 16.64672852 83.08837891 C16.72265629 81.74641005 16.79874774 80.40445045 16.875 79.0625 C16.93117996 78.06727325 16.93117996 78.06727325 16.98849487 77.05194092 C17.42704571 69.55381074 17.98593418 62.40320689 20.125 55.1875 C22.89207417 45.5914956 24.1772367 34.67642179 19.9375 25.3125 C17.29435854 20.94171859 14.14467801 17.9298586 10 15 C9.14148438 14.39027344 8.28296875 13.78054688 7.3984375 13.15234375 C5.65319861 11.92765882 3.89983211 10.71443408 2.13671875 9.515625 C0 8 0 8 -2 6 C-1.44444444 1.44444444 -1.44444444 1.44444444 0 0 Z " fill="#C7F6FF" transform="translate(641,1043)"/>
<path d="M0 0 C15.36377679 0.97547789 15.36377679 0.97547789 20.671875 5.390625 C24.37240177 9.7006503 26.21591371 13.49112764 26.4140625 19.12109375 C26.47231201 20.63316406 26.47231201 20.63316406 26.53173828 22.17578125 C26.57790283 23.79033203 26.57790283 23.79033203 26.625 25.4375 C26.66222168 26.54609375 26.69944336 27.6546875 26.73779297 28.796875 C26.96202532 36.03017678 27.09730598 43.26328998 27.125 50.5 C27.13200928 51.74221313 27.13200928 51.74221313 27.13916016 53.00952148 C27.10265057 66.79469886 27.10265057 66.79469886 25 71 C24.11547876 83.50236754 25.80710563 92.8554316 32.5859375 103.32421875 C34.72130437 107.36489914 35.40412167 111.55516592 36.2734375 116.01171875 C36.94640716 118.77957784 37.72904822 120.62545284 39.25 123 C41 126 41 126 40.75 128.9375 C40.5025 129.618125 40.255 130.29875 40 131 C37.75 131.3125 37.75 131.3125 35 131 C30.1925933 126.61677625 28.95227616 120.47423831 27.2890625 114.40625 C25.83685738 109.22203386 24.27547429 105.2920008 21 101 C20.01 101.495 20.01 101.495 19 102 C17.38371307 94.61125973 16.83687458 87.41112472 16.875 79.875 C16.86919922 78.71677734 16.86919922 78.71677734 16.86328125 77.53515625 C16.86457031 76.77847656 16.86585938 76.02179688 16.8671875 75.2421875 C16.86831543 74.5704248 16.86944336 73.89866211 16.87060547 73.20654297 C17 71 17 71 17.49560547 68.40087891 C18.19142987 63.70928458 18.18254608 59.08080215 18.203125 54.34375 C18.21167511 52.81300842 18.21167511 52.81300842 18.22039795 51.25134277 C18.22981729 49.09970121 18.2363697 46.94804543 18.24023438 44.79638672 C18.249967 41.51113831 18.28103067 38.22650879 18.3125 34.94140625 C18.31902825 32.84635786 18.32427942 30.75130503 18.328125 28.65625 C18.3404718 27.67797241 18.3528186 26.69969482 18.36553955 25.69177246 C18.34822594 20.37754066 18.02909587 16.57662936 15 12 C13.25837036 10.77864756 13.25837036 10.77864756 11.25 10.3125 C10.20392578 9.97798828 10.20392578 9.97798828 9.13671875 9.63671875 C8.43160156 9.42660156 7.72648438 9.21648437 7 9 C4.45182956 8.16685058 2.39707763 7.27191874 0 6 C-1 3.375 -1 3.375 -1 1 C-0.67 0.67 -0.34 0.34 0 0 Z " fill="#DAF8FF" transform="translate(561,1024)"/>
<path d="M0 0 C3.875 0.875 3.875 0.875 5 2 C4.90622942 9.74380135 2.93777653 17.31623569 1.1875 24.8125 C-8.41316092 58.68545918 -8.41316092 58.68545918 -7 92.8125 C-1.68413253 98.62673004 5.08359447 102.38169525 12 106 C11.125 110.875 11.125 110.875 10 112 C2.0013589 112 -4.60685 107.25623342 -10.2265625 101.86328125 C-18.25653114 92.9245713 -16.42474726 82.18690443 -15.89599609 70.75048828 C-15.019813 57.11070717 -11.76987926 43.82718949 -8.78027344 30.52978516 C-8.022641 27.1024229 -7.3045807 23.66940785 -6.6015625 20.23046875 C-6.38346924 19.17754639 -6.16537598 18.12462402 -5.94067383 17.03979492 C-5.53228558 15.06356403 -5.1307003 13.08591082 -4.73706055 11.10668945 C-4.55183838 10.22585693 -4.36661621 9.34502441 -4.17578125 8.4375 C-4.02020752 7.67308594 -3.86463379 6.90867187 -3.7043457 6.12109375 C-2.88384427 3.65020415 -1.65159638 1.99446587 0 0 Z " fill="#DAF8FE" transform="translate(1170,1094)"/>
<path d="M0 0 C4.70588235 0.70588235 4.70588235 0.70588235 6 2 C5.8773609 16.96196978 1.96143568 31.17411499 -3.4765625 44.953125 C-5.94954379 51.37780729 -6.18254734 57.16532365 -6.1875 64 C-6.19974609 64.88945313 -6.21199219 65.77890625 -6.22460938 66.6953125 C-6.31766417 73.11926981 -6.31766417 73.11926981 -4 79 C-0.53294462 80.24061217 -0.53294462 80.24061217 3 81 C3.66 81.66 4.32 82.32 5 83 C4.44444444 87.55555556 4.44444444 87.55555556 3 89 C-0.1949896 89.62341261 -2.23576495 89.46792895 -5.03515625 87.75390625 C-10.67796537 83.18692242 -14.20862412 77.92292834 -15.37939453 70.63989258 C-15.53572147 68.20375597 -15.554455 65.81539951 -15.5 63.375 C-15.49009033 62.50834717 -15.48018066 61.64169434 -15.4699707 60.7487793 C-15.24089502 52.69851126 -13.57579352 45.61538952 -11 38 C-10.72671875 37.175 -10.4534375 36.35 -10.171875 35.5 C-9.69747766 34.08690154 -9.21495806 32.67649217 -8.72265625 31.26953125 C-7.48148865 27.37159408 -6.58328727 23.38690065 -5.6484375 19.40625 C-5 17 -5 17 -4 16 C-3.46311398 13.50231286 -2.96534864 11.01103967 -2.5 8.5 C-1.13513514 1.13513514 -1.13513514 1.13513514 0 0 Z " fill="#DBF8FE" transform="translate(1112,1121)"/>
<path d="M0 0 C6.03850833 2.57883572 10.0068164 6.51192871 13.25 12.1875 C14.9234736 18.46302602 14.36179181 24.26976316 12.5 30.4375 C10.58835887 36.79460849 10.09549401 43.19445652 11.640625 49.6953125 C11.75921875 50.45585938 11.8778125 51.21640625 12 52 C11.34 52.66 10.68 53.32 10 54 C7.5 53.875 7.5 53.875 5 53 C2.21868814 49.29791254 2.74132927 44.91258548 2.8125 40.5 C2.81314453 39.74074219 2.81378906 38.98148438 2.81445312 38.19921875 C2.8426456 34.6219071 3.11476609 31.44707951 4 28 C4.19324741 25.50434769 4.31096467 23.00230383 4.375 20.5 C4.42398438 19.1903125 4.47296875 17.880625 4.5234375 16.53125 C4.31672537 12.90898374 4.31672537 12.90898374 1.83984375 10.578125 C-1.2556731 8.85792031 -3.29723461 8.41941038 -6.8125 8.25 C-7.78832031 8.19328125 -8.76414062 8.1365625 -9.76953125 8.078125 C-10.50558594 8.05234375 -11.24164062 8.0265625 -12 8 C-12.33 6.35 -12.66 4.7 -13 3 C-9.28405454 -0.87750831 -5.02478687 -0.88284433 0 0 Z " fill="#C8F6FE" transform="translate(770,1058)"/>
<path d="M0 0 C4.55555556 0.55555556 4.55555556 0.55555556 6 2 C7.343164 14.08847598 3.1921199 25.3400821 -1.66235352 36.17602539 C-3.99069349 41.38175434 -3.99069349 41.38175434 -4 47 C-2.7127873 49.77684741 -2.7127873 49.77684741 -1 52.5 C1.27319455 56.24656139 2.38382819 58.58597578 2 63 C-0.475 63.495 -0.475 63.495 -3 64 C-9.32478533 56.97246074 -12.83361038 50.99212141 -12.52734375 41.27734375 C-11.71870115 36.25177973 -9.66984634 31.97272447 -7.53125 27.3828125 C-4.119397 19.84540255 -2.69829517 12.44581016 -2.30859375 4.21484375 C-2 2 -2 2 0 0 Z " fill="#DAF8FE" transform="translate(1060,1082)"/>
<path d="M0 0 C1.32 0 2.64 0 4 0 C7.50819565 6.81781418 7.65680009 13.25061509 7.90820312 20.81835938 C8.36955843 28.34000599 10.69854915 32.69854915 16 38 C16.04063832 39.66617115 16.042721 41.33388095 16 43 C13.3125 43.3125 13.3125 43.3125 10 43 C7.3125 40.75 7.3125 40.75 5 38 C4.443125 37.401875 3.88625 36.80375 3.3125 36.1875 C-0.0727071 30.54548817 -0.46320744 23.30849157 -1.125 16.875 C-1.21136719 16.10285156 -1.29773438 15.33070312 -1.38671875 14.53515625 C-2.28875573 6.13046245 -2.28875573 6.13046245 -2 2 C-1.34 1.34 -0.68 0.68 0 0 Z " fill="#DAF8FF" transform="translate(997,1056)"/>
<path d="M0 0 C2.625 0.375 2.625 0.375 5 1 C5.38218767 2.65614657 5.71395102 4.32457024 6 6 C5 7 5 7 1.9375 7.0625 C0.968125 7.041875 -0.00125 7.02125 -1 7 C-1.625 4.625 -1.625 4.625 -2 2 C-1.34 1.34 -0.68 0.68 0 0 Z " fill="#D8F8FF" transform="translate(1172,1079)"/>
<path d="M0 0 C1.67542976 0.28604898 3.34385343 0.61781233 5 1 C5.38218767 2.65614657 5.71395102 4.32457024 6 6 C5 7 5 7 2.5625 7.1875 C0 7 0 7 -2 5 C-1.46428571 1.46428571 -1.46428571 1.46428571 0 0 Z " fill="#D8F8FF" transform="translate(1120,1198)"/>
<path d="M0 0 C0.22084624 6.09781001 0.01167675 11.21642935 -2 17 C-2.33 17 -2.66 17 -3 17 C-4.27766164 11.88935343 -5.27509963 6.21756458 -2.5625 1.5 C-1 0 -1 0 0 0 Z " fill="#A1EEFE" transform="translate(604,1033)"/>
<path d="M0 0 C1.32229189 2.64458379 1.09677194 4.67761301 1.0625 7.625 C1.05347656 8.62789062 1.04445313 9.63078125 1.03515625 10.6640625 C1.02355469 11.43492188 1.01195312 12.20578125 1 13 C0.67 12.01 0.34 11.02 0 10 C-0.66 10 -1.32 10 -2 10 C-1.85950482 8.52031676 -1.71245174 7.04125484 -1.5625 5.5625 C-1.48128906 4.73878906 -1.40007813 3.91507813 -1.31640625 3.06640625 C-1 1 -1 1 0 0 Z " fill="#85EEF3" transform="translate(652,1168)"/>
</svg>
