<?xml version="1.0" encoding="UTF-8"?>
<svg version="1.1" xmlns="http://www.w3.org/2000/svg" width="2048" height="2048">
<path d="M0 0 C0.94037109 -0.00322266 1.88074219 -0.00644531 2.84960938 -0.00976562 C13.90714054 0.07360164 24.42461172 2.47912296 35.125 5.0625 C46.23589269 7.68785861 57.39265339 9.93146106 68.60913086 12.05493164 C77.49790232 13.74526446 86.34721024 15.57277002 95.1875 17.5 C105.19514876 19.677516 115.19591038 21.70540748 125.3125 23.3125 C126.38628906 23.498125 127.46007812 23.68375 128.56640625 23.875 C133.53499257 24.45527286 138.43930453 24.49671171 143.4375 24.5 C144.87222656 24.51836914 144.87222656 24.51836914 146.3359375 24.53710938 C158.32713776 24.5611559 169.55823795 22.21468218 181.0625 19 C182.19429687 18.69022217 183.32609375 18.38044434 184.4921875 18.0612793 C190.79027195 16.32760243 197.05903988 14.51229877 203.3125 12.625 C226.35806797 5.70964704 248.23935799 3.71515258 272.25 5.0625 C273.38876587 5.12585541 273.38876587 5.12585541 274.55053711 5.19049072 C304.85649301 6.90720368 335.38170056 9.10805969 365.3125 14.3125 C366.14555664 14.45623047 366.97861328 14.59996094 367.83691406 14.74804688 C386.71843835 18.14124834 404.74198668 24.69676417 421.3125 34.3125 C423.1859321 35.29466319 425.06083566 36.274027 426.9375 37.25 C432.361269 40.20546694 437.34057693 43.68627954 442.3671875 47.26171875 C445.24688506 49.33218768 445.24688506 49.33218768 448.1953125 50.95703125 C448.89398437 51.40433594 449.59265625 51.85164062 450.3125 52.3125 C450.3125 52.9725 450.3125 53.6325 450.3125 54.3125 C450.9725 54.51875 451.6325 54.725 452.3125 54.9375 C454.9322183 56.13820422 456.54717354 57.22352705 458.75 59 C470.72563521 68.25389994 484.3584017 72.36340097 499.15585327 74.07614136 C501.91933751 74.39764085 504.67953566 74.74399314 507.44017029 75.088974 C509.48249754 75.34400728 511.5251422 75.59635072 513.56787109 75.84814453 C545.8514997 79.8514997 545.8514997 79.8514997 556.5625 90.5625 C559.35796194 94.95536877 560.52331027 99.04779542 560.0390625 104.25 C551.81082898 138.93244666 503.34287997 168.85348546 475.20703125 186.23046875 C468.12746511 190.46698587 460.85402277 193.98059559 453.3125 197.3125 C452.08676349 197.87265729 450.86151629 198.43388634 449.63671875 198.99609375 C384.12897983 228.77385655 309.36129558 234.98521851 238.5625 226.9375 C237.63741638 226.8325824 236.71233276 226.72766479 235.75921631 226.61956787 C203.64038978 222.92824963 203.64038978 222.92824963 189.875 218.9375 C189.18986328 218.75445313 188.50472656 218.57140625 187.79882812 218.3828125 C182.74518857 216.9589882 178.09723796 214.93521027 173.34448242 212.71728516 C167.67672687 210.09128746 161.92603923 207.65390325 156.1875 205.1875 C154.97707031 204.66285156 153.76664063 204.13820313 152.51953125 203.59765625 C149.12841758 202.14010467 145.72733459 200.71348502 142.3125 199.3125 C141.51618164 198.98282227 140.71986328 198.65314453 139.89941406 198.31347656 C129.10547864 194.25283054 117.93041052 195.18619559 106.75 196.875 C105.49767578 197.05627441 104.24535156 197.23754883 102.95507812 197.42431641 C90.81355379 199.25467402 78.86193302 201.81941189 66.88769531 204.51269531 C32.65611721 212.17062005 32.65611721 212.17062005 16.3125 213.3125 C15.54728027 213.37276367 14.78206055 213.43302734 13.99365234 213.49511719 C-1.92766208 214.7096998 -17.75583148 214.05181113 -33.6875 213.3125 C-35.25909182 213.24943014 -36.83070304 213.18683965 -38.40234375 213.125 C-82.6125328 211.03838341 -149.59445767 205.29941184 -184.6875 175.3125 C-184.6875 174.6525 -184.6875 173.9925 -184.6875 173.3125 C-185.6775 172.9825 -186.6675 172.6525 -187.6875 172.3125 C-187.6875 171.6525 -187.6875 170.9925 -187.6875 170.3125 C-188.3475 170.3125 -189.0075 170.3125 -189.6875 170.3125 C-189.6875 169.6525 -189.6875 168.9925 -189.6875 168.3125 C-190.3475 168.3125 -191.0075 168.3125 -191.6875 168.3125 C-197.61250573 162.15700206 -202.54084823 154.8957173 -207.5625 148 C-208.40131714 146.85362061 -208.40131714 146.85362061 -209.25708008 145.68408203 C-213.63701818 139.60463497 -216.68049794 133.85198337 -218.8125 126.625 C-219.31136719 124.94857422 -219.31136719 124.94857422 -219.8203125 123.23828125 C-220.10648438 122.27277344 -220.39265625 121.30726563 -220.6875 120.3125 C-221.0175 119.3225 -221.3475 118.3325 -221.6875 117.3125 C-223.27958593 103.505722 -219.55906429 88.92186818 -211.04052734 78.04736328 C-208.16288413 74.35762444 -205.40850858 70.57340424 -202.625 66.8125 C-202.01068115 65.99023926 -201.3963623 65.16797852 -200.76342773 64.32080078 C-197.49871488 59.91707078 -194.52472352 55.54798067 -191.875 50.75 C-187.31956354 42.53641001 -180.98889848 36.12043061 -173.6875 30.3125 C-172.93581543 29.49015869 -172.18413086 28.66781738 -171.40966797 27.82055664 C-168.40239445 25.04981935 -166.27437715 24.15438628 -162.3828125 22.99609375 C-161.16762939 22.62645508 -159.95244629 22.25681641 -158.70043945 21.87597656 C-157.40467926 21.49989353 -156.10869465 21.12458291 -154.8125 20.75 C-153.47910897 20.35355284 -152.14602032 19.95608729 -150.81323242 19.55761719 C-147.11034071 18.45605874 -143.39928474 17.38371514 -139.6875 16.3125 C-138.24325269 15.88230491 -136.79918307 15.45151164 -135.35546875 15.01953125 C-117.27461233 9.86259316 -98.3267592 6.52189105 -79.5625 5.6640625 C-77.13800343 5.54462356 -74.71352483 5.42481942 -72.2890625 5.3046875 C-68.51416747 5.12094937 -64.73921211 4.93988692 -60.96386719 4.765625 C-47.31395634 4.12990542 -33.84203042 3.23960362 -20.30741882 1.32603455 C-13.51237399 0.37492877 -6.8686133 -0.12327016 0 0 Z " fill="#020202" transform="translate(752.6875,882.6875)"/>
<path d="M0 0 C0.99 0.33 1.98 0.66 3 1 C-17.43593691 28.21947338 -42.2004447 49.11927581 -71 67 C-72.00933594 67.6290625 -73.01867188 68.258125 -74.05859375 68.90625 C-78.98105803 71.80101402 -82.0061645 73.31598059 -87.8359375 72.83984375 C-90.8083729 73.05982543 -92.84158208 74.21926245 -95.5 75.5625 C-110.51659038 82.94856713 -127.68887339 86.51400094 -144 90 C-145.07072754 90.23299805 -145.07072754 90.23299805 -146.16308594 90.47070312 C-169.41602747 95.48903127 -192.9422411 99.00371701 -216.59765625 101.421875 C-219.43064389 101.71189755 -222.20343303 102.03456514 -225.01171875 102.51171875 C-243.94731003 105.60576961 -263.56819975 105.19436327 -282.6875 105.1875 C-283.7556897 105.18831573 -284.82387939 105.18913147 -285.92443848 105.18997192 C-304.14858557 105.18839889 -321.96691549 104.91552665 -339.9375 101.625 C-341.14728516 101.41617187 -342.35707031 101.20734375 -343.60351562 100.9921875 C-364.64311127 97.25990661 -384.15136988 90.24707809 -399.6953125 75.19921875 C-401.892754 72.98156189 -401.892754 72.98156189 -404.27734375 71.453125 C-406 70 -406 70 -406.4375 66.0625 C-406.4321751 63.29887811 -406.21603296 62.27169451 -404.46875 60.07421875 C-402.57468072 57.39934963 -402.80905673 55.97564159 -403.0625 52.75 C-403.24266513 45.22310119 -400.79692963 40.70114596 -395.75 35.25 C-388.40855071 28.34966783 -380.78850868 26.82082397 -370.9375 26.875 C-369.87692383 26.86919922 -369.87692383 26.86919922 -368.79492188 26.86328125 C-365.33741041 26.86977423 -362.33059815 27.16110336 -359 28 C-357.49790572 28.16327854 -355.99183682 28.29203256 -354.484375 28.39453125 C-353.57961426 28.46075684 -352.67485352 28.52698242 -351.74267578 28.59521484 C-350.75509277 28.66691895 -349.76750977 28.73862305 -348.75 28.8125 C-328.94679475 30.36587209 -309.24090175 32.95651174 -289.625 36.0625 C-213.95312994 47.95932152 -114.6390543 51.7502248 -47 9 C-46.42483643 8.31510498 -45.84967285 7.63020996 -45.25708008 6.92456055 C-42.17462112 4.29621831 -40.19223199 4.50221774 -36.1796875 4.49609375 C-35.1916362 4.4819619 -35.1916362 4.4819619 -34.18362427 4.46754456 C-32.08043331 4.43895348 -29.97836904 4.43581074 -27.875 4.4375 C-13.52416802 4.43725928 -13.52416802 4.43725928 0 0 Z " fill="#657EA1" transform="translate(1302,1000)"/>
<path d="M0 0 C1.02409973 -0.00701431 2.04819946 -0.01402863 3.10333252 -0.02125549 C6.3905482 -0.03866455 9.67758366 -0.04510815 12.96484375 -0.046875 C14.08893646 -0.04754974 15.21302917 -0.04822449 16.3711853 -0.04891968 C32.77522399 -0.03325985 48.69921507 0.45894421 64.90234375 3.203125 C66.85439838 3.51779571 68.80645626 3.83244651 70.7585907 4.1466217 C92.98857756 7.7462419 92.98857756 7.7462419 95.90234375 9.203125 C97.52451302 9.45153838 99.15031969 9.6763003 100.77734375 9.890625 C129.03013876 14.50401346 159.05475818 26.57017055 180.90234375 45.203125 C181.82789063 45.98945312 182.7534375 46.77578125 183.70703125 47.5859375 C187.53954994 50.94081291 191.02486804 54.24112138 194.15234375 58.265625 C196.27537285 60.85776534 196.60480667 61.1447844 200.08984375 61.828125 C203.13381941 61.15168596 204.16882282 60.75778742 205.90234375 58.203125 C206.26334061 56.87701409 206.60038943 55.54391301 206.90234375 54.203125 C210.23599486 54.53345645 213.56926717 54.86705713 216.90234375 55.203125 C217.87031891 55.30071106 217.87031891 55.30071106 218.85784912 55.40026855 C223.45319832 55.86498032 228.04737019 56.34009866 232.64086914 56.82275391 C234.26429609 56.99203958 235.88799521 57.15873661 237.51196289 57.32275391 C269.96506429 60.60656159 269.96506429 60.60656159 281.52734375 69.140625 C283.49078842 72.085792 283.53927146 73.73540748 282.90234375 77.203125 C280.16516066 80.62460387 278.19932441 82.4795642 273.90234375 83.203125 C268.95252581 83.47330602 263.99171799 83.45222775 259.03515625 83.45703125 C257.90893042 83.45822558 257.90893042 83.45822558 256.75995255 83.45944405 C239.2378787 83.43678127 221.90854655 82.03815837 204.47504807 80.39342117 C201.71141363 80.13444683 198.94726835 79.88175216 196.18289185 79.63082886 C152.9612472 75.7033345 109.80556948 71.08799575 66.64664513 66.5318594 C24.49855696 62.08268092 -17.65806111 57.84736739 -59.87352371 54.07686234 C-63.60974884 53.74298473 -67.34576967 53.40684534 -71.08181381 53.07094955 C-73.55815544 52.84999071 -76.03489684 52.63412021 -78.51174927 52.41897583 C-86.17612427 51.74130542 -93.75531944 50.8539191 -101.35368347 49.61756897 C-104.7598438 49.10310956 -108.04908137 48.88697073 -111.4921875 48.7890625 C-112.71357422 48.75039063 -113.93496094 48.71171875 -115.19335938 48.671875 C-116.41990234 48.6409375 -117.64644531 48.61 -118.91015625 48.578125 C-120.18697266 48.53945313 -121.46378906 48.50078125 -122.77929688 48.4609375 C-125.88528402 48.36787421 -128.99128311 48.2820435 -132.09765625 48.203125 C-129.71624792 45.57863597 -127.17759452 43.93405019 -124.1171875 42.1640625 C-123.12541504 41.587771 -122.13364258 41.01147949 -121.11181641 40.41772461 C-120.05526855 39.81065674 -118.9987207 39.20358887 -117.91015625 38.578125 C-116.83040527 37.95365479 -115.7506543 37.32918457 -114.63818359 36.68579102 C-111.46156463 34.85196177 -108.2806453 33.02587111 -105.09765625 31.203125 C-104.26186035 30.72375488 -103.42606445 30.24438477 -102.56494141 29.75048828 C-98.09755651 27.19397444 -93.61106434 24.67753461 -89.09765625 22.203125 C-88.22882812 21.72617187 -87.36 21.24921875 -86.46484375 20.7578125 C-79.65644443 17.1850881 -72.48777196 14.55378231 -65.25830078 11.97802734 C-63.83160038 11.46634971 -62.40797951 10.94599257 -60.98779297 10.41650391 C-41.41649482 3.12080159 -20.84534592 0.09601133 0 0 Z " fill="#657EA1" transform="translate(1017.09765625,909.796875)"/>
<path d="M0 0 C1.31707947 -0.00315216 2.63415894 -0.00630432 3.9911499 -0.009552 C5.42411329 -0.00775821 6.85707638 -0.00570628 8.29003906 -0.00341797 C9.78859472 -0.00409361 11.28715028 -0.00506579 12.78570557 -0.00631714 C15.93624916 -0.00779095 19.0867644 -0.00565576 22.23730469 -0.00097656 C26.19267072 0.00462339 30.14796809 0.00140161 34.10333157 -0.00440979 C48.67279789 -0.02265457 63.23257149 0.01551556 77.79394531 0.55908203 C78.79024963 0.59572968 79.78655396 0.63237732 80.81304932 0.6701355 C110.98339878 1.96368304 143.57937331 6.89531755 171.83300781 17.82470703 C175.30492375 19.12911639 177.63895154 19.47860525 181.30566406 19.12939453 C181.96566406 18.79939453 182.62566406 18.46939453 183.30566406 18.12939453 C183.63566406 16.14939453 183.96566406 14.16939453 184.30566406 12.12939453 C190.24566406 12.45939453 196.18566406 12.78939453 202.30566406 13.12939453 C200.59096619 23.9891477 200.59096619 23.9891477 194.67382812 28.32519531 C192.73425691 29.6816578 190.77369221 31.00208721 188.80566406 32.31689453 C175.35670627 41.35804082 175.35670627 41.35804082 163.30566406 52.12939453 C162.97566406 52.45939453 162.64566406 52.78939453 162.30566406 53.12939453 C162.19956212 54.50282521 162.12096454 55.87842022 162.05566406 57.25439453 C161.63249584 61.78014276 160.17604546 64.02786343 157.39160156 67.50439453 C155.66564585 70.08711963 155.84027157 72.13758565 156.30566406 75.12939453 C156.94215251 76.47739478 157.60429874 77.81398246 158.30566406 79.12939453 C151.87315512 78.60521455 145.72202471 77.66349425 139.43066406 76.25439453 C122.37544103 72.64655889 104.80638702 71.1504925 87.40722656 70.34033203 C84.30566406 70.12939453 84.30566406 70.12939453 81.73632812 69.65063477 C77.26350761 68.9710538 72.83097011 68.76202205 68.31347656 68.57861328 C67.28336456 68.53677414 66.25325256 68.494935 65.19192505 68.451828 C50.54854113 67.92335742 35.89613085 67.94224544 21.24511719 67.9440918 C17.87950244 67.94417289 14.5140243 67.93723765 11.1484375 67.92358398 C-63.56741065 66.16466859 -63.56741065 66.16466859 -133.08496094 87.64111328 C-135.69433594 89.12939453 -135.69433594 89.12939453 -138.69433594 90.12939453 C-134.90282109 77.20377575 -128.08773285 70.22113272 -116.38183594 63.75439453 C-98.64987574 54.41493486 -78.74014476 49.34649896 -59.16015625 45.60400391 C-56.97537231 45.18348708 -54.79976077 44.73461307 -52.62402344 44.27001953 C-44.38128766 42.5836143 -36.10884107 41.49094172 -27.75683594 40.50439453 C-26.72131592 40.38112793 -25.6857959 40.25786133 -24.61889648 40.13085938 C-9.84897854 38.46997584 4.89736723 37.96857226 19.74707031 37.96142578 C21.36921719 37.95819505 22.9913638 37.95482979 24.61351013 37.95133972 C27.9891731 37.94541127 31.36481072 37.9434932 34.74047852 37.9440918 C38.14645723 37.94417287 41.5523009 37.93725001 44.95825195 37.92358398 C64.16083409 37.84778196 83.20086363 37.9044609 102.30566406 40.12939453 C102.99109283 40.20745331 103.67652161 40.28551208 104.38272095 40.36593628 C108.16344139 40.80790962 111.92197219 41.34240617 115.68066406 41.94189453 C116.75227783 42.10786133 117.8238916 42.27382813 118.92797852 42.44482422 C126.31533462 43.64925443 133.48005012 45.28357827 140.61376953 47.55444336 C144.98068484 48.92252864 148.73354266 49.61037949 153.30566406 49.12939453 C156.03329038 47.30922851 157.72385369 44.98973584 159.30566406 42.12939453 C159.65488634 39.37093331 159.65488634 39.37093331 158.30566406 37.12939453 C155.19686798 34.35040116 152.08512057 33.21136054 148.13378906 31.97314453 C146.91973389 31.59174316 145.70567871 31.2103418 144.45483398 30.81738281 C143.15540776 30.42041294 141.85567814 30.02443501 140.55566406 29.62939453 C139.89950104 29.42763611 139.24333801 29.22587769 138.56729126 29.01800537 C128.87985177 26.04708191 119.33701399 23.67785794 109.30566406 22.12939453 C106.90952356 21.63086865 104.51370635 21.1307871 102.11816406 20.62939453 C77.13969788 15.74209418 51.19823512 14.88322871 25.80566406 14.81689453 C24.76928802 14.81361145 23.73291199 14.81032837 22.66513062 14.8069458 C-5.85765961 14.7780111 -35.02490563 16.85301785 -62.88183594 23.31689453 C-63.80617432 23.53047607 -64.7305127 23.74405762 -65.68286133 23.96411133 C-84.55442388 28.39496259 -102.98805823 33.63746352 -121.21435547 40.24462891 C-125.02019617 41.60241259 -128.85427529 42.87220047 -132.69433594 44.12939453 C-131.09549389 33.53241818 -122.21742884 25.65184883 -114.06933594 19.44189453 C-89.42437793 2.97771378 -45.28790446 2.22937199 -16.20605469 1.30517578 C-12.79741372 1.20923871 -12.79741372 1.20923871 -9.89324951 0.62649536 C-6.54189875 0.10570628 -3.39061835 0.00234204 0 0 Z " fill="#51647B" transform="translate(695.6943359375,894.87060546875)"/>
<path d="M0 0 C1.07894531 0.30292969 2.15789063 0.60585938 3.26953125 0.91796875 C7.33452632 2.05662669 11.40399985 3.17865304 15.47412109 4.29882812 C17.75347551 4.93156598 20.02735475 5.58074505 22.30078125 6.234375 C37.6376586 10.55368317 53.32724282 13.22455405 69 16 C70.12229004 16.20012695 71.24458008 16.40025391 72.40087891 16.60644531 C107.93161517 22.89633848 143.29058298 25.39265074 179.32196426 25.25734329 C181.54296481 25.24985514 183.76394357 25.24627769 185.98495483 25.24362183 C206.9736331 25.21341288 227.87841368 24.73442423 248.82714844 23.37573242 C261.20309904 22.58412811 273.60402695 22.29410481 286 22 C287.52657227 21.95697754 287.52657227 21.95697754 289.08398438 21.91308594 C321.36972832 21.05430689 321.36972832 21.05430689 332 30 C335.06474306 32.45179445 337.07537549 33.45491326 341 34 C341.45690111 42.71496563 341.45690111 42.71496563 340 46.8125 C331.39446091 56.22480838 318.08178325 56.98657981 306 58 C302.64322884 58.12086976 299.29217915 58.11752977 295.93359375 58.09765625 C294.55434471 58.09553383 294.55434471 58.09553383 293.14723206 58.09336853 C290.24395329 58.08782312 287.34075499 58.07528117 284.4375 58.0625 C282.45507925 58.05747793 280.47265727 58.05291627 278.49023438 58.04882812 C273.6601258 58.03787164 268.83007649 58.02064542 264 58 C264 58.66 264 59.32 264 60 C275.22 60 286.44 60 298 60 C294.4999028 61.7500486 292.04948643 62.54094438 288.28515625 63.296875 C286.56486206 63.64733887 286.56486206 63.64733887 284.80981445 64.00488281 C283.57320068 64.25077148 282.33658691 64.49666016 281.0625 64.75 C279.10404455 65.14521008 277.1455916 65.54043313 275.18730164 65.9364624 C273.83451005 66.20984136 272.48157195 66.4824962 271.12849426 66.75445557 C266.49981046 67.68706819 261.88132831 68.66093738 257.265625 69.65625 C244.21856475 72.45901465 231.3309141 75.11696937 218 76 C217.09121094 76.06026367 216.18242188 76.12052734 215.24609375 76.18261719 C210.5516865 76.47797104 205.85534124 76.74061841 201.15625 76.94921875 C200.40150391 76.98362061 199.64675781 77.01802246 198.86914062 77.0534668 C197 77 197 77 195 76 C195 75.34 195 74.68 195 74 C193.7934375 73.5359375 193.7934375 73.5359375 192.5625 73.0625 C190 72 190 72 189 71 C187.47336818 70.87720033 185.94140529 70.82006002 184.41015625 70.7890625 C183.4159668 70.76295898 182.42177734 70.73685547 181.39746094 70.70996094 C180.29692383 70.68192383 179.19638672 70.65388672 178.0625 70.625 C134.06946753 69.15897624 84.64403474 65.04097461 44 47 C48.40088484 45.65639928 51.99440653 46.68872469 56.375 47.6875 C69.46039078 50.46935715 82.68293101 52.1329888 95.95300293 53.75 C97.97844275 53.99736721 100.00339429 54.24846555 102.02832031 54.5 C129.937302 57.94358619 157.95414028 60.0288937 186 62 C186.88328979 62.06272095 187.76657959 62.12544189 188.67663574 62.19006348 C204.40228784 63.3042152 220.10581875 64.1644308 235.875 64.25 C237.63360352 64.26401855 237.63360352 64.26401855 239.42773438 64.27832031 C240.50087891 64.27413086 241.57402344 64.26994141 242.6796875 64.265625 C243.61538574 64.26336914 244.55108398 64.26111328 245.51513672 64.25878906 C248.15276794 63.9840898 249.77539923 63.42530165 252 62 C252.33 61.34 252.66 60.68 253 60 C251.99356445 60.02175293 250.98712891 60.04350586 249.95019531 60.06591797 C236.47705134 60.26049686 223.16863365 59.24305457 209.75 58.125 C207.56124871 57.94858736 205.37244665 57.77280362 203.18359375 57.59765625 C196.7875663 57.08238158 190.39342917 56.54651159 184 56 C183.0342807 55.91769135 182.0685614 55.83538269 181.07357788 55.75057983 C167.62213568 54.59432648 154.21776125 53.16345454 140.8125 51.5625 C137.03792329 51.11450235 133.26315451 50.66814785 129.48828125 50.22265625 C128.11683456 50.06049118 128.11683456 50.06049118 126.71768188 49.89505005 C120.39569199 49.15186414 114.06983935 48.47908772 107.73706055 47.83422852 C76.34336254 44.59280966 31.1446718 39.44018536 7 16 C3.22283177 11.09988987 0 6.27679292 0 0 Z " fill="#829BCD" transform="translate(551,1020)"/>
<path d="M0 0 C2.97397616 0.27036147 3.85446026 0.85446026 6 3 C6.49493791 6.62954465 6.1787179 8.63479386 4.5625 11.9375 C-16.44271216 37.04129014 -61.68920419 43.2453048 -91.71582031 48.40454102 C-95.24087965 49.04367421 -98.74005018 49.77570842 -102.24609375 50.51171875 C-110.412408 52.15845202 -118.59514185 53.17951245 -126.875 54.0625 C-128.0464859 54.18848572 -128.0464859 54.18848572 -129.24163818 54.3170166 C-156.11059651 57.18125122 -182.67514364 58.17510693 -209.6875 58.1875 C-211.64710663 58.18913147 -211.64710663 58.18913147 -213.64630127 58.1907959 C-217.39316609 58.19044221 -221.13987958 58.18130631 -224.88671875 58.16796875 C-226.01968887 58.16675522 -227.152659 58.16554169 -228.31996155 58.16429138 C-233.33908005 58.1344315 -238.05937809 57.97116453 -243 57 C-244.61552098 56.90608188 -246.23347406 56.84698796 -247.8515625 56.82421875 C-264.75736036 56.43488207 -281.38815723 54.57843535 -298.01074219 51.4296875 C-305.65017362 50.00722486 -312.98998849 49.76088218 -320.75 49.875 C-321.9359375 49.88402344 -323.121875 49.89304687 -324.34375 49.90234375 C-327.22938907 49.92561503 -330.11457855 49.95830316 -333 50 C-317.55132221 54.15549877 -301.981204 57.54684089 -286.3125 60.75 C-285.35815063 60.94608856 -284.40380127 61.14217712 -283.42053223 61.34420776 C-263.39469884 65.55495274 -263.39469884 65.55495274 -243.0625 67.5625 C-235.61662214 67.88385561 -235.61662214 67.88385561 -232.30786133 68.50708008 C-228.25169218 69.11150886 -224.32081755 69.14325319 -220.2265625 69.1328125 C-219.38515717 69.13376923 -218.54375183 69.13472595 -217.67684937 69.13571167 C-215.89670741 69.1363903 -214.11656294 69.13455814 -212.33642578 69.13037109 C-209.66823452 69.12508564 -207.00021684 69.13029177 -204.33203125 69.13671875 C-188.04855767 69.14515465 -171.98402516 68.05649941 -155.8125 66.1875 C-155.04798523 66.09974304 -154.28347046 66.01198608 -153.49578857 65.92156982 C-142.15617887 64.60837605 -130.96755358 62.98813006 -119.80029297 60.59033203 C-116.48860648 59.89219272 -113.16889053 59.24102345 -109.84765625 58.58984375 C-91.22677417 54.90482144 -73.99883217 49.95338881 -56.33276367 43.03393555 C-51.1811291 41.0452203 -46.5145206 39.46405503 -41 39 C-40.6875 41.6875 -40.6875 41.6875 -41 45 C-44.94915254 49.97832562 -49.65514034 51.97299057 -55.375 54.3125 C-56.2918457 54.69494873 -57.20869141 55.07739746 -58.15332031 55.47143555 C-79.18174437 64.10518698 -99.83787831 69.86591622 -122.1875 73.6875 C-124.0583728 74.00980591 -124.0583728 74.00980591 -125.96704102 74.33862305 C-133.30097003 75.54860764 -140.54681801 76.3605038 -147.9699707 76.76489258 C-150.900512 76.92127652 -150.900512 76.92127652 -153.3215332 77.51342773 C-157.28867743 78.2341021 -161.21764346 78.18257863 -165.2421875 78.203125 C-166.14962708 78.21009399 -167.05706665 78.21706299 -167.99200439 78.22424316 C-170.95304965 78.24173845 -173.91390498 78.24797865 -176.875 78.25 C-178.39694977 78.25151062 -178.39694977 78.25151062 -179.949646 78.25305176 C-196.20072239 78.24216155 -212.05678327 77.43810225 -228.19628906 75.45751953 C-232.22896902 74.97245905 -236.2649293 74.5417927 -240.3046875 74.12109375 C-311.55769249 66.60676691 -311.55769249 66.60676691 -344.14575195 55.76171875 C-346.85558759 55.03853962 -348.79461973 54.90573672 -351.5625 55.125 C-355 55 -355 55 -357.5 52.5 C-359.56219108 47.68822082 -359.93126489 43.88196176 -358.33984375 38.95703125 C-354.96332633 31.40006369 -349.39094228 26.25708864 -341.9921875 22.7265625 C-337.03141137 20.91733827 -332.16670476 20.84624177 -326.9375 20.875 C-325.87692383 20.86919922 -325.87692383 20.86919922 -324.79492188 20.86328125 C-321.33741041 20.86977423 -318.33059815 21.16110336 -315 22 C-313.49790572 22.16327854 -311.99183682 22.29203256 -310.484375 22.39453125 C-309.57961426 22.46075684 -308.67485352 22.52698242 -307.74267578 22.59521484 C-306.75509277 22.66691895 -305.76750977 22.73862305 -304.75 22.8125 C-284.94679475 24.36587209 -265.24090175 26.95651174 -245.625 30.0625 C-169.3549449 42.05336572 -71.39976389 45.28907558 -3 3 C-1.99660828 2.00340326 -0.99539531 1.00458358 0 0 Z " fill="#829BCC" transform="translate(1258,1006)"/>
<path d="M0 0 C3.13683664 0.01067034 6.27309325 0.00006496 9.40991211 -0.01269531 C30.10977185 -0.03022554 50.25924831 1.74199774 70.59545898 5.57324219 C72.29725522 5.88702622 73.99907849 6.20066374 75.70092773 6.51416016 C92.78016347 9.68957921 109.65643576 13.17538422 125.97045898 19.26074219 C126.72117676 19.53756836 127.47189453 19.81439453 128.24536133 20.09960938 C150.56636051 28.41659799 169.56992195 38.82527695 186.97045898 55.26074219 C187.72713867 55.96457031 188.48381836 56.66839844 189.26342773 57.39355469 C196.64393974 64.46486491 196.64393974 64.46486491 197.97045898 69.26074219 C196.78295898 73.07324219 196.78295898 73.07324219 194.97045898 76.26074219 C192.08847507 77.70173415 190.16441183 77.6348797 186.97045898 77.26074219 C184.58374023 75.17089844 184.58374023 75.17089844 182.28295898 72.32324219 C177.39064011 66.53699043 172.01234072 61.85362612 165.97045898 57.26074219 C165.22795898 56.679375 164.48545898 56.09800781 163.72045898 55.49902344 C143.69080343 40.58110289 113.43358363 27.05018399 88.25366211 25.52001953 C85.6493124 25.22427323 83.26867631 24.59240353 80.73999023 23.90136719 C73.76633272 22.1202051 66.73650582 20.99837529 59.62524414 19.953125 C57.47220406 19.63599922 55.32094257 19.30842278 53.16967773 18.97949219 C41.27089263 17.1942688 29.53664228 16.10651448 17.49389648 16.09277344 C16.44376373 16.08944504 15.39363098 16.08611664 14.31167603 16.08268738 C12.10500521 16.07766296 9.89832692 16.07527765 7.69165039 16.07543945 C4.37429814 16.07326112 1.05728358 16.05507893 -2.26000977 16.03613281 C-14.66509346 16.00350006 -26.74466728 16.52209197 -39.02954102 18.26074219 C-39.69499939 18.35177719 -40.36045776 18.44281219 -41.04608154 18.53660583 C-75.87891784 23.33814815 -106.95235783 42.06755025 -136.56201172 59.80541992 C-138.02566891 60.66866921 -139.50967478 61.50080907 -141.02954102 62.26074219 C-140.24305176 62.28579834 -139.4565625 62.31085449 -138.64624023 62.33666992 C-135.06552607 62.45307085 -131.48504652 62.57559706 -127.90454102 62.69824219 C-126.66704102 62.73755859 -125.42954102 62.776875 -124.15454102 62.81738281 C-122.35629883 62.88022461 -122.35629883 62.88022461 -120.52172852 62.94433594 C-119.42199707 62.98099365 -118.32226562 63.01765137 -117.18920898 63.05541992 C-114.07824986 63.25757698 -111.09309763 63.69364113 -108.02954102 64.26074219 C-108.02954102 64.59074219 -108.02954102 64.92074219 -108.02954102 65.26074219 C-109.13467041 65.25026855 -110.2397998 65.23979492 -111.37841797 65.22900391 C-115.47652958 65.19281811 -119.57462705 65.1698469 -123.67285156 65.15087891 C-125.44696426 65.14081808 -127.22106036 65.12716797 -128.99511719 65.10986328 C-131.54439386 65.08561841 -134.09345139 65.07426001 -136.64282227 65.06542969 C-137.83359123 65.04994583 -137.83359123 65.04994583 -139.04841614 65.03414917 C-142.91177145 65.03336109 -144.73793548 65.06633849 -148.02954102 67.26074219 C-150.19360352 67.24511719 -150.19360352 67.24511719 -152.65454102 67.01074219 C-159.52704145 66.83968434 -163.83914269 70.34713641 -168.74047852 74.82324219 C-170.30083147 76.56327214 -170.63694889 77.98370787 -171.02954102 80.26074219 C-171.68954102 80.26074219 -172.34954102 80.26074219 -173.02954102 80.26074219 C-175.0293218 77.64564423 -175.96426168 75.63609837 -176.52954102 72.38574219 C-175.83980108 68.07486757 -173.70095383 65.6040558 -171.02954102 62.26074219 C-170.36954102 61.27074219 -169.70954102 60.28074219 -169.02954102 59.26074219 C-168.36954102 59.92074219 -167.70954102 60.58074219 -167.02954102 61.26074219 C-164.14049738 61.56185037 -164.14049738 61.56185037 -161.02954102 60.26074219 C-159.70079444 58.59858931 -159.70079444 58.59858931 -158.47094727 56.58886719 C-154.77122467 51.46503141 -150.17924881 48.89545312 -144.71704102 45.88574219 C-142.74040105 44.75957607 -140.76383934 43.63327256 -138.78735352 42.50683594 C-137.81185547 41.95882324 -136.83635742 41.41081055 -135.83129883 40.84619141 C-132.58387992 39.00855299 -129.37827961 37.10789195 -126.17626953 35.19262695 C-114.89441589 28.45681719 -103.63992459 21.90018592 -91.22485352 17.46386719 C-88.65139142 16.49488635 -86.19271051 15.44593126 -83.69360352 14.30761719 C-72.78646398 9.41183776 -61.18372689 6.2691695 -49.46704102 4.01074219 C-48.69070313 3.85992188 -47.91436523 3.70910156 -47.11450195 3.55371094 C-31.41934348 0.71977423 -15.92127742 -0.06411418 0 0 Z " fill="#343F4D" transform="translate(1027.029541015625,894.7392578125)"/>
<path d="M0 0 C1.78880081 -0.00929031 1.78880081 -0.00929031 3.61373901 -0.01876831 C5.54577682 -0.01286179 5.54577682 -0.01286179 7.5168457 -0.00683594 C8.87370935 -0.00912036 10.23057202 -0.01207362 11.58743286 -0.01565552 C15.20696094 -0.02166235 18.82630183 -0.01324065 22.4458046 0.00043488 C24.69876192 0.00881187 26.95171535 0.01471566 29.2046814 0.02020264 C65.17523056 0.11961761 100.19054982 2.86707414 135.90779114 7.20150757 C142.68626043 8.01319962 149.467983 8.70537829 156.2668457 9.32128906 C162.84818397 9.91821704 169.34670953 10.68814451 175.87036133 11.76318359 C182.14034372 12.75446586 188.45230988 13.44823998 194.75512695 14.19628906 C196.20160367 14.36966545 197.64805517 14.54325238 199.09448242 14.71704102 C202.71099528 15.15108596 206.32778475 15.58276803 209.94470215 16.01342773 C214.26220219 16.52756809 218.57950504 17.04335753 222.89672852 17.55981445 C224.98971066 17.80997987 227.08280292 18.05922652 229.17602539 18.30737305 C230.99547566 18.52423523 232.81445914 18.74507223 234.6328125 18.97094727 C236.72151946 19.2243779 238.81432712 19.4435122 240.9074707 19.65722656 C245.89633002 20.62605927 249.10018596 23.11943295 252.00512695 27.25878906 C252.65068271 30.70175312 252.50564675 33.80381214 252.00512695 37.25878906 C251.34512695 37.25878906 250.68512695 37.25878906 250.00512695 37.25878906 C249.34512695 38.57878906 248.68512695 39.89878906 248.00512695 41.25878906 C233.77748821 41.92018168 219.71295708 40.05938382 205.59271598 38.52550387 C201.93383271 38.13001537 198.27392257 37.74426815 194.61408997 37.35768127 C188.3602682 36.69609472 182.1069547 36.02989428 175.85397339 35.3604126 C160.37404318 33.70367518 144.89128949 32.07365449 129.40788627 30.44972992 C127.77015461 30.27795143 126.1324315 30.10609148 124.49471688 29.9341507 C89.62415438 26.27357243 54.72861229 22.93915998 19.80834961 19.78637695 C18.38958983 19.65815032 18.38958983 19.65815032 16.94216824 19.52733326 C12.59845451 19.13508884 8.25457196 18.74509955 3.91011047 18.36122131 C2.41305512 18.22763399 0.91600005 18.0940435 -0.58105469 17.96044922 C-1.85437149 17.84802887 -3.12768829 17.73560852 -4.43959045 17.61978149 C-14.67294375 16.58071835 -14.67294375 16.58071835 -15.99487305 15.25878906 C-16.5241982 10.75952529 -16.33666075 8.77635331 -13.80737305 4.94628906 C-9.46473963 0.79666157 -5.91597543 0.00904212 0 0 Z " fill="#829CCD" transform="translate(933.994873046875,943.7412109375)"/>
<path d="M0 0 C2.72077161 0.00008067 5.44137271 -0.00678498 8.16210938 -0.02050781 C105.86392492 -0.50531227 105.86392492 -0.50531227 124.66137695 15.15405273 C126.2980957 17.18530273 126.2980957 17.18530273 126.7980957 20.18530273 C126.2980957 23.18530273 126.2980957 23.18530273 124.7355957 25.56030273 C121.38756693 27.79232192 119.29365491 27.43756818 115.2980957 27.18530273 C112.64653348 26.50355228 110.08834303 25.76383098 107.4855957 24.93530273 C99.95747855 22.70924659 92.42852986 21.19893005 84.6730957 19.99780273 C83.70525146 19.8434375 82.73740723 19.68907227 81.74023438 19.5300293 C78.26607302 19.01616441 74.78720523 18.58156329 71.2980957 18.18530273 C70.53044891 18.09669983 69.76280212 18.00809692 68.97189331 17.91680908 C50.86994815 15.9156899 32.79568821 15.87442874 14.60986328 15.92456055 C10.46006401 15.93590738 6.3105226 15.9291975 2.16073227 15.91769123 C-22.9590931 15.85844243 -48.2920081 15.92503755 -73.0769043 20.49780273 C-74.31545166 20.71726562 -75.55399902 20.93672852 -76.83007812 21.1628418 C-80.45823019 21.8163439 -84.08031465 22.49647751 -87.7019043 23.18530273 C-88.73009277 23.37463379 -89.75828125 23.56396484 -90.81762695 23.7590332 C-114.06696158 28.09483492 -148.01662023 34.472716 -163.7019043 54.18530273 C-166.10391053 58.3713233 -168.13316771 62.64191271 -169.19018555 67.36889648 C-170.04420065 70.40032413 -172.46079891 72.04380203 -174.7019043 74.18530273 C-176.74256026 76.4846334 -178.72652447 78.82978108 -180.7019043 81.18530273 C-184.89419641 76.99301062 -184.1174832 70.06209892 -184.15283203 64.4152832 C-183.87297752 52.94254976 -176.60793251 44.90016619 -168.7019043 37.18530273 C-142.74240621 12.92250387 -95.02019063 6.94573735 -61.5769043 2.87280273 C-60.27527344 2.71344238 -58.97364258 2.55408203 -57.63256836 2.38989258 C-38.45481383 0.19863239 -19.28727538 -0.00289063 0 0 Z " fill="#343F4D" transform="translate(726.701904296875,917.814697265625)"/>
<path d="M0 0 C1.31707947 -0.00315216 2.63415894 -0.00630432 3.9911499 -0.009552 C5.42411329 -0.00775821 6.85707638 -0.00570628 8.29003906 -0.00341797 C9.78859472 -0.00409361 11.28715028 -0.00506579 12.78570557 -0.00631714 C15.93624916 -0.00779095 19.0867644 -0.00565576 22.23730469 -0.00097656 C26.19267072 0.00462339 30.14796809 0.00140161 34.10333157 -0.00440979 C48.67279789 -0.02265457 63.23257149 0.01551556 77.79394531 0.55908203 C78.79024963 0.59572968 79.78655396 0.63237732 80.81304932 0.6701355 C113.68705705 2.07960184 147.53101902 8.43366637 178.30566406 20.12939453 C175.86233913 25.74904189 175.86233913 25.74904189 173.57910156 27.30908203 C163.59858628 30.91029889 149.6172283 27.43879951 139.30566406 26.12939453 C139.63566406 27.11939453 139.96566406 28.10939453 140.30566406 29.12939453 C138.53442504 28.6935399 136.76370117 28.25559178 134.99316406 27.81689453 C133.51396484 27.45144531 133.51396484 27.45144531 132.00488281 27.07861328 C129.93636598 26.5478323 127.87029183 26.0062098 125.81542969 25.42480469 C119.39479643 23.61201395 113.01353337 22.20678629 106.43066406 21.12939453 C104.90892578 20.87838989 104.90892578 20.87838989 103.35644531 20.62231445 C77.66264628 16.54649189 51.79306339 14.88478261 25.80566406 14.81689453 C24.76928802 14.81361145 23.73291199 14.81032837 22.66513062 14.8069458 C-5.85765961 14.7780111 -35.02490563 16.85301785 -62.88183594 23.31689453 C-63.80617432 23.53047607 -64.7305127 23.74405762 -65.68286133 23.96411133 C-84.55442388 28.39496259 -102.98805823 33.63746352 -121.21435547 40.24462891 C-125.02019617 41.60241259 -128.85427529 42.87220047 -132.69433594 44.12939453 C-131.09549389 33.53241818 -122.21742884 25.65184883 -114.06933594 19.44189453 C-89.42437793 2.97771378 -45.28790446 2.22937199 -16.20605469 1.30517578 C-12.79741372 1.20923871 -12.79741372 1.20923871 -9.89324951 0.62649536 C-6.54189875 0.10570628 -3.39061835 0.00234204 0 0 Z " fill="#50637A" transform="translate(695.6943359375,894.87060546875)"/>
<path d="M0 0 C2.43710252 0.01780486 4.87413401 0.02800177 7.31128693 0.036129 C26.40236482 0.10466499 45.47218993 0.33256485 64.518013 1.76748276 C65.72656952 1.85535553 65.72656952 1.85535553 66.95954132 1.94500351 C75.0219893 2.56083515 80.77773423 3.26950906 87.455513 8.14248276 C89.4456957 10.86977017 89.58336949 12.91887553 89.57660675 16.25967026 C88.9778374 19.29127722 87.59727813 21.7470408 86.143013 24.45498276 C78.66556773 24.56283053 71.22877863 24.48751721 63.76041412 24.10325241 C47.20653954 23.27199162 30.65258627 23.26749807 14.08246613 23.26968002 C10.71685138 23.26976112 7.35137324 23.26282587 3.98578644 23.24917221 C-27.14478744 23.12500434 -58.47500875 23.74919872 -89.24370575 29.03701401 C-91.92502005 29.46586398 -94.45606851 29.58821772 -97.169487 29.57998276 C-98.46306122 29.58384995 -98.46306122 29.58384995 -99.78276825 29.58779526 C-101.856987 29.45498276 -101.856987 29.45498276 -102.856987 28.45498276 C-103.3582088 23.55779924 -103.5907422 19.02255068 -101.481987 14.51748276 C-77.66906547 -4.19266987 -28.71925244 -0.2306851 0 0 Z " fill="#829CCD" transform="translate(702.8569869995117,939.5450172424316)"/>
<path d="M0 0 C12.67539194 -0.23328942 25.05995345 0.21644443 37.671875 1.4921875 C43.47451469 2.07245147 49.27925706 2.40133121 55.10424805 2.65795898 C59.46876014 2.86242355 63.69055031 3.320152 68 4 C68.14695312 5.16273438 68.29390625 6.32546875 68.4453125 7.5234375 C69.9508038 18.5517126 72.50295715 28.67537835 76.32080078 39.12353516 C77.26502301 41.73219513 78.13517211 44.36413702 79 47 C77.4792733 47.02753831 75.95839326 47.04663375 74.4375 47.0625 C73.59058594 47.07410156 72.74367188 47.08570313 71.87109375 47.09765625 C69 47 69 47 65.7265625 46.53125 C58.20470436 45.45895156 50.58571342 45.30461576 43 45 C42.31292969 44.96986816 41.62585938 44.93973633 40.91796875 44.90869141 C29.69539601 44.46013135 19.98867783 45.82500217 11 53 C9.14177499 54.91700098 7.59934919 56.85087452 6 59 C3.20378555 58.65047319 2.15790642 58.17141157 0.21875 56.06640625 C-7.4519153 44.89164157 -11.24814932 34.64394071 -9 21 C-7.06197117 15.4695275 -4.23292811 10.84939216 -1 6 C-0.60986284 4.0103005 -0.26797351 2.00980131 0 0 Z " fill="#FCFCFC" transform="translate(888,970)"/>
<path d="M0 0 C6.88924398 -0.23058699 13.19758278 0.34947263 19.9375 1.75 C20.83557373 1.92974365 21.73364746 2.1094873 22.65893555 2.29467773 C24.5186591 2.66896889 26.37747334 3.04780645 28.23535156 3.43115234 C30.92269182 3.98409325 33.61305521 4.51918136 36.3046875 5.05078125 C37.97415078 5.38706683 39.64343016 5.72426707 41.3125 6.0625 C42.06974365 6.21235352 42.8269873 6.36220703 43.60717773 6.51660156 C48.63169626 7.56120931 53.23173388 9.09808142 58 11 C58.05607422 12.77503906 58.05607422 12.77503906 58.11328125 14.5859375 C58.67417107 29.22020365 61.76622645 39.23888154 69 52 C69.33 52.66 69.66 53.32 70 54 C63.67012278 53.13683492 63.67012278 53.13683492 60.6015625 52.51025391 C51.30444395 50.69045617 42.18044626 50.69295382 32.75 50.75 C31.90482819 50.75177246 31.05965637 50.75354492 30.18887329 50.75537109 C15.61114787 50.79099126 1.13965723 51.47659015 -13.39453125 52.5625 C-18.94209776 52.96936922 -24.43945458 53.11576096 -30 53 C-29.21625 52.113125 -28.4325 51.22625 -27.625 50.3125 C-26.41045049 48.88024822 -25.20313567 47.44185306 -24 46 C-23.2265625 45.07703125 -22.453125 44.1540625 -21.65625 43.203125 C-11.08062371 30.24085385 -5.1587991 15.7890518 0 0 Z " fill="#FAFAFA" transform="translate(809,979)"/>
<path d="M0 0 C0.4021875 1.0209375 0.4021875 1.0209375 0.8125 2.0625 C7.78967567 19.3218293 15.88901386 35.13084184 28.83984375 48.6640625 C31 51 31 51 31 52 C22.25853951 51.37296273 13.61262108 50.36093351 4.9375 49.125 C3.74833984 48.96386719 2.55917969 48.80273438 1.33398438 48.63671875 C-5.97834876 47.6007045 -12.92130763 46.08364468 -20 44 C-33.47970133 40.30826198 -47.01838423 37.00848867 -60.6875 34.0925293 C-67.23084727 32.68213802 -73.62392682 31.04073673 -80 29 C-72.7821462 16.97024367 -62.35647902 10.18725939 -48.9765625 6.55859375 C-33.04942238 2.60059133 -16.4467347 -0.37578723 0 0 Z " fill="#F8F8F8" transform="translate(634,978)"/>
<path d="M0 0 C9.3310618 -0.29944758 18.40246653 0.53008771 27.65914917 1.53814697 C44.7348734 3.39104515 61.81866953 4.81829177 78.95581055 5.96020508 C89.35087163 6.66360284 99.6647391 7.68067543 110 9 C110 9.66 110 10.32 110 11 C106.81466636 12.23482881 103.6263208 13.4617076 100.4375 14.6875 C99.12362305 15.19700195 99.12362305 15.19700195 97.78320312 15.71679688 C84.79446339 20.6981415 71.95431977 24.71343061 58.36645508 27.63037109 C56.06599131 28.12425046 53.76824035 28.62941627 51.47070312 29.13671875 C24.70399758 35.00903445 24.70399758 35.00903445 12.3125 36.1875 C11.09288574 36.30810791 11.09288574 36.30810791 9.84863281 36.43115234 C0.24339752 37.28922003 -9.36699035 37.17409054 -19 37 C-17.06359348 33.69274061 -14.99246972 30.51274037 -12.83984375 27.34301758 C-7.05076851 18.71214418 -3.28740638 9.86221913 0 0 Z " fill="#F9F9F9" transform="translate(1130,993)"/>
<path d="M0 0 C-29.61788837 12.76919039 -58.59261974 20.72324571 -90.36956787 26.04431152 C-94.15124755 26.67847065 -97.9209107 27.35636719 -101.6875 28.07421875 C-107.82100059 29.19962118 -113.99030589 29.8905151 -120.1875 30.5625 C-121.29158203 30.68818359 -122.39566406 30.81386719 -123.53320312 30.94335938 C-138.3662034 32.57815629 -153.05784528 33.16628414 -167.96728516 33.13037109 C-170.65663098 33.12493608 -173.34581496 33.13039318 -176.03515625 33.13671875 C-177.76562536 33.13605905 -179.49609438 33.13478014 -181.2265625 33.1328125 C-182.02035309 33.13483673 -182.81414368 33.13686096 -183.63198853 33.13894653 C-187.87284219 33.12109259 -191.81732621 32.78787846 -196 32 C-198.35348589 31.89925625 -200.70784576 31.81818027 -203.0625 31.75 C-234.20132427 30.22773454 -265.7548484 21.19861331 -296 14 C-292.90324565 10.90324565 -289.67751853 11.7074836 -285.44458008 11.67114258 C-284.28724365 11.67654053 -283.12990723 11.68193848 -281.9375 11.6875 C-280.75244873 11.69096436 -279.56739746 11.69442871 -278.34643555 11.69799805 C-269.68082243 11.80470435 -261.68304642 12.80902169 -253.23339844 14.56787109 C-239.58886282 17.2078829 -225.76514121 18.32464212 -211.89233398 18.70947266 C-210.47416382 18.74886963 -210.47416382 18.74886963 -209.02734375 18.7890625 C-207.78585571 18.81540771 -207.78585571 18.81540771 -206.51928711 18.84228516 C-204 19 -204 19 -201.44287109 19.50268555 C-196.26406914 20.25075104 -191.11273798 20.16237113 -185.88671875 20.16796875 C-184.69707016 20.17220352 -183.50742157 20.17643829 -182.28172302 20.18080139 C-178.41694632 20.19070894 -174.55228719 20.19071763 -170.6875 20.1875 C-169.37046082 20.18689575 -168.05342163 20.1862915 -166.69647217 20.18566895 C-146.7117418 20.16634544 -126.90902355 19.82493028 -107 18 C-105.61185657 17.88006811 -104.2236716 17.7606161 -102.83544922 17.64160156 C-71.67084052 14.92133055 -40.40739514 9.86530634 -10.37060547 0.99487305 C-9.42459473 0.71683838 -8.47858398 0.43880371 -7.50390625 0.15234375 C-6.29456421 -0.2190271 -6.29456421 -0.2190271 -5.06079102 -0.59790039 C-3 -1 -3 -1 0 0 Z " fill="#06080A" transform="translate(1219,1043)"/>
<path d="M0 0 C5.94 0.33 11.88 0.66 18 1 C16.28530213 11.85975317 16.28530213 11.85975317 10.36816406 16.19580078 C8.42859284 17.55226327 6.46802814 18.87269267 4.5 20.1875 C-8.9489578 29.22864629 -8.9489578 29.22864629 -21 40 C-21.33 40.33 -21.66 40.66 -22 41 C-22.10610194 42.37343068 -22.18469952 43.74902569 -22.25 45.125 C-22.67316822 49.65074823 -24.12961861 51.8984689 -26.9140625 55.375 C-28.64001821 57.9577251 -28.46539249 60.00819112 -28 63 C-27.36351155 64.34800025 -26.70136532 65.68458793 -26 67 C-32.43250895 66.47582002 -38.58363935 65.53409971 -44.875 64.125 C-62.93306155 60.30502544 -81.57823093 58.82955171 -100 58 C-100 57.67 -100 57.34 -100 57 C-95.545 56.505 -95.545 56.505 -91 56 C-88.73352693 51.46705387 -88.6051783 47.9747534 -89 43 C-90.4423486 40.78244308 -90.4423486 40.78244308 -92 39 C-89.37461716 39.14053872 -86.74982573 39.28718947 -84.125 39.4375 C-83.37863281 39.47681641 -82.63226562 39.51613281 -81.86328125 39.55664062 C-76.2265625 39.88671875 -76.2265625 39.88671875 -74 41 C-71.0829294 41.37189745 -68.17479843 41.70381788 -65.25 42 C-56.67918493 42.8847293 -56.67918493 42.8847293 -52.80078125 43.54296875 C-49.82128245 44.02916312 -46.95514727 44.23851897 -43.9375 44.3125 C-42.93589844 44.34988281 -41.93429687 44.38726563 -40.90234375 44.42578125 C-35.30479488 43.60460652 -32.08893078 39.24110795 -28.625 35.0625 C-27.91601562 34.22847656 -27.20703125 33.39445313 -26.4765625 32.53515625 C-24.77511445 30.11032057 -24.77511445 30.11032057 -25.0234375 27.37109375 C-26.25062037 24.39149374 -27.1934326 23.5801296 -30 22 C-33.62731744 20.64027415 -37.29273011 19.46618765 -40.98046875 18.28125 C-41.97691406 17.8584375 -42.97335937 17.435625 -44 17 C-44.495 15.515 -44.495 15.515 -45 14 C-43.12508307 13.97269538 -41.25004775 13.95346756 -39.375 13.9375 C-38.33085938 13.92589844 -37.28671875 13.91429687 -36.2109375 13.90234375 C-33 14 -33 14 -30.046875 14.49609375 C-26.61204961 15.06416103 -23.35510232 15.13251642 -19.875 15.125 C-18.07675781 15.12886719 -18.07675781 15.12886719 -16.2421875 15.1328125 C-12.52589935 14.99487581 -12.52589935 14.99487581 -9 14 C-8.71125 13.21625 -8.4225 12.4325 -8.125 11.625 C-7 9 -7 9 -3.9375 7.5625 C-2.968125 7.046875 -1.99875 6.53125 -1 6 C-0.67 4.02 -0.34 2.04 0 0 Z " fill="#647C9F" transform="translate(880,907)"/>
<path d="M0 0 C5.41208195 0.53686985 10.69613733 1.26477741 16.0324707 2.30664062 C57.39468448 10.37731648 100.01625612 13.07308902 142 16 C142.75514893 16.05327454 143.51029785 16.10654907 144.28833008 16.16143799 C160.14645207 17.27749072 175.97372551 18.17237222 191.875 18.25 C193.63203247 18.26389771 193.63203247 18.26389771 195.42456055 18.27807617 C196.49875244 18.27396729 197.57294434 18.2698584 198.6796875 18.265625 C199.61538574 18.26336914 200.55108398 18.26111328 201.51513672 18.25878906 C204.15276794 17.9840898 205.77539923 17.42530165 208 16 C208.33 15.34 208.66 14.68 209 14 C203.06 14 197.12 14 191 14 C191 13.67 191 13.34 191 13 C200.57 12.67 210.14 12.34 220 12 C220 12.66 220 13.32 220 14 C231.22 14 242.44 14 254 14 C250.4999028 15.7500486 248.04948643 16.54094438 244.28515625 17.296875 C243.13829346 17.53051758 241.99143066 17.76416016 240.80981445 18.00488281 C239.57320068 18.25077148 238.33658691 18.49666016 237.0625 18.75 C235.10404455 19.14521008 233.1455916 19.54043313 231.18730164 19.9364624 C229.83451005 20.20984136 228.48157195 20.4824962 227.12849426 20.75445557 C222.49981046 21.68706819 217.88132831 22.66093738 213.265625 23.65625 C200.21856475 26.45901465 187.3309141 29.11696937 174 30 C172.63681641 30.09039551 172.63681641 30.09039551 171.24609375 30.18261719 C166.5516865 30.47797104 161.85534124 30.74061841 157.15625 30.94921875 C156.02413086 31.00082153 156.02413086 31.00082153 154.86914062 31.0534668 C153 31 153 31 151 30 C151 29.34 151 28.68 151 28 C149.7934375 27.5359375 149.7934375 27.5359375 148.5625 27.0625 C146 26 146 26 145 25 C143.47336818 24.87720033 141.94140529 24.82006002 140.41015625 24.7890625 C139.4159668 24.76295898 138.42177734 24.73685547 137.39746094 24.70996094 C136.29692383 24.68192383 135.19638672 24.65388672 134.0625 24.625 C90.06946753 23.15897624 40.64403474 19.04097461 0 1 C0 0.67 0 0.34 0 0 Z " fill="#61799B" transform="translate(595,1066)"/>
<path d="M0 0 C3.33365111 0.33033145 6.66692342 0.66393213 10 1 C10.64531677 1.06505737 11.29063354 1.13011475 11.95550537 1.19714355 C16.55085457 1.66185532 21.14502644 2.13697366 25.73852539 2.61962891 C27.36195234 2.78891458 28.98565146 2.95561161 30.60961914 3.11962891 C63.06272054 6.40343659 63.06272054 6.40343659 74.625 14.9375 C76.58844467 17.882667 76.63692771 19.53228248 76 23 C73.26634721 26.41706599 71.30273169 28.31415581 67 29 C64.38102981 29.08316178 61.78998247 29.11634452 59.171875 29.09765625 C58.42286926 29.0962413 57.67386353 29.09482635 56.90216064 29.09336853 C54.51806588 29.08778659 52.13406622 29.07523745 49.75 29.0625 C48.13020969 29.05748266 46.51041791 29.05292016 44.890625 29.04882812 C40.92704688 29.03782308 36.96353955 29.02057091 33 29 C33 28.67 33 28.34 33 28 C39.27 27.67 45.54 27.34 52 27 C46.67114193 25.90039437 41.34512798 24.88396454 35.97753906 23.98999023 C20.57522056 21.39341083 2.78794009 18.38423273 -10 9 C-10 8.67 -10 8.34 -10 8 C-8.081875 7.690625 -8.081875 7.690625 -6.125 7.375 C-3.92186032 6.91516467 -3.92186032 6.91516467 -2 6 C-0.38852558 3.00571856 -0.38852558 3.00571856 0 0 Z " fill="#51647A" transform="translate(1224,964)"/>
<path d="M0 0 C9.3310618 -0.29944758 18.40246653 0.53008771 27.65914917 1.53814697 C44.7348734 3.39104515 61.81866953 4.81829177 78.95581055 5.96020508 C89.35087163 6.66360284 99.6647391 7.68067543 110 9 C110 9.66 110 10.32 110 11 C106.64771374 12.29658377 103.29284986 13.5863673 99.9375 14.875 C98.99455078 15.23980469 98.05160156 15.60460937 97.08007812 15.98046875 C94.39462537 17.00973636 91.69950311 18.0082867 89 19 C87.84628906 19.43957031 86.69257812 19.87914062 85.50390625 20.33203125 C80.48801173 21.28823857 76.01628213 20.55825124 71 19.8125 C69.95054199 19.6688501 68.90108398 19.5252002 67.81982422 19.37719727 C65.63008095 19.07707767 63.44111109 18.77126388 61.25292969 18.45996094 C56.21524158 17.74763698 51.17025476 17.09364763 46.125 16.4375 C45.17866699 16.3122998 44.23233398 16.18709961 43.25732422 16.05810547 C37.22081366 15.26473551 31.17991756 14.57322189 25.125 13.9375 C20.02089011 13.39534786 15.02041425 12.75660476 10.03515625 11.5078125 C6.05855661 10.51557075 2.02010467 9.7926967 -2 9 C-1.34 6.03 -0.68 3.06 0 0 Z " fill="#8C8C8C" transform="translate(1130,993)"/>
<path d="M0 0 C4 8.625 4 8.625 4 12 C3.14470703 12.16081055 2.28941406 12.32162109 1.40820312 12.48730469 C-27.47326243 17.40639614 -27.47326243 17.40639614 -55 27 C-55.81855469 27.37511719 -56.63710938 27.75023437 -57.48046875 28.13671875 C-61.42278714 29.80126342 -61.42278714 29.80126342 -64 33 C-69.28 31.68 -74.56 30.36 -80 29 C-69.3662494 13.0493741 -56.01859415 7.73682212 -37.828125 4.06640625 C-25.28030742 1.69941234 -12.7936489 -0.29231881 0 0 Z " fill="#8C8C8C" transform="translate(634,978)"/>
<path d="M0 0 C12.67539194 -0.23328942 25.05995345 0.21644443 37.671875 1.4921875 C43.47451469 2.07245147 49.27925706 2.40133121 55.10424805 2.65795898 C59.49932634 2.86385549 63.60814187 3.3725917 68 4 C68.99 11.92 68.99 11.92 70 20 C68.25203125 19.80083984 68.25203125 19.80083984 66.46875 19.59765625 C48.31624557 17.60911311 30.1936314 16.9290808 11.9375 16.875 C10.30530518 16.86799072 10.30530518 16.86799072 8.64013672 16.86083984 C3.31894191 16.87169091 -1.75865661 17.06324927 -7 18 C-6.01428315 14.54999104 -4.98273352 11.97488511 -2.9375 9 C-0.88639528 5.82409591 -0.49708465 3.68970049 0 0 Z " fill="#8D8D8D" transform="translate(888,970)"/>
<path d="M0 0 C6.88924398 -0.23058699 13.19758278 0.34947263 19.9375 1.75 C20.83557373 1.92974365 21.73364746 2.1094873 22.65893555 2.29467773 C24.5186591 2.66896889 26.37747334 3.04780645 28.23535156 3.43115234 C30.92269182 3.98409325 33.61305521 4.51918136 36.3046875 5.05078125 C37.97415078 5.38706683 39.64343016 5.72426707 41.3125 6.0625 C42.06974365 6.21235352 42.8269873 6.36220703 43.60717773 6.51660156 C48.63169626 7.56120931 53.23173388 9.09808142 58 11 C58 14.63 58 18.26 58 22 C43.97819461 22.39498043 30.261371 20.08932814 16.4375 18 C15.33140381 17.8340332 14.22530762 17.66806641 13.08569336 17.49707031 C7.29292528 16.6013404 1.65765558 15.53613921 -4 14 C-3.52188823 12.22888156 -3.0424722 10.45811517 -2.5625 8.6875 C-2.29566406 7.70136719 -2.02882813 6.71523438 -1.75390625 5.69921875 C-1.21920575 3.78482474 -0.62855462 1.88566385 0 0 Z " fill="#8D8D8D" transform="translate(809,979)"/>
<path d="M0 0 C-0.32742188 0.54140625 -0.65484375 1.0828125 -0.9921875 1.640625 C-2.21664767 4.50719067 -2.19892146 6.6452987 -2.125 9.75 C-2.10695313 10.73484375 -2.08890625 11.7196875 -2.0703125 12.734375 C-2.04710937 13.48203125 -2.02390625 14.2296875 -2 15 C-0.68 15.66 0.64 16.32 2 17 C1.27522461 17.12528076 0.55044922 17.25056152 -0.19628906 17.37963867 C-3.55022582 17.96788482 -6.89994129 18.57757083 -10.25 19.1875 C-11.95929687 19.48237305 -11.95929687 19.48237305 -13.703125 19.78320312 C-24.19297673 21.72024961 -33.64096586 25.023869 -42.4765625 31.08203125 C-44 32 -44 32 -46 32 C-43.23333123 22.56817466 -39.22452788 15.67353025 -31 10 C-27.43869798 8.31337677 -23.75119724 7.19092707 -20 6 C-18.53826965 5.4811247 -17.07877262 4.9559317 -15.62109375 4.42578125 C-14.4772522 4.01114624 -14.4772522 4.01114624 -13.31030273 3.58813477 C-11.78981383 3.03652973 -10.26978083 2.48366613 -8.75024414 1.92944336 C-5.70918057 0.84542036 -3.25406673 0 0 0 Z " fill="#647C9E" transform="translate(603,953)"/>
<path d="M0 0 C3.73738736 1.66106105 5.85257708 3.54597609 8 7 C8.742137 11.88209732 8.63802498 16.51127506 6.6875 21.0625 C4.50677102 23.56629994 2.78532738 24.87356959 -0.5234375 25.40625 C-8.07637941 25.6545659 -8.07637941 25.6545659 -10.796875 23.7265625 C-14.49180061 19.27091691 -15.34309048 15.91611429 -15.2890625 10.32421875 C-14.84891575 6.78520095 -13.27904971 4.66974395 -11 2 C-7.29017554 -0.4732163 -4.30111858 -0.54710902 0 0 Z " fill="#F8F8F8" transform="translate(769,979)"/>
<path d="M0 0 C3.80285865 2.0090574 7.09334467 4.08076405 9 8 C9.6636341 11.8564515 9.90051649 15.39241131 7.9453125 18.8828125 C5.64035137 21.70604891 3.71938483 23.75928612 0.046875 24.2734375 C-4.19110486 24.46083117 -7.07093956 24.4555608 -10.4375 21.6875 C-14.55151486 17.37280149 -15.44590178 14.97919973 -15.32421875 9.22265625 C-14.84282807 5.92252016 -13.38646587 4.25009639 -11 2 C-7.29211504 -0.47192331 -4.30054275 -0.66788732 0 0 Z " fill="#F7F7F7" transform="translate(1083,994)"/>
<path d="M0 0 C27.93986403 3.24102423 58.6671185 16.83508046 80 35 C80.92554688 35.77472656 81.85109375 36.54945313 82.8046875 37.34765625 C87.93444929 41.78482409 92.22085982 46.36201445 96 52 C91.48901894 50.52428872 88.23212282 47.9780627 84.625 45 C62.16526403 26.99484259 36.62474757 15.54345917 10 5 C6.66666667 3.66666667 3.33333333 2.33333333 0 1 C0 0.67 0 0.34 0 0 Z " fill="#51647B" transform="translate(1118,920)"/>
<path d="M0 0 C0.33 0.66 0.66 1.32 1 2 C12.22 2 23.44 2 35 2 C31.45415822 3.77292089 28.93088578 4.56471305 25.109375 5.33203125 C23.93528076 5.57099121 22.76118652 5.80995117 21.55151367 6.05615234 C20.29701416 6.30574707 19.04251465 6.5553418 17.75 6.8125 C15.79794642 7.20818488 13.84589397 7.60387571 11.89396667 8.00018311 C9.90245048 8.40390587 7.91047663 8.80531232 5.91845703 9.20654297 C0.00290727 10.40439572 -5.90484511 11.63890213 -11.8125 12.875 C-13.79815477 13.28916947 -15.78382957 13.70324297 -17.76953125 14.1171875 C-19.17969404 14.41142698 -20.58985309 14.70568442 -22 15 C-22 14.01 -22 13.02 -22 12 C-21.195625 11.71125 -20.39125 11.4225 -19.5625 11.125 C-16.8673532 10.26737432 -16.8673532 10.26737432 -16 8 C-19.3 8 -22.6 8 -26 8 C-26 7.67 -26 7.34 -26 7 C-25.25234375 6.95101563 -24.5046875 6.90203125 -23.734375 6.8515625 C-22.74953125 6.77679687 -21.7646875 6.70203125 -20.75 6.625 C-19.77546875 6.55539062 -18.8009375 6.48578125 -17.796875 6.4140625 C-15.07360292 6.01089652 -13.30876887 5.47210492 -11 4 C-10.67 3.34 -10.34 2.68 -10 2 C-15.94 2 -21.88 2 -28 2 C-28 1.67 -28 1.34 -28 1 C-18.76 0.67 -9.52 0.34 0 0 Z " fill="#4F627D" transform="translate(814,1078)"/>
<path d="M0 0 C0 0.33 0 0.66 0 1 C-0.91942383 1.14248169 -0.91942383 1.14248169 -1.85742188 1.2878418 C-13.84304147 3.1760027 -25.41320104 5.28327553 -36.88916016 9.28173828 C-39.24108391 10.08203433 -41.60780413 10.82212515 -43.98046875 11.55859375 C-56.97781881 15.64735096 -69.2122107 20.80096788 -81.24755859 27.19384766 C-83.13698344 28.1846799 -85.06593591 29.09940527 -87 30 C-87.66 29.67 -88.32 29.34 -89 29 C-76.69800063 21.85633178 -64.59444273 15.56116838 -51.16064453 10.77490234 C-49.73394413 10.26322471 -48.31032326 9.74286757 -46.89013672 9.21337891 C-32.01660916 3.66889082 -15.9738701 -0.4886125 0 0 Z " fill="#50637A" transform="translate(1003,911)"/>
<path d="M0 0 C0.33 0.66 0.66 1.32 1 2 C1.99 2.33 2.98 2.66 4 3 C0.83648952 5.10900699 -1.88040844 6.0584157 -5.5 7.1875 C-6.6446875 7.55230469 -7.789375 7.91710938 -8.96875 8.29296875 C-12 9 -12 9 -15 8 C-13.35 6.02 -11.7 4.04 -10 2 C-15.94 2 -21.88 2 -28 2 C-28 1.67 -28 1.34 -28 1 C-18.76 0.67 -9.52 0.34 0 0 Z " fill="#5A6F8E" transform="translate(814,1078)"/>
<path d="M0 0 C-4.61993094 2.53720246 -9.42797203 3.22715952 -14.5625 4.1875 C-16.00012695 4.47270508 -16.00012695 4.47270508 -17.46679688 4.76367188 C-18.38654297 4.93833984 -19.30628906 5.11300781 -20.25390625 5.29296875 C-21.51182983 5.53309692 -21.51182983 5.53309692 -22.79516602 5.77807617 C-25 6 -25 6 -28 5 C-19.81772849 -1.87998806 -10.02262508 -0.45881804 0 0 Z " fill="#38424D" transform="translate(849,1080)"/>
<path d="M0 0 C0.33 0 0.66 0 1 0 C1.18175781 0.845625 1.36351562 1.69125 1.55078125 2.5625 C3.16324395 10.0455403 3.16324395 10.0455403 5.6875 17.25 C7.23965487 21.68472821 7.28988839 25.36178579 7 30 C4.88001005 26.82001508 4.01915157 24.15211631 2.9375 20.5 C2.59589844 19.3553125 2.25429688 18.210625 1.90234375 17.03125 C1.60457031 16.0309375 1.30679688 15.030625 1 14 C0.67 13.01 0.34 12.02 0 11 C-0.0685495 9.10529184 -0.08480372 7.2083166 -0.0625 5.3125 C-0.05347656 4.31863281 -0.04445313 3.32476563 -0.03515625 2.30078125 C-0.02355469 1.54152344 -0.01195312 0.78226563 0 0 Z " fill="#0D43A1" transform="translate(531,989)"/>
<path d="M0 0 C15.74487472 0.96355353 15.74487472 0.96355353 23 2 C23 2.33 23 2.66 23 3 C20.69 3 18.38 3 16 3 C16.33 3.99 16.66 4.98 17 6 C15.10307857 5.54619105 13.20750405 5.08675008 11.3125 4.625 C10.25675781 4.36976563 9.20101562 4.11453125 8.11328125 3.8515625 C5.29593234 3.08094511 2.68331675 2.14501457 0 1 C0 0.67 0 0.34 0 0 Z " fill="#576C88" transform="translate(819,918)"/>
<path d="M0 0 C0.391875 0.45375 0.78375 0.9075 1.1875 1.375 C3.30832487 3.27642919 5.33042235 4.06204028 8 5 C6.55746343 8.36591866 4.66735273 10.51047079 2 13 C0.54815522 8.46298506 -0.23509196 4.81938524 0 0 Z " fill="#4A5B70" transform="translate(543,986)"/>
<path d="M0 0 C-1.2491742 3.45925163 -2.67527795 6.14693203 -5 9 C-6.65 8.67 -8.3 8.34 -10 8 C-9.9375 6.25 -9.9375 6.25 -9 4 C-6.29950956 1.99159505 -3.44873267 0 0 0 Z " fill="#323D4B" transform="translate(877,971)"/>
<path d="M0 0 C1.85772162 0.08984301 3.71247985 0.24611861 5.5625 0.4375 C7.08037109 0.59025391 7.08037109 0.59025391 8.62890625 0.74609375 C9.80259766 0.87177734 9.80259766 0.87177734 11 1 C11 1.33 11 1.66 11 2 C6.9247366 2.76776475 3.08994553 3.11902034 -1.0546875 3.09765625 C-2.16328125 3.09443359 -3.271875 3.09121094 -4.4140625 3.08789062 C-5.55617188 3.07951172 -6.69828125 3.07113281 -7.875 3.0625 C-9.0403125 3.05798828 -10.205625 3.05347656 -11.40625 3.04882812 C-14.27088645 3.03708781 -17.13541633 3.0206657 -20 3 C-20 2.67 -20 2.34 -20 2 C-19.42967041 1.97494385 -18.85934082 1.9498877 -18.27172852 1.92407227 C-15.70173843 1.80843451 -13.13214473 1.68556376 -10.5625 1.5625 C-9.66466797 1.52318359 -8.76683594 1.48386719 -7.84179688 1.44335938 C-6.98779297 1.40146484 -6.13378906 1.35957031 -5.25390625 1.31640625 C-4.46314697 1.27974854 -3.6723877 1.24309082 -2.85766602 1.20532227 C-0.98598559 1.19436743 -0.98598559 1.19436743 0 0 Z " fill="#566C89" transform="translate(1277,990)"/>
<path d="M0 0 C-2.41540306 0.98238408 -4.83221822 1.96100218 -7.25 2.9375 C-7.93191406 3.21529297 -8.61382813 3.49308594 -9.31640625 3.77929688 C-12.51923638 5.06975756 -15.63837534 6.21800044 -19 7 C-18.43359375 4.6171875 -18.43359375 4.6171875 -17 2 C-13.84765625 0.8203125 -13.84765625 0.8203125 -10.0625 0.125 C-8.81597656 -0.11992188 -7.56945312 -0.36484375 -6.28515625 -0.6171875 C-3 -1 -3 -1 0 0 Z " fill="#2C3745" transform="translate(929,905)"/>
<path d="M0 0 C-1.66736408 2.04470249 -2.52497566 2.92566921 -5.17651367 3.34057617 C-5.99869385 3.32486572 -6.82087402 3.30915527 -7.66796875 3.29296875 C-8.56064453 3.28330078 -9.45332031 3.27363281 -10.37304688 3.26367188 C-11.76620117 3.2259668 -11.76620117 3.2259668 -13.1875 3.1875 C-14.12787109 3.17396484 -15.06824219 3.16042969 -16.03710938 3.14648438 C-18.35865038 3.11113096 -20.67903653 3.06178674 -23 3 C-23 2.67 -23 2.34 -23 2 C-19.54315232 1.46896481 -16.08435738 0.95191093 -12.625 0.4375 C-11.64015625 0.28603516 -10.6553125 0.13457031 -9.640625 -0.02148438 C-8.22910156 -0.2293457 -8.22910156 -0.2293457 -6.7890625 -0.44140625 C-5.91975098 -0.57232666 -5.05043945 -0.70324707 -4.15478516 -0.83813477 C-2 -1 -2 -1 0 0 Z " fill="#171B24" transform="translate(880,1075)"/>
<path d="M0 0 C6.14154225 0.58490879 12.00679849 1.54066252 18 3 C17.67 3.99 17.34 4.98 17 6 C10.81839396 5.46246904 5.673142 3.45417612 0 1 C0 0.67 0 0.34 0 0 Z " fill="#4C5F79" transform="translate(595,1066)"/>
<path d="M0 0 C-3.37212381 2.24808254 -6.2874961 3.05160443 -10.1875 4.125 C-11.16879883 4.39763672 -11.16879883 4.39763672 -12.16992188 4.67578125 C-13.77862343 5.12199044 -15.38914131 5.56164215 -17 6 C-16.67 4.68 -16.34 3.36 -16 2 C-14.27192682 1.66104344 -12.54248026 1.32908475 -10.8125 1 C-9.84957031 0.814375 -8.88664063 0.62875 -7.89453125 0.4375 C-5.2065794 0.03122388 -2.71228981 -0.07933572 0 0 Z " fill="#546780" transform="translate(622,946)"/>
<path d="M0 0 C5.94 0 11.88 0 18 0 C12.87984027 2.56007987 8.62902877 3.65132704 3.0625 2.0625 C2.051875 1.711875 1.04125 1.36125 0 1 C0 0.67 0 0.34 0 0 Z " fill="#243139" transform="translate(831,1080)"/>
<path d="M0 0 C-1.78953185 0.83790789 -3.58169695 1.67019396 -5.375 2.5 C-6.87160156 3.19609375 -6.87160156 3.19609375 -8.3984375 3.90625 C-11 5 -11 5 -13 5 C-13.33 4.01 -13.66 3.02 -14 2 C-12.23225581 1.46877637 -10.46065917 0.95035927 -8.6875 0.4375 C-7.70136719 0.14746094 -6.71523437 -0.14257812 -5.69921875 -0.44140625 C-3 -1 -3 -1 0 0 Z " fill="#1C212C" transform="translate(1219,1043)"/>
<path d="M0 0 C0 0.99 0 1.98 0 3 C-6.96428571 5.27678571 -6.96428571 5.27678571 -11 4 C-9.5437455 3.32880451 -8.08492133 2.66318193 -6.625 2 C-5.81289063 1.62875 -5.00078125 1.2575 -4.1640625 0.875 C-2 0 -2 0 0 0 Z " fill="#5B7190" transform="translate(608,921)"/>
<path d="M0 0 C0.33 0 0.66 0 1 0 C1.36923077 6.52307692 1.36923077 6.52307692 -0.5 8.9375 C-0.995 9.288125 -1.49 9.63875 -2 10 C-2.1953125 3.9453125 -2.1953125 3.9453125 -2 2 C-1.34 1.34 -0.68 0.68 0 0 Z " fill="#50637A" transform="translate(856,950)"/>
<path d="M0 0 C0 0.66 0 1.32 0 2 C-2.31 2 -4.62 2 -7 2 C-7 1.34 -7 0.68 -7 0 C-4.3333581 -1.33332095 -2.83319697 -0.67102033 0 0 Z " fill="#5D7493" transform="translate(621,919)"/>
<path d="M0 0 C0.66 0.33 1.32 0.66 2 1 C-0.31 3.31 -2.62 5.62 -5 8 C-5 5 -5 5 -2.5 2.3125 C-1.675 1.549375 -0.85 0.78625 0 0 Z " fill="#7993C0" transform="translate(606,951)"/>
</svg>
