<?xml version="1.0" encoding="UTF-8"?>
<svg version="1.1" xmlns="http://www.w3.org/2000/svg" width="2048" height="2048">
<path d="M0 0 C3.50055131 1.13131185 5.20988019 2.76727451 7.30859375 5.74609375 C9.44671594 11.99598938 8.43387641 18.25782362 6.203125 24.31640625 C5.71843059 25.66874346 5.23433693 27.02129609 4.75073242 28.37402344 C4.48666595 29.10117554 4.22259949 29.82832764 3.95053101 30.57751465 C-3.14764802 50.2055636 -9.2253472 70.14955083 -15.28180313 90.116539 C-16.00542023 92.50108279 -16.73060831 94.88514403 -17.45614624 97.269104 C-18.60995778 101.06189984 -19.76014052 104.85577578 -20.90700912 108.65067673 C-21.33666411 110.07182415 -21.76705891 111.49274813 -22.19821548 112.9134407 C-22.791623 114.87080233 -23.38090785 116.82941241 -23.9699707 118.78808594 C-24.47074883 120.44816681 -24.47074883 120.44816681 -24.98164368 122.14178467 C-25.77905417 124.61781512 -25.77905417 124.61781512 -25.69140625 126.74609375 C-25.16933594 125.96105469 -24.64726563 125.17601562 -24.109375 124.3671875 C-15.26914097 111.74934032 -5.54459244 106.93627 9.30859375 103.74609375 C10.07000829 103.5688999 10.83142282 103.39170605 11.61591053 103.20914268 C14.71305153 102.67654092 17.63094928 102.6160842 20.77433777 102.61074829 C22.08367216 102.60644932 23.39300655 102.60215034 24.74201775 102.5977211 C26.18763108 102.59828588 27.63324433 102.59908602 29.07885742 102.60009766 C30.60730593 102.59792404 32.13575407 102.59547417 33.66420174 102.59276962 C37.8303637 102.58739108 41.99648609 102.58980042 46.16264749 102.5947299 C48.80239866 102.59767111 51.44214712 102.59903337 54.08189964 102.60014725 C92.91918389 102.62378597 131.74208702 103.22275447 170.57128131 103.96915555 C177.83770121 104.10805557 185.10428938 104.23567296 192.37095577 104.3609184 C199.56536002 104.48523226 206.75963695 104.61561081 213.95384473 104.75081789 C218.1698944 104.83004426 222.3859503 104.90742295 226.60213661 104.97904587 C302.86802523 106.28725112 302.86802523 106.28725112 322.828125 125.10546875 C327.30859375 130.07063201 327.30859375 130.07063201 327.30859375 132.74609375 C333.30408559 132.94450626 339.29765027 133.08932478 345.2956543 133.18554688 C347.33375348 133.2256714 349.37162389 133.2801872 351.40893555 133.34960938 C354.34611463 133.44715671 357.28024156 133.49212746 360.21875 133.52734375 C361.57541527 133.58927917 361.57541527 133.58927917 362.95948792 133.65246582 C366.88470241 133.65522257 369.32489156 133.5741415 372.39837646 130.98698425 C374.15074351 128.97321006 375.71859578 126.88791604 377.30859375 124.74609375 C396.04288851 109.54185157 420.35891458 109.24366169 443.28125 109.46875 C445.56665223 109.48047385 447.852058 109.49152294 450.13746643 109.50196838 C480.54135959 109.68244537 510.94274797 110.37339936 541.33936942 111.02569544 C549.60222086 111.20272659 557.86522682 111.3720015 566.12824035 111.54126489 C592.41970091 112.08055012 618.71148346 112.62358428 645 113.29296875 C646.08513791 113.31968312 646.08513791 113.31968312 647.1921978 113.34693718 C701.12820638 114.68902186 701.12820638 114.68902186 716.30859375 129.74609375 C718.0319097 131.99251125 719.53308989 134.36269218 721.05859375 136.74609375 C726.041341 144.13987859 731.49230734 147.89596065 740.30859375 149.74609375 C745.97625715 150.73480162 752.05440409 151.70113017 757.19824219 148.61083984 C761.04616057 145.55416902 764.36840377 141.9844272 767.71240234 138.39550781 C769.93163094 136.1022823 772.36246215 134.15129032 774.87109375 132.18359375 C779.01959632 128.86357334 782.93386611 125.37559983 786.80859375 121.74609375 C790.68332139 118.11658767 794.59759118 114.62861416 798.74609375 111.30859375 C803.767816 107.28098246 808.43442136 102.95263519 813.11694336 98.54321289 C817.41003375 94.5225133 821.87114867 90.79604981 826.46484375 87.12109375 C829.8649456 84.28144825 833.08444475 81.28220004 836.30859375 78.24609375 C841.2216543 73.61988848 846.25981334 69.27338497 851.53125 65.0546875 C854.73303083 62.39329162 857.77083833 59.59137185 860.80859375 56.74609375 C865.6992696 52.16823579 870.7064581 47.8462084 875.93359375 43.65234375 C877.90402287 42.07081511 879.83084872 40.45570447 881.74609375 38.80859375 C885.95202906 35.42332874 889.08368746 34.2248214 894.60546875 34.37109375 C902.60776968 35.48123954 910.19767944 38.44981454 915.453125 44.70703125 C916.8278318 47.98372964 916.78255916 50.22097605 916.30859375 53.74609375 C914.70266804 56.43819428 912.65143166 58.60747763 910.49609375 60.87109375 C909.29344128 62.19325632 908.09163195 63.51618627 906.890625 64.83984375 C906.28557129 65.49597656 905.68051758 66.15210938 905.05712891 66.828125 C902.52038433 69.61068091 900.09916153 72.48345249 897.68359375 75.37109375 C896.7841657 76.43776276 895.88442693 77.50416986 894.984375 78.5703125 C894.54303223 79.09415527 894.10168945 79.61799805 893.64697266 80.15771484 C891.39091948 82.83518328 889.13152769 85.50982332 886.87109375 88.18359375 C886.42121094 88.71597656 885.97132813 89.24835938 885.5078125 89.796875 C882.0870948 93.83954137 878.63753838 97.85681336 875.18359375 101.87109375 C871.69044269 105.9323812 868.24410979 110.02127962 864.87109375 114.18359375 C859.71672583 120.52886256 854.3349661 126.67118823 848.96826172 132.83642578 C842.84780915 139.87881766 836.74829038 146.93612176 830.87109375 154.18359375 C826.72798384 159.2891684 822.42628925 164.24409428 818.10571289 169.19897461 C814.94393537 172.83347226 811.84009169 176.50130218 808.80859375 180.24609375 C803.67997244 186.5748312 798.31584704 192.69315209 792.96826172 198.83642578 C790.32198933 201.8813129 787.68708598 204.93585014 785.05859375 207.99609375 C784.56069336 208.57576904 784.06279297 209.15544434 783.54980469 209.75268555 C780.55873878 213.24838218 777.63473739 216.78979133 774.74609375 220.37109375 C771.42360878 224.4379606 768.04235267 228.44198954 764.55859375 232.37109375 C764.11056396 232.89268066 763.66253418 233.41426758 763.20092773 233.95166016 C761.11286957 236.26896639 759.59092807 237.65225431 756.60546875 238.64453125 C754.30859375 238.74609375 754.30859375 238.74609375 752.30859375 237.74609375 C750.86010793 237.66267216 749.40788506 237.63876514 747.95703125 237.6484375 C747.10625 237.65166016 746.25546875 237.65488281 745.37890625 237.65820312 C744.48945312 237.66658203 743.6 237.67496094 742.68359375 237.68359375 C741.3378125 237.69036133 741.3378125 237.69036133 739.96484375 237.69726562 C737.74602727 237.70906784 735.52734357 237.7255322 733.30859375 237.74609375 C733.3243042 238.49068848 733.34001465 239.2352832 733.35620117 240.00244141 C733.86501285 267.77024858 733.86501285 267.77024858 730.30859375 278.74609375 C730.03015625 279.6484375 729.75171875 280.55078125 729.46484375 281.48046875 C725.69255098 292.21199128 718.46507853 300.1960265 708.33203125 305.22265625 C700.82220107 308.43091306 694.43307169 309.4048352 686.30859375 308.74609375 C686.12296875 309.65875 686.12296875 309.65875 685.93359375 310.58984375 C681.81276953 328.10334668 671.46552929 344.63474249 658.30859375 356.74609375 C657.46296875 357.59171875 656.61734375 358.43734375 655.74609375 359.30859375 C654.94171875 360.11296875 654.13734375 360.91734375 653.30859375 361.74609375 C652.85742188 362.24367188 652.40625 362.74125 651.94140625 363.25390625 C633.8675845 382.58660116 606.55594703 392.24359397 581.30859375 397.74609375 C580.17212402 397.99601074 580.17212402 397.99601074 579.01269531 398.25097656 C533.92016964 407.5386908 475.74267887 401.74667206 435.65625 378.3046875 C431.28796748 375.40461308 427.25358292 372.19541302 423.30859375 368.74609375 C422.69371094 368.215 422.07882812 367.68390625 421.4453125 367.13671875 C394.65021509 342.25115702 385.60536476 297.89268962 383.89453125 263.07421875 C383.86008408 262.41143417 383.8256369 261.7486496 383.79014587 261.06578064 C383.62153564 257.79753618 383.48194581 254.53349918 383.39379883 251.26196289 C382.99775837 242.61209248 380.96042451 236.9887448 376.30859375 229.74609375 C375.50361096 228.33098574 374.70962375 226.90953397 373.9296875 225.48046875 C373.3881604 224.49796143 373.3881604 224.49796143 372.83569336 223.49560547 C369.46300025 217.30641512 366.70556651 211.39870463 364.74609375 204.62109375 C362.40697868 197.049113 359.18159318 193.61563303 352.484375 189.671875 C346.73509631 186.81661525 341.3657196 187.46438111 335.30859375 188.74609375 C335.14359375 190.02484375 334.97859375 191.30359375 334.80859375 192.62109375 C331.57659956 208.69002261 321.87963509 224.69467374 312.30859375 237.74609375 C311.22742831 240.98959007 310.98963421 243.7509524 310.73046875 247.16015625 C307.26418301 289.8837755 298.52122072 338.07957365 264.19921875 367.55859375 C228.1523443 394.83730955 171.31017648 398.16172925 127.93359375 392.62109375 C95.00141009 387.79933177 61.43907816 376.66732534 38.30859375 351.74609375 C37.44234375 350.87984375 36.57609375 350.01359375 35.68359375 349.12109375 C34.89984375 348.33734375 34.11609375 347.55359375 33.30859375 346.74609375 C32.81230469 346.3078125 32.31601562 345.86953125 31.8046875 345.41796875 C19.0090765 333.66144449 9.89036033 315.35499761 5.30859375 298.74609375 C5.30859375 297.75609375 5.30859375 296.76609375 5.30859375 295.74609375 C4.73753906 295.80410156 4.16648437 295.86210938 3.578125 295.921875 C-6.56359006 296.48619937 -16.18981099 292.79954465 -23.98828125 286.328125 C-34.4671173 276.59434381 -39.24707542 263.60910671 -39.82763672 249.41552734 C-40.32227374 226.00782873 -40.32227374 226.00782873 -38.69140625 222.74609375 C-39.43003906 222.75769531 -40.16867187 222.76929688 -40.9296875 222.78125 C-61.86878581 222.96749357 -61.86878581 222.96749357 -67.69140625 218.74609375 C-71.86795785 212.91091161 -71.14209514 206.30023274 -71.06640625 199.43359375 C-71.05988037 198.1506543 -71.05335449 196.86771484 -71.04663086 195.54589844 C-70.90192587 185.02071963 -69.84944975 174.75820988 -68.40234375 164.34375 C-67.83730753 160.20921953 -67.52899747 156.15937918 -67.42993164 151.99047852 C-67.16415817 141.27688273 -64.19695061 131.81466265 -60.69140625 121.74609375 C-60.35979492 120.78429199 -60.02818359 119.82249023 -59.68652344 118.83154297 C-48.01550126 85.33217912 -34.82086166 52.16580488 -21.03729248 19.48486328 C-20.28392997 17.69252377 -19.54712685 15.89325133 -18.81103516 14.09375 C-14.90389163 5.0306298 -10.65996292 -1.83344872 0 0 Z " fill="#270F22" transform="translate(540.69140625,757.25390625)"/>
<path d="M0 0 C15.43230512 -1.13287721 32.79032529 2.25651361 45.3125 11.75390625 C56.74431237 21.93053652 62.6580629 38.02706025 64 53 C64.84320679 70.31002005 64.75504372 87.86684347 62 105 C61.86045898 105.9295752 61.72091797 106.85915039 61.57714844 107.81689453 C57.76964819 133.16385212 52.44441928 159.16844966 35 179 C34.35675781 179.73734375 33.71351563 180.4746875 33.05078125 181.234375 C22.8486539 192.1719607 9.78129491 198.7120259 -4 204 C-5.19496094 204.46277344 -6.38992188 204.92554688 -7.62109375 205.40234375 C-47.93585226 219.43785227 -102.6191231 217.28730206 -141.21484375 198.9453125 C-151.63120785 193.73044472 -160.63704232 187.12142822 -169 179 C-169.91652344 178.17628906 -169.91652344 178.17628906 -170.8515625 177.3359375 C-186.75486339 162.59452161 -195.67256497 139.44839351 -200.1875 118.75 C-200.34250977 118.04891113 -200.49751953 117.34782227 -200.65722656 116.62548828 C-203.7649045 101.34776437 -204.30264804 86.07735944 -204.20581055 70.53808594 C-204.18735431 67.47582781 -204.18530314 64.41387098 -204.18554688 61.3515625 C-204.18063625 59.36978909 -204.17480993 57.38801769 -204.16796875 55.40625 C-204.16685593 54.50813599 -204.1657431 53.61002197 -204.16459656 52.68469238 C-204.04451959 36.45885397 -204.04451959 36.45885397 -201.35546875 32.703125 C-198.92743334 31.07568505 -196.52089292 29.48202351 -194 28 C-192.62714844 27.18015625 -192.62714844 27.18015625 -191.2265625 26.34375 C-176.96134881 18.54186369 -160.95738205 17.83732681 -145.03125 17.8671875 C-143.89694046 17.86573227 -142.76263092 17.86427704 -141.59394836 17.86277771 C-137.89593174 17.86053541 -134.19800747 17.86681495 -130.5 17.875 C-129.23143158 17.87688324 -127.96286316 17.87876648 -126.65585327 17.88070679 C-109.13218639 17.91104711 -91.60773725 17.99738807 -74.0859375 18.26446533 C-71.93023702 18.29609824 -69.77446712 18.32335086 -67.61865234 18.34588623 C-48.83369478 18.55438656 -28.13846273 18.95887484 -13.8359375 32.92578125 C-3.69147123 44.38686974 -4.50722082 62.71821968 -4.60888672 77.16259766 C-4.62494312 79.86542526 -4.60895681 82.56674908 -4.58984375 85.26953125 C-4.57123337 99.87594153 -5.80638333 114.449286 -10.75 128.3125 C-11.00676514 129.05048828 -11.26353027 129.78847656 -11.52807617 130.54882812 C-17.0293255 145.8100383 -25.11445098 158.62466249 -40 166 C-48.1005586 169.69748439 -55.15150091 170.57839219 -64 170.375 C-65.82760864 170.35022583 -65.82760864 170.35022583 -67.69213867 170.32495117 C-99.32640793 169.73169395 -131.44339816 166.97125515 -160.875 154.75 C-166.64212883 152.36486719 -171.75564412 151.0293852 -178 151 C-171.58017479 168.11953389 -155.58816163 178.41241015 -139.8125 186.25 C-116.22686465 196.51702385 -90.81383411 196.3613347 -65.54296875 196.31567383 C-62.76057856 196.31102414 -59.9786236 196.31805065 -57.19628906 196.33618164 C-28.38942383 196.52216153 3.24031659 195.27680886 26 175 C26.97453125 174.18015625 26.97453125 174.18015625 27.96875 173.34375 C49.52162428 153.78037181 51.30063563 121.25229294 52.68359375 94.17578125 C52.79218479 91.78399388 52.89799756 89.39207741 53 87 C53.04141113 86.10845215 53.08282227 85.2169043 53.12548828 84.29833984 C54.03092366 62.69983861 50.97871397 39.04640124 36.40625 22.15234375 C26.58920356 12.71459229 12.74460067 5.52308377 0 1 C0 0.67 0 0.34 0 0 Z " fill="#3C4550" transform="translate(766,918)"/>
<path d="M0 0 C3.00024947 -0.05444001 5.99949039 -0.0938836 9 -0.125 C9.83917969 -0.14175781 10.67835938 -0.15851562 11.54296875 -0.17578125 C20.72302085 -0.24694444 29.88642283 1.4071537 36.91796875 7.72265625 C49.72742549 21.46073033 49.51452471 40.92407655 49.3125 58.625 C49.3065683 59.50429169 49.3006366 60.38358337 49.29452515 61.28952026 C49.03456943 99.27193812 44.16479885 140.33149159 18 170 C17.55785156 170.58394531 17.11570312 171.16789062 16.66015625 171.76953125 C-0.95922771 194.63724235 -32.30247123 203.47868709 -59.5078125 207.52124023 C-64.744035 208.16329212 -69.96467091 208.18098471 -75.234375 208.203125 C-76.30762024 208.20882507 -77.38086548 208.21452515 -78.4866333 208.22039795 C-80.75589017 208.22981293 -83.02516049 208.23636794 -85.29443359 208.24023438 C-88.69784819 208.24985262 -92.10063527 208.28087384 -95.50390625 208.3125 C-112.37663906 208.3952985 -129.07888743 207.48018955 -145.25 202.25 C-146.47601929 201.86593994 -146.47601929 201.86593994 -147.72680664 201.47412109 C-165.10485243 195.8689538 -180.94410823 188.03342036 -194 175 C-194.69738281 174.31421875 -195.39476562 173.6284375 -196.11328125 172.921875 C-224.7528978 142.8919858 -224.07404323 94.27046506 -223.18359375 55.61083984 C-222.82583393 44.62062572 -220.66189767 34.83876105 -216.41479492 24.74121094 C-215.96303391 23.66482361 -215.51127289 22.58843628 -215.04582214 21.47943115 C-214.70070084 20.66121887 -214.35557953 19.84300659 -214 19 C-159.99161247 18.81594026 -105.98239642 19.14061471 -52 21 C-50.40019287 21.05389893 -50.40019287 21.05389893 -48.76806641 21.10888672 C-46.05298471 21.20583797 -43.3391087 21.31662112 -40.625 21.4375 C-39.91706299 21.46457031 -39.20912598 21.49164062 -38.47973633 21.51953125 C-33.41650339 21.78450859 -28.29960818 22.32755769 -24.109375 25.375 C-13.75662759 37.75069805 -14.6423735 56.37091684 -14.75 71.6875 C-14.75343414 72.48469452 -14.75686829 73.28188904 -14.76040649 74.10324097 C-14.89676609 101.0642062 -17.11563445 130.53329371 -36.79370117 151.04101562 C-52.44267632 166.50449356 -72.98203106 171.25575228 -94.37548828 171.1784668 C-126.8285965 170.79808445 -158.39198076 162.0761228 -182 139 C-182.75410156 138.27296875 -183.50820313 137.5459375 -184.28515625 136.796875 C-193.27995364 127.98164706 -193.27995364 127.98164706 -193.5625 121.875 C-193.62341744 117.96669166 -193.62341744 117.96669166 -196 115 C-199.54178598 114.74996036 -199.54178598 114.74996036 -203 115 C-205.11358993 117.11358993 -204.18519237 121.64796367 -204.1875 124.5625 C-204.20586914 125.74295898 -204.20586914 125.74295898 -204.22460938 126.94726562 C-204.26226337 142.17203033 -197.54561836 156.43616519 -188 168 C-187.39542969 168.77859375 -186.79085937 169.5571875 -186.16796875 170.359375 C-166.7032442 194.12682814 -132.85920276 198.72773992 -104.12139893 201.79827881 C-68.14456521 205.21927128 -28.14986782 198.67816209 1 176 C1.6084375 175.55527344 2.216875 175.11054687 2.84375 174.65234375 C24.06365762 158.11046122 31.16229836 127.4201563 34.359375 102.16064453 C37.51091873 74.84257578 40.58792339 44.57599828 24.8125 20.6875 C21.37739217 17.40506363 17.62900325 15.12517936 13.58203125 12.66015625 C10.62462005 10.75864375 8.3772687 8.58103459 6 6 C4.90707297 5.06996113 3.80254978 4.15339681 2.6875 3.25 C1.800625 2.5075 0.91375 1.765 0 1 C0 0.67 0 0.34 0 0 Z " fill="#3C4550" transform="translate(1169,928)"/>
<path d="M0 0 C1.04672693 -0.00380802 2.09345387 -0.00761604 3.1718998 -0.01153946 C6.64857017 -0.02039065 10.12512745 -0.01944882 13.60180664 -0.01611328 C15.41339421 -0.01583948 15.41339421 -0.01583948 17.26157951 -0.01556015 C44.01517972 0.00693973 70.73132962 0.78343996 97.46484375 1.76269531 C103.93829745 1.99974548 110.41222035 2.21940936 116.88642979 2.43470573 C121.95232172 2.60493261 127.0178849 2.7836749 132.08338737 2.96509171 C134.4758802 3.04980093 136.86846604 3.13192678 139.26114082 3.21133041 C142.55680005 3.32199493 145.85183941 3.44409828 149.14697266 3.56933594 C150.11432846 3.59954834 151.08168427 3.62976074 152.07835388 3.66088867 C159.59424976 3.96613829 164.79899215 5.18858928 170.69946289 10.10107422 C171.95823242 11.13554688 171.95823242 11.13554688 173.24243164 12.19091797 C175.51196289 14.16357422 175.51196289 14.16357422 177.05102539 15.76123047 C178.78344502 17.42416803 180.62407572 18.45874768 182.69946289 19.66357422 C193.37254264 26.70363497 198.11106323 38.05235514 200.59399414 50.14794922 C201.74460579 56.74183906 201.85451435 63.23286944 201.82446289 69.91357422 C201.82027344 71.20690674 201.81608398 72.50023926 201.81176758 73.83276367 C201.49941972 109.43151826 197.80711836 149.07202611 172.36352539 176.37451172 C146.84985397 201.02696216 109.01060822 208.86477443 74.66357422 208.70825195 C41.56147044 207.94599903 4.90063578 202.4488308 -19.94506836 178.82763672 C-32.93447949 165.15224306 -40.66033172 148.76825249 -40.67553711 129.91357422 C-40.6877832 129.09888672 -40.7000293 128.28419922 -40.71264648 127.44482422 C-40.7178495 125.34974248 -40.61094281 123.25505425 -40.48803711 121.16357422 C-38.48803711 119.16357422 -38.48803711 119.16357422 -35.05053711 118.85107422 C-31.48803711 119.16357422 -31.48803711 119.16357422 -29.76538086 120.40576172 C-28.11958624 122.6706167 -28.34275692 123.83621057 -28.48803711 126.60107422 C-27.93164741 134.39052998 -21.8237725 139.08837622 -16.48803711 144.16357422 C-15.66432617 144.98212891 -14.84061523 145.80068359 -13.99194336 146.64404297 C9.92019663 169.45677423 44.84741667 175.71428217 76.80102539 175.30810547 C95.28833987 174.85130762 113.05339273 169.232657 126.76196289 156.41357422 C149.96510318 131.73947821 149.46098119 94.87152508 148.66870117 63.22412109 C148.29871352 52.01209854 147.41782122 39.06943254 139.07446289 30.72607422 C128.5815579 24.32796142 109.164341 27.02439745 97.31274414 26.69873047 C96.54922953 26.67770327 95.78571491 26.65667606 94.99906349 26.63501167 C69.2108794 25.93781437 43.41375847 25.60009847 17.61958468 25.2007829 C10.39037785 25.08878515 3.16121043 24.97433119 -4.06795561 24.85973537 C-18.87460893 24.62507395 -33.68130626 24.39329507 -48.48803711 24.16357422 C-41.50520163 11.78503507 -33.32990077 5.83267812 -19.53100586 1.89013672 C-12.94067992 0.31658008 -6.74642648 0.00555684 0 0 Z " fill="#2E353C" transform="translate(1004.488037109375,922.83642578125)"/>
<path d="M0 0 C1.11252938 -0.00128164 1.11252938 -0.00128164 2.2475341 -0.00258917 C4.7395761 -0.00423987 7.2315512 0.00127072 9.72358704 0.00672913 C11.50725808 0.00701111 13.29092924 0.00685304 15.07460022 0.00628662 C19.92345161 0.00599909 24.77227838 0.01188866 29.62112403 0.01886058 C34.68602356 0.02510149 39.75092363 0.0256985 44.81582642 0.02688599 C54.40991751 0.02999712 64.00399724 0.03820758 73.59808332 0.04823548 C84.51934622 0.05940336 95.44060966 0.06490877 106.36187685 0.06993091 C128.83051636 0.08039036 151.29914579 0.09798561 173.76777649 0.12025452 C173.43777649 0.78025452 173.10777649 1.44025452 172.76777649 2.12025452 C173.7951593 2.61654358 174.82254211 3.11283264 175.88105774 3.62416077 C193.42383373 12.18539208 210.02708819 21.36717851 217.86152649 40.31166077 C221.03409759 50.1438962 223.41071263 60.78092723 223.76777649 71.12025452 C223.80773743 72.20564514 223.84769836 73.29103577 223.88887024 74.40931702 C224.34855169 101.39532228 223.76491437 131.45785727 211.76777649 156.12025452 C211.26633118 157.16310608 210.76488586 158.20595764 210.24824524 159.28041077 C203.06885725 172.81818617 192.31048079 181.48803974 178.76777649 188.12025452 C177.80355774 188.60107483 176.83933899 189.08189514 175.84590149 189.57728577 C160.14631921 196.75485722 142.88278144 198.27324439 125.84590149 198.28822327 C124.49659696 198.29144897 123.14729275 198.29481395 121.79798889 198.29830933 C118.97394505 198.30427032 116.14993164 198.30615276 113.32588196 198.30555725 C110.47523066 198.30547657 107.62474204 198.31232972 104.77412415 198.32606506 C65.79310892 198.51084934 29.77752693 196.12731148 0.14277649 167.93275452 C-4.29062702 163.21863332 -8.23222351 158.75147297 -8.23222351 152.12025452 C-3.22500539 150.88362337 -0.2607279 151.46446267 4.51777649 153.30775452 C5.1341095 153.5397052 5.7504425 153.77165588 6.38545227 154.01063538 C9.83958152 155.32111708 13.24186459 156.74169015 16.64277649 158.18275452 C44.07727987 169.16537725 76.61679006 170.11631876 105.76777649 170.49525452 C106.90650208 170.52135803 108.04522766 170.54746155 109.21846008 170.57435608 C121.44062369 170.59967949 132.64573925 166.36351368 141.88887024 158.26087952 C160.60596692 138.85055704 164.34063332 109.39731708 164.15888977 83.69691467 C164.14274433 80.98986287 164.15887962 78.28429412 164.17793274 75.57728577 C164.39517738 54.10741001 164.39517738 54.10741001 155.76777649 35.12025452 C140.7533708 20.2545063 118.65780299 20.63689361 98.95527649 20.43275452 C96.74180786 20.40102323 94.52834763 20.36870165 92.31489563 20.33583069 C85.13270062 20.23715865 77.95041174 20.17634329 70.76777649 20.12025452 C69.49748596 20.10929749 68.22719543 20.09834045 66.91841125 20.08705139 C59.11111506 20.0206271 51.30398296 19.97206654 43.4964447 19.94602966 C40.99901719 19.93728468 38.50159751 19.92581691 36.00419617 19.91142273 C3.17655288 19.14939948 3.17655288 19.14939948 -26.36503601 31.78822327 C-28.24768246 33.13128276 -30.1414952 34.13993524 -32.23222351 35.12025452 C-30.15227617 23.3991395 -27.85685786 12.63914766 -17.65800476 5.25697327 C-11.60268486 1.55306226 -7.1046114 -0.02975402 0 0 Z " fill="#2E353C" transform="translate(596.2322235107422,916.8797454833984)"/>
<path d="M0 0 C1.31269867 -0.00268387 2.62539734 -0.00536774 3.97787476 -0.00813293 C7.6577883 -0.01373984 11.33753499 -0.00454302 15.01742554 0.00828171 C17.38719025 0.01568751 19.75693451 0.0193358 22.12670898 0.02200317 C59.73975396 0.0722762 97.34624834 0.78122583 134.95166016 1.4855957 C138.70620291 1.55582882 142.46074585 1.62605225 146.21529007 1.69620705 C148.68585014 1.74237906 151.15640832 1.78865214 153.62696457 1.83502769 C168.75766316 2.11748346 183.88738972 2.35323333 199.02012634 2.49079704 C201.69413616 2.51518672 204.36812492 2.54123198 207.04211426 2.56776428 C214.21353877 2.63795155 221.38470296 2.70404397 228.55641174 2.73595238 C230.68645017 2.74753159 232.81632185 2.76549541 234.94628906 2.78625488 C237.45532001 2.81035634 239.96448611 2.82425515 242.47363281 2.82434082 C252.60411733 2.94702962 262.68907096 4.40955065 271.7421875 9.203125 C272.680625 9.68652344 273.6190625 10.16992188 274.5859375 10.66796875 C279.97446835 13.90901157 283.43085229 17.54002559 286.8671875 22.765625 C288.32273176 24.93418925 289.78210422 27.10010822 291.2421875 29.265625 C291.62503906 30.04808594 292.00789063 30.83054687 292.40234375 31.63671875 C295.64603516 34.50852197 299.88616418 33.82514536 304.0546875 33.828125 C315.17446101 33.8844888 315.17446101 33.8844888 320.2421875 37.265625 C322.26195679 40.29527894 322.55012749 41.29690653 322.83203125 44.765625 C322.90534668 45.65507813 322.97866211 46.54453125 323.05419922 47.4609375 C323.36251977 52.06092 323.61277387 56.65930373 323.8046875 61.265625 C323.847146 62.2544165 323.88960449 63.24320801 323.93334961 64.26196289 C324.29288412 73.26624078 324.34342013 82.25592092 324.2421875 91.265625 C323.47028076 91.24467773 322.69837402 91.22373047 321.90307617 91.20214844 C318.41207865 91.11909828 314.9212887 91.06699906 311.4296875 91.015625 C310.21474609 90.98210937 308.99980469 90.94859375 307.74804688 90.9140625 C306.58466797 90.90117188 305.42128906 90.88828125 304.22265625 90.875 C303.14910889 90.85405273 302.07556152 90.83310547 300.96948242 90.81152344 C298.13048936 91.00693179 298.13048936 91.00693179 296.40991211 93.15405273 C294.00569723 97.50154478 294.11144215 102.04911608 293.95239258 106.90234375 C292.80023376 141.39447949 292.80023376 141.39447949 282.3203125 152.2578125 C278.25399593 155.55184414 274.33717096 157.20417011 269.2421875 158.265625 C269.67908759 152.29848953 270.2126372 146.36318789 270.99147606 140.42985916 C272.17281758 131.25662914 272.56845151 122.21430876 272.578125 112.96875 C272.58458349 111.47719202 272.59131385 109.9856352 272.59829712 108.49407959 C272.61012719 105.4017849 272.61399218 102.3096008 272.61279297 99.21728516 C272.6125888 95.29188636 272.64005531 91.36720346 272.67433739 87.44197464 C272.6967511 84.37382857 272.70062638 81.30585224 272.69957352 78.23763275 C272.70190142 76.79140472 272.71056209 75.34516991 272.72623825 73.89902496 C272.87555194 58.72711523 269.77723148 46.70305249 259.46875 35.3046875 C247.62717168 23.86282491 232.04395042 22.10942438 216.37158203 21.61132812 C215.13218369 21.5654808 213.89278534 21.51963348 212.61582947 21.47239685 C209.93694755 21.3744396 207.25815521 21.27934407 204.57901382 21.1893158 C200.299839 21.04547772 196.0211241 20.89014933 191.74240112 20.73352051 C184.93052299 20.48549319 178.1184031 20.24500361 171.30614173 20.00775766 C157.7852171 19.53672614 144.26478132 19.05195015 130.74448967 18.56311893 C128.56423496 18.48443761 126.38396386 18.40622364 124.20368958 18.32808685 C106.23040296 17.68259435 88.26459009 16.97494179 70.31253052 15.87145996 C24.00190669 12.73408991 24.00190669 12.73408991 -16.9453125 31.390625 C-30.95472362 44.86549579 -33.09835083 59.62326724 -34.7578125 78.265625 C-35.4178125 78.265625 -36.0778125 78.265625 -36.7578125 78.265625 C-43.14051286 60.74169321 -43.96046337 37.37361522 -36.36328125 20.09375 C-34.94645091 17.38204434 -33.43440616 14.8229892 -31.7578125 12.265625 C-31.1390625 11.316875 -30.5203125 10.368125 -29.8828125 9.390625 C-21.21548645 0.72329895 -11.69813672 -0.03828771 0 0 Z " fill="#EB486E" transform="translate(962.7578125,886.734375)"/>
<path d="M0 0 C11.20855673 0.69714044 22.42620922 0.83698167 33.65258789 1.02075195 C35.96583682 1.06140886 38.27907933 1.10243243 40.59231567 1.14379883 C46.65809383 1.25154994 52.72393032 1.35549511 58.78979492 1.45825195 C69.57747028 1.64131207 80.36505244 1.82963911 91.15258789 2.02075195 C92.31421385 2.04119001 93.47583981 2.06162807 94.67266655 2.08268547 C109.37097566 2.34308496 124.06446793 2.66761116 138.75807762 3.12071419 C148.53089636 3.42169906 158.30165316 3.63723698 168.07836914 3.7668457 C169.9199057 3.7919371 169.9199057 3.7919371 171.79864502 3.8175354 C176.69986372 3.88275641 181.60106094 3.9457279 186.50244141 3.99755859 C199.27710812 4.13747919 212.02837254 4.38061174 224.77368164 5.3059082 C226.19864204 5.39526894 226.19864204 5.39526894 227.65238953 5.48643494 C236.70450048 6.235178 245.18822388 8.81972651 251.59790039 15.52075195 C262.7809062 31.18245542 263.68887195 50.6018971 261.03149414 69.2199707 C259.89801597 75.18408361 258.47618685 80.15117553 255.59790039 85.52075195 C255.26790039 85.52075195 254.93790039 85.52075195 254.59790039 85.52075195 C254.47672852 84.3605957 254.35555664 83.20043945 254.23071289 82.00512695 C253.79932885 77.93623235 253.33876593 73.87125267 252.86254883 69.80737305 C252.64021165 67.88633058 252.43360867 65.9634762 252.23071289 64.0402832 C250.68838116 52.1265575 244.52666283 42.29271232 235.35180664 34.6496582 C226.19429158 27.836467 215.68036412 23.96936782 204.59790039 21.52075195 C203.93906577 21.35796942 203.28023115 21.19518688 202.60143185 21.02747154 C192.9605495 18.92604773 183.2587929 19.22443243 173.44580078 19.23022461 C171.41441096 19.22423231 169.3830234 19.21742516 167.35163879 19.20986938 C161.85991176 19.19227743 156.36824714 19.18751699 150.87649465 19.18623781 C147.44020843 19.18481223 144.00393788 19.18053503 140.56765556 19.17524338 C128.56511306 19.15676836 116.56261485 19.14856994 104.56005859 19.15014648 C93.39407931 19.15134844 82.22829315 19.13022886 71.06236273 19.09865916 C61.4543804 19.0724678 51.84646106 19.06178033 42.23844332 19.0630573 C36.50929136 19.06356592 30.78031134 19.05793741 25.05119514 19.0367012 C19.66251096 19.01726968 14.27416196 19.01722801 8.88546562 19.03173447 C6.91510908 19.03381728 4.94473126 19.02915334 2.97441101 19.01701355 C-13.43404029 18.92251158 -27.76826916 21.1200212 -40.21459961 32.89575195 C-49.87683933 43.35183766 -52.53739336 55.33758972 -53.00366211 69.2355957 C-53.04232391 70.27304428 -53.08098572 71.31049286 -53.12081909 72.37937927 C-53.51632324 84.06181749 -53.55291396 95.7450677 -53.5324707 107.43310547 C-53.52705812 111.1114505 -53.53248437 114.78967595 -53.53881836 118.46801758 C-53.54177537 130.18990232 -53.48275734 141.84152511 -52.40209961 153.52075195 C-59.83057839 151.46895914 -63.94412341 149.43321866 -68.10522461 142.80981445 C-74.63098045 130.48690659 -74.73356963 118.6724284 -74.96850586 104.95629883 C-74.74149291 94.42718998 -74.74149291 94.42718998 -79.40209961 85.52075195 C-82.0203763 85.1490218 -82.0203763 85.1490218 -85.06616211 85.10668945 C-86.74838867 85.04868164 -86.74838867 85.04868164 -88.46459961 84.98950195 C-89.64022461 84.95856445 -90.81584961 84.92762695 -92.02709961 84.89575195 C-93.21045898 84.85708008 -94.39381836 84.8184082 -95.61303711 84.77856445 C-98.54256652 84.6840635 -101.47208558 84.59850637 -104.40209961 84.52075195 C-104.57956014 74.61253894 -104.19604876 64.90594296 -103.23022461 55.046875 C-103.02425465 52.92899882 -102.83371559 50.81008709 -102.64428711 48.69067383 C-102.51498462 47.32014536 -102.38480917 45.9496989 -102.25366211 44.5793457 C-102.13845215 43.36561279 -102.02324219 42.15187988 -101.90454102 40.90136719 C-100.71210778 32.87822674 -100.71210778 32.87822674 -97.58959961 29.64257812 C-94.91291758 28.26988237 -93.38417571 28.31110078 -90.40209961 28.5715332 C-79.8678797 29.46966202 -79.8678797 29.46966202 -70.28149414 26.01293945 C-67.29624748 22.83216691 -65.14936996 19.34685829 -62.99975586 15.5715332 C-58.38064961 7.56094643 -49.63118016 3.30919922 -41.00756836 0.83325195 C-27.80948295 -1.94936049 -13.37127851 -0.89821361 0 0 Z " fill="#EC496E" transform="translate(594.402099609375,878.479248046875)"/>
<path d="M0 0 C11.27424272 5.41331505 18.57685416 12.38201492 23.1328125 24.18359375 C34.08192888 58.61777135 27.51746084 108.72717252 11.8359375 140.82421875 C-1.45980412 165.59743189 -23.46519988 178.77566535 -49.6015625 186.94921875 C-89.17743534 197.46155997 -141.83374246 197.03309218 -178.37109375 175.91113281 C-195.92738067 165.26835103 -208.14432637 149.48524533 -214.1640625 129.82421875 C-215.28443766 124.73998465 -215.34738417 119.75535318 -215.3515625 114.57421875 C-215.36380859 113.75953125 -215.37605469 112.94484375 -215.38867188 112.10546875 C-215.39387489 110.01038701 -215.2869682 107.91569879 -215.1640625 105.82421875 C-213.1640625 103.82421875 -213.1640625 103.82421875 -209.7265625 103.51171875 C-206.1640625 103.82421875 -206.1640625 103.82421875 -204.47265625 104.96484375 C-202.61727242 107.60115032 -202.75560658 109.68649012 -202.6640625 112.88671875 C-201.72611448 128.37138786 -194.6598283 143.41330393 -183.796875 154.4921875 C-179.56804514 158.23790178 -175.12520717 161.14251893 -170.1640625 163.82421875 C-169.37128906 164.2728125 -168.57851563 164.72140625 -167.76171875 165.18359375 C-137.1948716 180.82918376 -83.47924854 184.08628763 -51.1640625 173.82421875 C-39.29355763 169.76171647 -29.6623669 163.93017374 -20.1640625 155.82421875 C-19.49246094 155.31375 -18.82085938 154.80328125 -18.12890625 154.27734375 C0.25271603 140.04100759 6.63090587 114.30419316 9.515625 92.44238281 C11.2461471 78.29747503 12.26450171 64.06073008 12.8359375 49.82421875 C12.89007812 48.65375 12.94421875 47.48328125 13 46.27734375 C13.30749533 34.59252102 11.56306168 23.93471555 3.8359375 14.82421875 C-2.52173585 8.29471639 -11.46391939 7.35094975 -20.1640625 6.82421875 C-20.4940625 5.50421875 -20.8240625 4.18421875 -21.1640625 2.82421875 C-14.36411836 -2.01129708 -7.93380176 -2.94823991 0 0 Z " fill="#270F22" transform="translate(1179.1640625,938.17578125)"/>
<path d="M0 0 C1.63775391 -0.01160156 1.63775391 -0.01160156 3.30859375 -0.0234375 C4.34886719 -0.02085937 5.38914062 -0.01828125 6.4609375 -0.015625 C7.40501465 -0.01336914 8.3490918 -0.01111328 9.32177734 -0.00878906 C11.625 0.25 11.625 0.25 13.625 2.25 C13.86791992 4.30957031 13.86791992 4.30957031 13.85546875 6.828125 C13.85353516 7.74207031 13.85160156 8.65601563 13.84960938 9.59765625 C13.83124023 11.03431641 13.83124023 11.03431641 13.8125 12.5 C13.81185547 13.44230469 13.81121094 14.38460937 13.81054688 15.35546875 C13.78047316 20.12048205 13.45331734 24.55208078 12.625 29.25 C12.01219083 36.89690387 11.8634292 44.5844451 11.625 52.25 C11.5842334 53.384375 11.5434668 54.51875 11.50146484 55.6875 C11.3877534 59.12497288 11.31376287 62.56127101 11.25 66 C11.21189209 67.05735352 11.17378418 68.11470703 11.13452148 69.20410156 C11.00783494 81.09199172 16.23486539 90.4776803 24.2578125 98.98046875 C34.5657259 108.73059463 48.14099211 114.65275199 60.85571289 120.53222656 C62.27871704 121.19303223 62.27871704 121.19303223 63.73046875 121.8671875 C64.57762451 122.25503418 65.42478027 122.64288086 66.29760742 123.04248047 C68.65978092 124.26804536 70.65286808 125.45890973 72.625 127.25 C72.625 128.24 72.625 129.23 72.625 130.25 C52.49521358 136.95992881 23.41861336 127.71635855 5.25 118.875 C-0.50133716 115.87937681 -5.53058839 112.55292049 -10.375 108.25 C-11.32826172 107.43595703 -11.32826172 107.43595703 -12.30078125 106.60546875 C-21.38861096 98.29603987 -24.547985 87.09709701 -25.20947266 75.15527344 C-25.59198364 65.33878991 -25.5609375 55.50934633 -25.56030273 45.68701172 C-25.56250701 41.86284537 -25.58077016 38.03895998 -25.59960938 34.21484375 C-25.60254101 31.76041764 -25.60452734 29.30599018 -25.60546875 26.8515625 C-25.61265427 25.72013824 -25.61983978 24.58871399 -25.62724304 23.42300415 C-25.58287309 7.96207327 -25.58287309 7.96207327 -22.01506042 3.57949829 C-16.24165378 -1.10065505 -6.96347915 -0.05039913 0 0 Z " fill="#565F68" transform="translate(607.375,945.75)"/>
<path d="M0 0 C0.78528076 -0.0093457 1.57056152 -0.01869141 2.37963867 -0.02832031 C6.37945608 -0.0059389 9.15050474 0.29916826 12.625 2.25 C12.65456684 6.31248413 12.67198559 10.37493982 12.6875 14.4375 C12.69587891 15.56865234 12.70425781 16.69980469 12.71289062 17.86523438 C12.72869581 23.41285305 12.62305246 28.88611983 12.140625 34.4140625 C11.47751192 42.24519684 11.36735225 50.06164852 11.32983398 57.91674805 C11.31824048 59.60270531 11.29767434 61.28862383 11.26831055 62.97436523 C11.03405896 76.50206704 12.19799672 86.80843135 21.625 97.25 C32.44627153 108.42175806 46.21744018 114.69172349 60.13085938 121.12597656 C61.18337891 121.61678711 62.23589844 122.10759766 63.3203125 122.61328125 C64.26922363 123.04938721 65.21813477 123.48549316 66.19580078 123.93481445 C68.4648282 125.16328186 69.93783881 126.32206759 71.625 128.25 C71.295 129.24 70.965 130.23 70.625 131.25 C56.586523 131.59568797 43.32948237 131.44126555 29.625 128.25 C28.366875 127.98316406 27.10875 127.71632813 25.8125 127.44140625 C8.04282443 123.27663854 -10.31818094 113.97563923 -20.375 98.25 C-23.9933531 91.02381226 -25.49909021 84.44374468 -25.50439453 76.36767578 C-25.50614685 75.69543976 -25.50789917 75.02320374 -25.50970459 74.33059692 C-25.51408855 72.11880881 -25.51119664 69.90710136 -25.5078125 67.6953125 C-25.50848669 66.14981064 -25.50945768 64.60430888 -25.51071167 63.05880737 C-25.5121841 59.82256051 -25.51004929 56.5863413 -25.50537109 53.35009766 C-25.49968365 49.21552889 -25.50294945 45.08102518 -25.50894356 40.94645882 C-25.51256961 37.75503048 -25.51140104 34.56361738 -25.50881577 31.37218857 C-25.50815165 29.84845853 -25.50895678 28.32472708 -25.51129532 26.80099869 C-25.51385443 24.66433337 -25.50993528 22.527771 -25.50439453 20.39111328 C-25.50359894 19.17819611 -25.50280334 17.96527893 -25.50198364 16.71560669 C-25.15251532 7.17800215 -25.15251532 7.17800215 -22.4375 3.9375 C-15.39347995 0.0561012 -7.87262767 0.06616315 0 0 Z " fill="#565F68" transform="translate(1014.375,956.75)"/>
<path d="M0 0 C8.20840077 0.78175245 12.8325025 5.22380791 17.98046875 11.27734375 C27.42426995 24.00912216 31.45744546 40.28950765 32 56 C32.03996094 57.08539062 32.07992187 58.17078125 32.12109375 59.2890625 C32.5807752 86.27506776 31.99713788 116.33760276 20 141 C19.49855469 142.04285156 18.99710938 143.08570313 18.48046875 144.16015625 C11.30108076 157.69793165 0.5427043 166.36778522 -13 173 C-13.96421875 173.48082031 -14.9284375 173.96164062 -15.921875 174.45703125 C-31.62145728 181.63460271 -48.88499505 183.15298987 -65.921875 183.16796875 C-67.27117953 183.17119446 -68.62048374 183.17455943 -69.9697876 183.17805481 C-72.79383144 183.1840158 -75.61784485 183.18589824 -78.44189453 183.18530273 C-81.29254582 183.18522205 -84.14303445 183.19207521 -86.99365234 183.20581055 C-125.97466757 183.39059482 -161.99024956 181.00705696 -191.625 152.8125 C-196.05840351 148.0983788 -200 143.63121845 -200 137 C-196.06635168 137.55554942 -194.23773642 139.40318865 -191.4375 142.125 C-175.82709777 156.52582428 -157.008839 162.01989373 -136.6875 166.1875 C-135.87595459 166.35459473 -135.06440918 166.52168945 -134.22827148 166.69384766 C-123.56874063 168.7960929 -113.06702642 169.1729835 -102.21875 169.203125 C-101.52223831 169.20595238 -100.82572662 169.20877975 -100.10810852 169.21169281 C-96.41744626 169.2265921 -92.72682211 169.23587831 -89.03613281 169.24023438 C-86.02624306 169.2446071 -83.01664189 169.25846458 -80.00683594 169.28125 C-54.27004285 169.47206141 -29.00056249 169.28637931 -7 154 C-5.948125 153.278125 -4.89625 152.55625 -3.8125 151.8125 C18.40050483 129.59949517 17.31082536 90.02058083 17.38012695 60.84130859 C17.3234797 43.76509134 14.20394161 29.77761935 5.64453125 14.87890625 C5.23033936 14.15582275 4.81614746 13.43273926 4.3894043 12.68774414 C3.55784018 11.24892467 2.71452377 9.81682258 1.85864258 8.39233398 C0.83041533 6.63690299 -0.09353137 4.82129181 -1 3 C-0.67 2.01 -0.34 1.02 0 0 Z " fill="#271022" transform="translate(788,932)"/>
<path d="M0 0 C2.875 1 2.875 1 5 2 C0.91396052 11.11501114 -7.53035006 18.81054137 -14.05761719 26.30761719 C-18.0457796 30.88902165 -21.98737693 35.50653702 -25.90136719 40.15136719 C-29.28481948 44.16384184 -32.70100184 48.14710388 -36.125 52.125 C-39.61823856 56.18620876 -43.06448707 60.27518971 -46.4375 64.4375 C-50.53979949 69.48933717 -54.78701978 74.4030598 -59.06005859 79.31005859 C-63.04703759 83.89096638 -66.98811681 88.50741507 -70.90136719 93.15136719 C-74.28481948 97.16384184 -77.70100184 101.14710388 -81.125 105.125 C-84.61823856 109.18620876 -88.06448707 113.27518971 -91.4375 117.4375 C-95.57996379 122.54227843 -99.88119099 127.49622682 -104.20068359 132.45068359 C-108.11097264 136.94620152 -111.90651334 141.52104158 -115.66015625 146.1484375 C-118.56936392 149.69388257 -121.52576463 153.19654121 -124.5 156.6875 C-125.02924072 157.31277588 -125.55848145 157.93805176 -126.10375977 158.58227539 C-127.38003658 160.07436699 -128.68709577 161.54003345 -130 163 C-130.33 163 -130.66 163 -131 163 C-131.02505615 162.25427734 -131.0501123 161.50855469 -131.07592773 160.74023438 C-131.19273218 157.32668404 -131.31507245 153.9133531 -131.4375 150.5 C-131.47681641 149.32695313 -131.51613281 148.15390625 -131.55664062 146.9453125 C-131.80262674 140.20907735 -132.28251482 133.67138394 -133.3059082 127.00830078 C-134.9550843 115.09396064 -134.9550843 115.09396064 -131.79882812 110.09912109 C-128.06683008 105.77879851 -123.55257497 102.4044289 -119 99 C-117.16102521 97.50692169 -115.32711181 96.00757207 -113.5 94.5 C-112.6234375 93.79875 -111.746875 93.0975 -110.84375 92.375 C-107.44364815 89.5353545 -104.224149 86.53610629 -101 83.5 C-96.08693945 78.87379473 -91.04878041 74.52729122 -85.77734375 70.30859375 C-82.5755733 67.6472065 -79.5376359 64.84539173 -76.5 62 C-72.62527236 58.37049392 -68.71100257 54.88252041 -64.5625 51.5625 C-60.18748028 48.05356861 -56.07979091 44.34155495 -52 40.5 C-47.09037644 35.87706979 -42.05521692 31.5339901 -36.7890625 27.31640625 C-32.37181996 23.64774403 -28.20945938 19.71228748 -24.01171875 15.796875 C-20.98628625 12.97628458 -17.90958627 10.22337524 -14.765625 7.53515625 C-13.54017537 6.46966575 -12.34367397 5.37031969 -11.171875 4.24609375 C-7.46410456 0.77207405 -5.32186037 -0.92554093 0 0 Z " fill="#EB486D" transform="translate(1437,805)"/>
<path d="M0 0 C2.6366637 -0.00209684 5.27283939 -0.02003226 7.90942383 -0.03930664 C22.78041746 -0.08725883 37.60706813 0.5770561 52.45933914 1.24361801 C67.96817966 1.9382189 83.47510876 2.49787489 98.9934082 2.93139648 C101.04336261 2.98973429 103.0933148 3.04815013 105.14326477 3.10664368 C113.38650346 3.34050624 121.62981666 3.57075489 129.87353516 3.78710938 C150.40225388 4.32941808 170.90397103 4.9150294 191.3762207 6.59545898 C192.08439627 6.6517642 192.79257183 6.70806942 193.52220726 6.76608086 C201.24516991 7.39375562 208.87442662 8.32446238 216.50976562 9.64013672 C217.19895993 9.75757012 217.88815424 9.87500353 218.59823322 9.99599552 C229.88842465 12.04301343 239.81150153 15.69078965 246.63793945 25.24780273 C261.78098676 55.33975572 258.69196036 100.06632132 254.20043945 132.56030273 C254.10335693 133.35146484 254.00627441 134.14262695 253.90625 134.95776367 C253.102801 140.17820042 251.73176623 142.78672375 247.45043945 146.18530273 C245.2824707 147.54858398 245.2824707 147.54858398 243.26293945 148.49780273 C242.58875977 148.82393555 241.91458008 149.15006836 241.2199707 149.48608398 C239.45043945 150.18530273 239.45043945 150.18530273 237.45043945 150.18530273 C237.88733955 144.21816727 238.42088915 138.28286563 239.19972801 132.3495369 C240.38106953 123.17630687 240.77670346 114.1339865 240.78637695 104.88842773 C240.79283544 103.39686976 240.7995658 101.90531294 240.80654907 100.41375732 C240.81837914 97.32146264 240.82224413 94.22927853 240.82104492 91.13696289 C240.82084076 87.21156409 240.84830727 83.28688119 240.88258934 79.36165237 C240.90500305 76.29350631 240.90887833 73.22552998 240.90782547 70.15731049 C240.91015338 68.71108245 240.91881404 67.26484764 240.9344902 65.8187027 C241.08380389 50.64679297 237.98548344 38.62273022 227.67700195 27.22436523 C215.83542364 15.78250264 200.25220238 14.02910212 184.57983398 13.53100586 C183.34043564 13.48515854 182.10103729 13.43931122 180.82408142 13.39207458 C178.14519951 13.29411733 175.46640716 13.1990218 172.78726578 13.10899353 C168.50809095 12.96515546 164.22937605 12.80982706 159.95065308 12.65319824 C153.13877494 12.40517093 146.32665506 12.16468134 139.51439369 11.9274354 C125.99346905 11.45640387 112.47303328 10.97162789 98.95274162 10.48279667 C96.77248691 10.40411535 94.59221582 10.32590137 92.41194153 10.24776459 C74.43865491 9.60227209 56.47284204 8.89461952 38.52078247 7.7911377 C-7.78984136 4.65376765 -7.78984136 4.65376765 -48.73706055 23.31030273 C-62.74647167 36.78517353 -64.89009888 51.54294497 -66.54956055 70.18530273 C-67.20956055 70.18530273 -67.86956055 70.18530273 -68.54956055 70.18530273 C-70.22853627 63.96321625 -70.80262911 58.41837305 -70.36206055 51.99780273 C-70.30945068 51.1733667 -70.25684082 50.34893066 -70.20263672 49.49951172 C-69.22960589 36.21087486 -66.99581315 21.72999637 -56.73706055 12.24780273 C-55.3695476 11.18933226 -53.97326319 10.16689439 -52.54956055 9.18530273 C-51.88311523 8.71479492 -51.21666992 8.24428711 -50.5300293 7.75952148 C-36.07460028 -1.33211198 -16.46109382 -0.00143853 0 0 Z " fill="#C32356" transform="translate(994.549560546875,894.814697265625)"/>
<path d="M0 0 C11.20855673 0.69714044 22.42620922 0.83698167 33.65258789 1.02075195 C35.96583682 1.06140886 38.27907933 1.10243243 40.59231567 1.14379883 C46.65809383 1.25154994 52.72393032 1.35549511 58.78979492 1.45825195 C69.57747028 1.64131207 80.36505244 1.82963911 91.15258789 2.02075195 C92.31421385 2.04119001 93.47583981 2.06162807 94.67266655 2.08268547 C109.37097566 2.34308496 124.06446793 2.66761116 138.75807762 3.12071419 C148.53089636 3.42169906 158.30165316 3.63723698 168.07836914 3.7668457 C169.9199057 3.7919371 169.9199057 3.7919371 171.79864502 3.8175354 C176.69986372 3.88275641 181.60106094 3.9457279 186.50244141 3.99755859 C199.27710812 4.13747919 212.02837254 4.38061174 224.77368164 5.3059082 C226.19864204 5.39526894 226.19864204 5.39526894 227.65238953 5.48643494 C236.70450048 6.235178 245.18822388 8.81972651 251.59790039 15.52075195 C258.59549372 25.32082124 261.78313932 35.36733704 261.66040039 47.39575195 C261.65137695 48.54817383 261.64235352 49.7005957 261.63305664 50.88793945 C261.6156543 52.19118164 261.6156543 52.19118164 261.59790039 53.52075195 C260.0833437 50.7034198 259.142574 48.05034732 258.34790039 44.95825195 C255.54408798 35.47271744 250.39484627 25.82131428 242.59790039 19.52075195 C236.34417346 16.62017466 230.28995712 15.68924336 223.47290039 14.95825195 C222.36470947 14.83530762 221.25651855 14.71236328 220.11474609 14.58569336 C204.37005656 12.95151827 188.54879017 12.29228876 172.73950195 11.61322021 C170.82109738 11.53038896 168.90284649 11.4440164 166.98461914 11.35717773 C159.29994375 11.01550878 151.61412108 10.77256898 143.92443848 10.5793457 C142.30568188 10.5385774 140.68694955 10.49683856 139.0682373 10.4543457 C104.97052501 9.56375112 70.8758247 9.41458712 36.76830673 9.3978157 C33.50077818 9.39576941 30.23325531 9.392014 26.96572876 9.38790894 C21.72716279 9.38195069 16.48862636 9.38197454 11.25005913 9.38636971 C9.3144781 9.38739188 7.37889547 9.38688411 5.44331551 9.38461113 C0.08310845 9.37941774 -5.27523376 9.40536219 -10.63492584 9.48220062 C-12.56133962 9.50903877 -14.4878505 9.52936752 -16.41439056 9.54465485 C-19.48800476 9.57622159 -22.55922604 9.64242913 -25.63208008 9.71655273 C-26.56162066 9.72175871 -27.49116123 9.72696468 -28.44886971 9.73232841 C-36.9750354 10.0033345 -43.87061903 12.94301854 -50.14038086 18.7590332 C-53.80699856 22.72645751 -56.70415541 27.15682956 -59.58959961 31.70825195 C-67.34179335 43.8339832 -67.34179335 43.8339832 -72.40209961 45.52075195 C-74.27395318 45.61492209 -76.14897369 45.65146348 -78.02319336 45.65356445 C-79.1234082 45.65485352 -80.22362305 45.65614258 -81.35717773 45.6574707 C-82.50637695 45.65360352 -83.65557617 45.64973633 -84.83959961 45.64575195 C-85.98493164 45.64961914 -87.13026367 45.65348633 -88.31030273 45.6574707 C-89.41180664 45.65618164 -90.51331055 45.65489258 -91.64819336 45.65356445 C-92.65551514 45.65243652 -93.66283691 45.65130859 -94.70068359 45.65014648 C-97.098427 45.5352975 -99.11194139 45.20721998 -101.40209961 44.52075195 C-101.59388033 39.72623398 -101.40260426 35.92186219 -99.40209961 31.52075195 C-97.23949248 29.46908609 -96.02960525 28.56790518 -93.02709961 28.34228516 C-92.16084961 28.41793701 -91.29459961 28.49358887 -90.40209961 28.5715332 C-79.8678797 29.46966202 -79.8678797 29.46966202 -70.28149414 26.01293945 C-67.29624748 22.83216691 -65.14936996 19.34685829 -62.99975586 15.5715332 C-58.38064961 7.56094643 -49.63118016 3.30919922 -41.00756836 0.83325195 C-27.80948295 -1.94936049 -13.37127851 -0.89821361 0 0 Z " fill="#F4A08F" transform="translate(594.402099609375,878.479248046875)"/>
<path d="M0 0 C-2.65994896 1.77329931 -4.72116341 2.68826571 -7.6875 3.75 C-17.90001438 7.78750568 -26.58886847 15.56542781 -31.09152222 25.70811462 C-34.23734816 33.64432683 -35.4816148 41.4122111 -35.6796875 49.90234375 C-35.72922073 51.43821388 -35.72922073 51.43821388 -35.77975464 53.00511169 C-36.11734616 64.63781176 -36.15072467 76.2755858 -36.13037109 87.91235352 C-36.12495851 91.59069855 -36.13038476 95.268924 -36.13671875 98.94726562 C-36.13967576 110.66915036 -36.08065773 122.32077316 -35 134 C-42.74866854 131.89464623 -42.74866854 131.89464623 -45.8125 129.125 C-46.37582031 128.63257813 -46.93914063 128.14015625 -47.51953125 127.6328125 C-51.3847215 123.369885 -51.23137279 119.2733949 -51.046875 113.73828125 C-51.02740814 112.92354843 -51.00794128 112.10881561 -50.98788452 111.26939392 C-50.92038587 108.61662129 -50.83627974 105.96472373 -50.75 103.3125 C-50.72355408 102.4090686 -50.69710815 101.50563721 -50.66986084 100.5748291 C-48.47737018 25.69105035 -48.47737018 25.69105035 -31.3125 9.25 C-22.77569213 2.23191263 -10.933828 -0.59101773 0 0 Z " fill="#C32356" transform="translate(577,898)"/>
<path d="M0 0 C5.88579619 -0.07490245 11.7713068 -0.12895322 17.6574707 -0.16479492 C19.65426475 -0.1797576 21.65102664 -0.20013511 23.64770508 -0.22631836 C50.21812262 -0.56568507 50.21812262 -0.56568507 62.5 5.9375 C63.90765625 6.66259766 63.90765625 6.66259766 65.34375 7.40234375 C70.73228085 10.64338657 74.18866479 14.27440059 77.625 19.5 C79.08054426 21.66856425 80.53991672 23.83448322 82 26 C82.38285156 26.78246094 82.76570313 27.56492187 83.16015625 28.37109375 C86.40384766 31.24289697 90.64397668 30.55952036 94.8125 30.5625 C105.93227351 30.6188638 105.93227351 30.6188638 111 34 C113.01976929 37.02965394 113.30793999 38.03128153 113.58984375 41.5 C113.66315918 42.38945313 113.73647461 43.27890625 113.81201172 44.1953125 C114.12033227 48.795295 114.37058637 53.39367873 114.5625 58 C114.6049585 58.9887915 114.64741699 59.97758301 114.69116211 60.99633789 C115.05069662 70.00061578 115.10123263 78.99029592 115 88 C112.03 87.67 109.06 87.34 106 87 C105.97494385 85.91468994 105.9498877 84.82937988 105.92407227 83.71118164 C105.83016245 79.698684 105.72990233 75.68636618 105.62768555 71.67407227 C105.58427427 69.93485712 105.54260388 68.19559765 105.50268555 66.45629883 C105.44513232 63.96161512 105.3813958 61.4671559 105.31640625 58.97265625 C105.29969376 58.19036148 105.28298126 57.40806671 105.26576233 56.60206604 C105.49351269 53.00128219 105.49351269 53.00128219 104 50 C100.53802478 49.83492568 97.07838144 49.74505557 93.61328125 49.671875 C89.29986507 48.86981275 86.77995663 47.29563936 84 44 C82.46634099 41.53444089 81.29489583 38.9662503 80.125 36.3125 C74.92840284 25.35869247 69.65896486 17.49073501 58 13 C56.83855469 12.5153125 55.67710938 12.030625 54.48046875 11.53125 C48.91798032 9.4627444 43.13340923 8.5047228 37.3125 7.4375 C36.21744141 7.22931641 35.12238281 7.02113281 33.99414062 6.80664062 C27.34506425 5.55822664 20.68384267 4.45615971 13.9921875 3.46166992 C9.31028074 2.73929022 4.6550912 1.87691097 0 1 C0 0.67 0 0.34 0 0 Z " fill="#F19D8D" transform="translate(1172,890)"/>
<path d="M0 0 C1.34100702 4.02302107 -0.09561121 6.38718989 -1.625 10.125 C-3.77487833 15.61136578 -5.71136158 21.07903844 -7.3125 26.75 C-9.50299898 34.47868973 -11.95224983 42.11135228 -14.4375 49.75 C-17.4102263 58.91026552 -20.23257134 68.08663658 -22.81860352 77.36303711 C-25.61316158 87.32458436 -28.80613705 97.16056585 -32 107 C-34.64 107 -37.28 107 -40 107 C-39.40831863 100.48922707 -37.31634292 94.76828474 -35.05859375 88.66015625 C-34.65869736 87.56494156 -34.25880096 86.46972687 -33.8467865 85.34132385 C-29.82156402 74.38422152 -25.60585117 63.50236998 -21.32543945 52.64282227 C-20.06198309 49.43618809 -18.80503078 46.22705993 -17.54882812 43.01757812 C-11.88995929 28.59735975 -6.01544428 14.27498398 0 0 Z " fill="#E04569" transform="translate(530,786)"/>
<path d="M0 0 C17.85649203 -0.18451025 17.85649203 -0.18451025 26 1 C25.855625 2.216875 25.71125 3.43375 25.5625 4.6875 C24.88136774 10.7787685 24.44401931 16.88764914 24 23 C23.12601563 22.7834375 23.12601563 22.7834375 22.234375 22.5625 C15.41659555 21.01885182 8.97305646 20.78433846 2 21 C1.93941406 20.07058594 1.87882813 19.14117188 1.81640625 18.18359375 C1.69072266 16.32927734 1.69072266 16.32927734 1.5625 14.4375 C1.48128906 13.21933594 1.40007813 12.00117187 1.31640625 10.74609375 C1.0105741 7.12519214 0.5497926 3.58982228 0 0 Z " fill="#DF2C5C" transform="translate(876,909)"/>
<path d="M0 0 C1.35521028 4.06563083 -0.14423554 6.53154669 -1.6875 10.3125 C-4.62043052 17.77067007 -6.94110159 25.24885305 -9 33 C-9.99 32.34 -10.98 31.68 -12 31 C-9.99765361 23.68094152 -7.36796037 16.81435498 -4.3125 9.875 C-3.89677734 8.91851563 -3.48105469 7.96203125 -3.05273438 6.9765625 C-2.04015854 4.64880196 -1.02253838 2.32339703 0 0 Z " fill="#B73859" transform="translate(530,786)"/>
<path d="M0 0 C0.33 0 0.66 0 1 0 C1.23509196 4.81938524 0.45184478 8.46298506 -1 13 C-1.66 12.01 -2.32 11.02 -3 10 C-3.99 10.495 -3.99 10.495 -5 11 C-4.54917531 9.53932801 -4.08906463 8.08151968 -3.625 6.625 C-3.36976563 5.81289063 -3.11453125 5.00078125 -2.8515625 4.1640625 C-2 2 -2 2 0 0 Z " fill="#D14064" transform="translate(519,816)"/>
<path d="M0 0 C-3.68734758 2.45823172 -6.69699971 3.01242616 -11 4 C-10.67 3.01 -10.34 2.02 -10 1 C-6.76421296 -0.31828361 -3.44785988 -0.07836045 0 0 Z " fill="#B62352" transform="translate(577,898)"/>
<path d="M0 0 C0.33 0.99 0.66 1.98 1 3 C-0.9375 6.1875 -0.9375 6.1875 -3 9 C-4 7 -4 7 -3.75 5.0625 C-2.90193356 2.73031728 -1.8549004 1.61295687 0 0 Z " fill="#E24269" transform="translate(1250,1027)"/>
</svg>
